# MagicaVoxel @ Ephtracy

# group
o 

# material
mtllib Face.mtl
usemtl palette

# normals
vn -1 0 0
vn 1 0 0
vn 0 0 1
vn 0 0 -1
vn 0 -1 0
vn 0 1 0

# texcoords
vt 0.0136719 0.5
vt 0.849609 0.5
vt 0.958984 0.5
vt 0.978516 0.5
vt 0.986328 0.5
vt 0.990234 0.5

# verts
v -1.8 0 1.8
v -1.8 0 -1.8
v -1.8 3.4 1.8
v -1.8 3.4 -1.8
v 1.8 0 1.8
v 1.8 0 -1.8
v 1.8 3.4 1.8
v 1.8 3.4 -1.8
v -1.8 0 1.8
v -1.8 3.4 1.8
v -1.6 2.9 1.8
v -1.6 3 1.8
v -1.5 1.6 1.8
v -1.5 2.8 1.8
v -1.5 2.9 1.8
v -1.4 1.7 1.8
v -1.4 2.8 1.8
v -1.1 1.6 1.8
v -1.1 1.7 1.8
v -1.1 2.2 1.8
v -0.9 0.3 1.8
v -0.9 0.9 1.8
v -0.7 0.3 1.8
v -0.7 0.7 1.8
v -0.6 2.2 1.8
v -0.6 2.8 1.8
v -0.5 1.6 1.8
v -0.5 2.2 1.8
v -0.5 2.8 1.8
v -0.5 2.9 1.8
v -0.4 2.9 1.8
v -0.4 3 1.8
v 0.3 0.3 1.8
v 0.3 0.7 1.8
v 0.3 0.9 1.8
v 0.4 2.9 1.8
v 0.4 3 1.8
v 0.5 1.6 1.8
v 0.5 2.8 1.8
v 0.5 2.9 1.8
v 0.6 1.7 1.8
v 0.6 2.8 1.8
v 0.9 1.6 1.8
v 0.9 1.7 1.8
v 0.9 2.2 1.8
v 1.4 2.2 1.8
v 1.4 2.8 1.8
v 1.5 1.6 1.8
v 1.5 2.2 1.8
v 1.5 2.8 1.8
v 1.5 2.9 1.8
v 1.6 2.9 1.8
v 1.6 3 1.8
v 1.8 0 1.8
v 1.8 3.4 1.8
v -1.8 0 -1.8
v -1.8 3.4 -1.8
v 1.8 0 -1.8
v 1.8 3.4 -1.8
v -1.8 0 1.8
v 1.8 0 1.8
v -1.8 0 -1.8
v 1.8 0 -1.8
v -1.8 3.4 1.8
v 1.8 3.4 1.8
v -1.8 3.4 -1.8
v 1.8 3.4 -1.8

# faces
f 3/1/1 2/1/1 1/1/1
f 4/1/1 2/1/1 3/1/1
f 5/1/2 6/1/2 7/1/2
f 7/1/2 6/1/2 8/1/2
f 11/1/3 10/1/3 9/1/3
f 12/1/3 10/1/3 11/1/3
f 13/1/3 11/1/3 9/1/3
f 14/1/3 11/1/3 13/1/3
f 15/5/3 12/5/3 11/5/3
f 15/1/3 11/1/3 14/1/3
f 16/4/3 14/4/3 13/4/3
f 17/5/3 15/5/3 14/5/3
f 17/4/3 14/4/3 16/4/3
f 18/1/3 13/1/3 9/1/3
f 18/4/3 16/4/3 13/4/3
f 19/3/3 17/3/3 16/3/3
f 19/4/3 16/4/3 18/4/3
f 20/3/3 17/3/3 19/3/3
f 21/1/3 18/1/3 9/1/3
f 22/1/3 18/1/3 21/1/3
f 23/1/3 21/1/3 9/1/3
f 23/6/3 22/6/3 21/6/3
f 24/6/3 22/6/3 23/6/3
f 25/3/3 17/3/3 20/3/3
f 25/6/3 19/6/3 18/6/3
f 25/6/3 20/6/3 19/6/3
f 26/5/3 15/5/3 17/5/3
f 26/3/3 17/3/3 25/3/3
f 27/6/3 25/6/3 18/6/3
f 27/1/3 18/1/3 22/1/3
f 28/4/3 26/4/3 25/4/3
f 28/6/3 25/6/3 27/6/3
f 29/5/3 15/5/3 26/5/3
f 29/4/3 26/4/3 28/4/3
f 30/5/3 12/5/3 15/5/3
f 30/5/3 15/5/3 29/5/3
f 31/1/3 29/1/3 28/1/3
f 31/5/3 12/5/3 30/5/3
f 31/1/3 30/1/3 29/1/3
f 31/1/3 28/1/3 27/1/3
f 32/1/3 10/1/3 12/1/3
f 32/5/3 12/5/3 31/5/3
f 33/1/3 23/1/3 9/1/3
f 33/2/3 24/2/3 23/2/3
f 34/6/3 22/6/3 24/6/3
f 34/2/3 24/2/3 33/2/3
f 35/1/3 31/1/3 27/1/3
f 35/6/3 22/6/3 34/6/3
f 35/1/3 27/1/3 22/1/3
f 35/1/3 32/1/3 31/1/3
f 36/1/3 34/1/3 33/1/3
f 36/1/3 32/1/3 35/1/3
f 36/1/3 35/1/3 34/1/3
f 37/1/3 10/1/3 32/1/3
f 37/1/3 32/1/3 36/1/3
f 38/1/3 36/1/3 33/1/3
f 39/1/3 36/1/3 38/1/3
f 40/5/3 37/5/3 36/5/3
f 40/1/3 36/1/3 39/1/3
f 41/4/3 39/4/3 38/4/3
f 42/5/3 40/5/3 39/5/3
f 42/4/3 39/4/3 41/4/3
f 43/1/3 38/1/3 33/1/3
f 43/4/3 41/4/3 38/4/3
f 44/3/3 42/3/3 41/3/3
f 44/4/3 41/4/3 43/4/3
f 45/3/3 42/3/3 44/3/3
f 46/6/3 44/6/3 43/6/3
f 46/3/3 42/3/3 45/3/3
f 46/6/3 45/6/3 44/6/3
f 47/5/3 40/5/3 42/5/3
f 47/3/3 42/3/3 46/3/3
f 48/6/3 46/6/3 43/6/3
f 48/1/3 43/1/3 33/1/3
f 49/4/3 47/4/3 46/4/3
f 49/6/3 46/6/3 48/6/3
f 50/5/3 40/5/3 47/5/3
f 50/4/3 47/4/3 49/4/3
f 51/5/3 37/5/3 40/5/3
f 51/5/3 40/5/3 50/5/3
f 52/1/3 50/1/3 49/1/3
f 52/5/3 37/5/3 51/5/3
f 52/1/3 51/1/3 50/1/3
f 52/1/3 49/1/3 48/1/3
f 53/1/3 10/1/3 37/1/3
f 53/5/3 37/5/3 52/5/3
f 54/1/3 52/1/3 48/1/3
f 54/1/3 33/1/3 9/1/3
f 54/1/3 53/1/3 52/1/3
f 54/1/3 48/1/3 33/1/3
f 55/1/3 10/1/3 53/1/3
f 55/1/3 53/1/3 54/1/3
f 56/1/4 57/1/4 58/1/4
f 58/1/4 57/1/4 59/1/4
f 62/1/5 61/1/5 60/1/5
f 63/1/5 61/1/5 62/1/5
f 64/1/6 65/1/6 66/1/6
f 66/1/6 65/1/6 67/1/6
