# Blender v2.80 (sub 75) OBJ File: ''
# www.blender.org
mtllib GiftBox.mtl
o GiftBox.001
v -1.800000 1.400000 0.150000
v -1.800000 -1.800000 -0.250000
v -1.800000 -1.800000 0.150000
v -1.800000 1.400000 -0.250000
v -1.700000 1.000000 1.650000
v -1.700000 -1.800000 0.150000
v -1.700000 -1.800000 1.650000
v -1.700000 1.000000 0.150000
v -1.700000 1.000000 -0.250000
v -1.700000 -1.800000 -1.750000
v -1.700000 -1.800000 -0.250000
v -1.700000 1.000000 -1.750000
v -1.700000 1.300000 1.650000
v -1.700000 1.300000 0.150000
v -1.700000 1.300000 -0.250000
v -1.700000 1.300000 -1.750000
v -0.400000 1.400000 0.150000
v -0.400000 1.300000 0.150000
v -0.400000 1.300000 0.350000
v -0.400000 1.400000 -0.250000
v -0.400000 1.300000 -0.450000
v -0.400000 1.300000 -0.250000
v -0.400000 1.600000 0.350000
v -0.400000 1.600000 -0.450000
v -0.200000 1.000000 1.650000
v -0.200000 -1.800000 1.650000
v -0.200000 -1.800000 1.750000
v -0.200000 1.300000 1.650000
v -0.200000 1.400000 1.750000
v -0.200000 1.300000 0.350000
v -0.200000 1.400000 0.350000
v -0.200000 1.400000 -0.450000
v -0.200000 1.300000 -1.750000
v -0.200000 1.300000 -0.450000
v -0.200000 1.400000 -1.750000
v -0.200000 1.800000 0.150000
v -0.200000 1.600000 -0.250000
v -0.200000 1.600000 0.150000
v -0.200000 1.800000 -0.250000
v 0.200000 -1.800000 1.750000
v 0.200000 -1.800000 1.650000
v 0.200000 1.000000 1.650000
v 0.200000 1.300000 1.650000
v 0.200000 1.400000 1.750000
v 0.200000 1.300000 0.350000
v 0.200000 1.400000 0.350000
v 0.200000 1.300000 -0.450000
v 0.200000 1.300000 -1.750000
v 0.200000 1.400000 -0.450000
v 0.200000 1.400000 -1.750000
v 0.200000 1.600000 0.150000
v 0.200000 1.600000 -0.250000
v 0.200000 1.800000 0.150000
v 0.200000 1.800000 -0.250000
v 0.400000 1.300000 0.350000
v 0.400000 1.300000 0.150000
v 0.400000 1.400000 0.150000
v 0.400000 1.300000 -0.250000
v 0.400000 1.300000 -0.450000
v 0.400000 1.400000 -0.250000
v 0.400000 1.600000 0.350000
v 0.400000 1.600000 -0.450000
v 1.700000 -1.800000 1.650000
v 1.700000 -1.800000 0.150000
v 1.700000 1.000000 1.650000
v 1.700000 1.000000 0.150000
v 1.700000 -1.800000 -0.250000
v 1.700000 -1.800000 -1.750000
v 1.700000 1.000000 -0.250000
v 1.700000 1.000000 -1.750000
v 1.700000 1.300000 1.650000
v 1.700000 1.300000 0.150000
v 1.700000 1.300000 -0.250000
v 1.700000 1.300000 -1.750000
v 1.800000 -1.800000 0.150000
v 1.800000 -1.800000 -0.250000
v 1.800000 1.400000 0.150000
v 1.800000 1.400000 -0.250000
v 0.200000 -1.800000 1.750000
v -0.200000 1.400000 1.750000
v -0.200000 -1.800000 1.750000
v 0.200000 1.400000 1.750000
v -0.200000 -1.800000 1.650000
v -1.700000 1.000000 1.650000
v -1.700000 -1.800000 1.650000
v -0.200000 1.000000 1.650000
v -1.700000 1.300000 1.650000
v -0.200000 1.300000 1.650000
v 1.700000 -1.800000 1.650000
v 0.200000 1.000000 1.650000
v 0.200000 -1.800000 1.650000
v 1.700000 1.000000 1.650000
v 0.200000 1.300000 1.650000
v 1.700000 1.300000 1.650000
v -0.200000 1.300000 0.350000
v -0.400000 1.600000 0.350000
v -0.400000 1.300000 0.350000
v -0.200000 1.400000 0.350000
v 0.200000 1.400000 0.350000
v 0.400000 1.300000 0.350000
v 0.200000 1.300000 0.350000
v 0.400000 1.600000 0.350000
v -1.700000 -1.800000 0.150000
v -1.800000 1.400000 0.150000
v -1.800000 -1.800000 0.150000
v -1.700000 1.000000 0.150000
v -1.700000 1.300000 0.150000
v -0.400000 1.300000 0.150000
v -0.400000 1.400000 0.150000
v 0.200000 1.600000 0.150000
v -0.200000 1.800000 0.150000
v -0.200000 1.600000 0.150000
v 0.200000 1.800000 0.150000
v 1.700000 1.300000 0.150000
v 0.400000 1.400000 0.150000
v 0.400000 1.300000 0.150000
v 1.800000 -1.800000 0.150000
v 1.700000 1.000000 0.150000
v 1.700000 -1.800000 0.150000
v 1.800000 1.400000 0.150000
v -1.800000 -1.800000 -0.250000
v -1.800000 1.400000 -0.250000
v -1.700000 -1.800000 -0.250000
v -1.700000 1.000000 -0.250000
v -1.700000 1.300000 -0.250000
v -0.400000 1.300000 -0.250000
v -0.400000 1.400000 -0.250000
v -0.200000 1.600000 -0.250000
v -0.200000 1.800000 -0.250000
v 0.200000 1.600000 -0.250000
v 0.200000 1.800000 -0.250000
v 0.400000 1.300000 -0.250000
v 0.400000 1.400000 -0.250000
v 1.700000 1.300000 -0.250000
v 1.700000 -1.800000 -0.250000
v 1.700000 1.000000 -0.250000
v 1.800000 -1.800000 -0.250000
v 1.800000 1.400000 -0.250000
v -0.400000 1.300000 -0.450000
v -0.400000 1.600000 -0.450000
v -0.200000 1.300000 -0.450000
v -0.200000 1.400000 -0.450000
v 0.200000 1.400000 -0.450000
v 0.200000 1.300000 -0.450000
v 0.400000 1.300000 -0.450000
v 0.400000 1.600000 -0.450000
v -1.700000 -1.800000 -1.750000
v -1.700000 1.000000 -1.750000
v -0.200000 -1.800000 -1.750000
v -1.700000 1.300000 -1.750000
v -0.200000 1.000000 -1.750000
v -0.200000 1.300000 -1.750000
v 0.200000 -1.800000 -1.750000
v -0.200000 1.400000 -1.750000
v 0.200000 1.000000 -1.750000
v 0.200000 1.300000 -1.750000
v 0.200000 1.400000 -1.750000
v 1.700000 -1.800000 -1.750000
v 1.700000 1.000000 -1.750000
v 1.700000 1.300000 -1.750000
v -0.200000 -1.800000 1.650000
v 0.200000 -1.800000 1.750000
v -0.200000 -1.800000 1.750000
v 0.200000 -1.800000 1.650000
v -0.200000 -1.800000 1.450000
v -1.700000 -1.800000 1.650000
v 0.200000 -1.800000 1.450000
v 1.700000 -1.800000 1.650000
v -1.700000 -1.800000 0.150000
v 1.700000 -1.800000 0.150000
v -1.800000 -1.800000 -0.250000
v -1.800000 -1.800000 0.150000
v 1.800000 -1.800000 0.150000
v -1.700000 -1.800000 -0.250000
v 1.700000 -1.800000 -0.250000
v 1.800000 -1.800000 -0.250000
v -0.200000 -1.800000 -1.650000
v 0.200000 -1.800000 -1.650000
v -1.700000 -1.800000 -1.750000
v -0.200000 -1.800000 -1.750000
v 0.200000 -1.800000 -1.750000
v 1.700000 -1.800000 -1.750000
v -1.700000 1.300000 1.650000
v -0.200000 1.300000 1.650000
v -0.400000 1.300000 0.350000
v -0.200000 1.300000 0.350000
v 0.200000 1.300000 1.650000
v 1.700000 1.300000 1.650000
v 0.200000 1.300000 0.350000
v 0.400000 1.300000 0.350000
v -1.700000 1.300000 0.150000
v -0.400000 1.300000 0.150000
v 0.400000 1.300000 0.150000
v 1.700000 1.300000 0.150000
v -1.700000 1.300000 -0.250000
v -0.400000 1.300000 -0.250000
v -0.400000 1.300000 -0.450000
v 0.400000 1.300000 -0.250000
v 1.700000 1.300000 -0.250000
v 0.400000 1.300000 -0.450000
v -0.200000 1.300000 -0.450000
v -1.700000 1.300000 -1.750000
v -0.200000 1.300000 -1.750000
v 0.200000 1.300000 -0.450000
v 0.200000 1.300000 -1.750000
v 1.700000 1.300000 -1.750000
v -0.200000 1.400000 1.750000
v 0.200000 1.400000 1.750000
v -0.200000 1.400000 0.350000
v 0.200000 1.400000 0.350000
v -1.800000 1.400000 0.150000
v -0.400000 1.400000 0.150000
v -1.800000 1.400000 -0.250000
v -0.400000 1.400000 -0.250000
v 0.400000 1.400000 0.150000
v 1.800000 1.400000 0.150000
v 0.400000 1.400000 -0.250000
v 1.800000 1.400000 -0.250000
v -0.200000 1.400000 -0.450000
v 0.200000 1.400000 -0.450000
v -0.200000 1.400000 -1.750000
v 0.200000 1.400000 -1.750000
v -0.400000 1.600000 0.350000
v 0.400000 1.600000 0.350000
v -0.200000 1.600000 0.150000
v 0.200000 1.600000 0.150000
v -0.200000 1.600000 -0.250000
v 0.200000 1.600000 -0.250000
v -0.400000 1.600000 -0.450000
v 0.400000 1.600000 -0.450000
v -0.200000 1.800000 0.150000
v 0.200000 1.800000 0.150000
v -0.200000 1.800000 -0.250000
v 0.200000 1.800000 -0.250000
vt 0.962891 0.500000
vt 0.962891 0.500000
vt 0.962891 0.500000
vt 0.962891 0.500000
vt 0.224609 0.500000
vt 0.224609 0.500000
vt 0.224609 0.500000
vt 0.224609 0.500000
vt 0.224609 0.500000
vt 0.224609 0.500000
vt 0.224609 0.500000
vt 0.224609 0.500000
vt 0.759766 0.500000
vt 0.759766 0.500000
vt 0.759766 0.500000
vt 0.759766 0.500000
vt 0.759766 0.500000
vt 0.759766 0.500000
vt 0.759766 0.500000
vt 0.759766 0.500000
vt 0.962891 0.500000
vt 0.962891 0.500000
vt 0.962891 0.500000
vt 0.962891 0.500000
vt 0.962891 0.500000
vt 0.962891 0.500000
vt 0.962891 0.500000
vt 0.962891 0.500000
vt 0.962891 0.500000
vt 0.962891 0.500000
vt 0.962891 0.500000
vt 0.962891 0.500000
vt 0.962891 0.500000
vt 0.962891 0.500000
vt 0.962891 0.500000
vt 0.962891 0.500000
vt 0.962891 0.500000
vt 0.962891 0.500000
vt 0.962891 0.500000
vt 0.962891 0.500000
vt 0.962891 0.500000
vt 0.962891 0.500000
vt 0.962891 0.500000
vt 0.962891 0.500000
vt 0.962891 0.500000
vt 0.962891 0.500000
vt 0.962891 0.500000
vt 0.962891 0.500000
vt 0.962891 0.500000
vt 0.962891 0.500000
vt 0.962891 0.500000
vt 0.962891 0.500000
vt 0.962891 0.500000
vt 0.962891 0.500000
vt 0.962891 0.500000
vt 0.962891 0.500000
vt 0.962891 0.500000
vt 0.962891 0.500000
vt 0.962891 0.500000
vt 0.962891 0.500000
vt 0.962891 0.500000
vt 0.962891 0.500000
vt 0.962891 0.500000
vt 0.962891 0.500000
vt 0.962891 0.500000
vt 0.962891 0.500000
vt 0.224609 0.500000
vt 0.224609 0.500000
vt 0.224609 0.500000
vt 0.224609 0.500000
vt 0.224609 0.500000
vt 0.224609 0.500000
vt 0.224609 0.500000
vt 0.224609 0.500000
vt 0.759766 0.500000
vt 0.759766 0.500000
vt 0.759766 0.500000
vt 0.759766 0.500000
vt 0.759766 0.500000
vt 0.759766 0.500000
vt 0.759766 0.500000
vt 0.759766 0.500000
vt 0.962891 0.500000
vt 0.962891 0.500000
vt 0.962891 0.500000
vt 0.962891 0.500000
vt 0.962891 0.500000
vt 0.962891 0.500000
vt 0.962891 0.500000
vt 0.962891 0.500000
vt 0.224609 0.500000
vt 0.224609 0.500000
vt 0.224609 0.500000
vt 0.759766 0.500000
vt 0.759766 0.500000
vt 0.759766 0.500000
vt 0.224609 0.500000
vt 0.759766 0.500000
vt 0.224609 0.500000
vt 0.224609 0.500000
vt 0.224609 0.500000
vt 0.759766 0.500000
vt 0.759766 0.500000
vt 0.759766 0.500000
vt 0.224609 0.500000
vt 0.759766 0.500000
vt 0.962891 0.500000
vt 0.962891 0.500000
vt 0.962891 0.500000
vt 0.962891 0.500000
vt 0.962891 0.500000
vt 0.962891 0.500000
vt 0.962891 0.500000
vt 0.962891 0.500000
vt 0.962891 0.500000
vt 0.962891 0.500000
vt 0.962891 0.500000
vt 0.962891 0.500000
vt 0.962891 0.500000
vt 0.962891 0.500000
vt 0.962891 0.500000
vt 0.962891 0.500000
vt 0.962891 0.500000
vt 0.962891 0.500000
vt 0.962891 0.500000
vt 0.962891 0.500000
vt 0.962891 0.500000
vt 0.962891 0.500000
vt 0.962891 0.500000
vt 0.962891 0.500000
vt 0.962891 0.500000
vt 0.962891 0.500000
vt 0.962891 0.500000
vt 0.962891 0.500000
vt 0.962891 0.500000
vt 0.962891 0.500000
vt 0.962891 0.500000
vt 0.962891 0.500000
vt 0.962891 0.500000
vt 0.962891 0.500000
vt 0.962891 0.500000
vt 0.962891 0.500000
vt 0.962891 0.500000
vt 0.962891 0.500000
vt 0.962891 0.500000
vt 0.962891 0.500000
vt 0.962891 0.500000
vt 0.962891 0.500000
vt 0.962891 0.500000
vt 0.962891 0.500000
vt 0.962891 0.500000
vt 0.962891 0.500000
vt 0.962891 0.500000
vt 0.962891 0.500000
vt 0.962891 0.500000
vt 0.962891 0.500000
vt 0.962891 0.500000
vt 0.962891 0.500000
vt 0.224609 0.500000
vt 0.224609 0.500000
vt 0.224609 0.500000
vt 0.759766 0.500000
vt 0.759766 0.500000
vt 0.759766 0.500000
vt 0.224609 0.500000
vt 0.759766 0.500000
vt 0.962891 0.500000
vt 0.962891 0.500000
vt 0.962891 0.500000
vt 0.962891 0.500000
vt 0.962891 0.500000
vt 0.962891 0.500000
vt 0.962891 0.500000
vt 0.962891 0.500000
vt 0.224609 0.500000
vt 0.224609 0.500000
vt 0.224609 0.500000
vt 0.759766 0.500000
vt 0.759766 0.500000
vt 0.759766 0.500000
vt 0.224609 0.500000
vt 0.759766 0.500000
vt 0.962891 0.500000
vt 0.962891 0.500000
vt 0.962891 0.500000
vt 0.962891 0.500000
vt 0.224609 0.500000
vt 0.224609 0.500000
vt 0.224609 0.500000
vt 0.962891 0.500000
vt 0.224609 0.500000
vt 0.224609 0.500000
vt 0.224609 0.500000
vt 0.962891 0.500000
vt 0.224609 0.500000
vt 0.224609 0.500000
vt 0.962891 0.500000
vt 0.962891 0.500000
vt 0.962891 0.500000
vt 0.962891 0.500000
vt 0.962891 0.500000
vt 0.962891 0.500000
vt 0.962891 0.500000
vt 0.962891 0.500000
vt 0.224609 0.500000
vt 0.224609 0.500000
vt 0.224609 0.500000
vt 0.224609 0.500000
vt 0.224609 0.500000
vt 0.962891 0.500000
vt 0.962891 0.500000
vt 0.962891 0.500000
vt 0.224609 0.500000
vt 0.224609 0.500000
vt 0.962891 0.500000
vt 0.224609 0.500000
vt 0.759766 0.500000
vt 0.759766 0.500000
vt 0.759766 0.500000
vt 0.759766 0.500000
vt 0.759766 0.500000
vt 0.759766 0.500000
vt 0.759766 0.500000
vt 0.759766 0.500000
vt 0.759766 0.500000
vt 0.759766 0.500000
vt 0.759766 0.500000
vt 0.759766 0.500000
vt 0.759766 0.500000
vt 0.759766 0.500000
vt 0.759766 0.500000
vt 0.759766 0.500000
vt 0.759766 0.500000
vt 0.759766 0.500000
vt 0.759766 0.500000
vt 0.759766 0.500000
vt 0.759766 0.500000
vt 0.759766 0.500000
vt 0.759766 0.500000
vt 0.759766 0.500000
vt 0.962891 0.500000
vt 0.962891 0.500000
vt 0.962891 0.500000
vt 0.962891 0.500000
vt 0.962891 0.500000
vt 0.962891 0.500000
vt 0.962891 0.500000
vt 0.962891 0.500000
vt 0.962891 0.500000
vt 0.962891 0.500000
vt 0.962891 0.500000
vt 0.962891 0.500000
vt 0.962891 0.500000
vt 0.962891 0.500000
vt 0.962891 0.500000
vt 0.962891 0.500000
vt 0.962891 0.500000
vt 0.962891 0.500000
vt 0.962891 0.500000
vt 0.962891 0.500000
vt 0.962891 0.500000
vt 0.962891 0.500000
vt 0.962891 0.500000
vt 0.962891 0.500000
vt 0.962891 0.500000
vt 0.962891 0.500000
vt 0.962891 0.500000
vt 0.962891 0.500000
vn -1.0000 0.0000 0.0000
vn 1.0000 0.0000 0.0000
vn 0.0000 -0.0000 1.0000
vn 0.0000 0.0000 -1.0000
vn 0.0000 -1.0000 0.0000
vn -0.0000 1.0000 0.0000
usemtl palette.015
s 1
f 1/1/1 2/2/1 3/3/1
f 4/4/1 2/2/1 1/1/1
f 5/5/1 6/6/1 7/7/1
f 8/8/1 6/6/1 5/5/1
f 9/9/1 10/10/1 11/11/1
f 12/12/1 10/10/1 9/9/1
f 13/13/1 8/14/1 5/15/1
f 14/16/1 8/14/1 13/13/1
f 15/17/1 12/18/1 9/19/1
f 16/20/1 12/18/1 15/17/1
f 17/21/1 18/22/1 19/23/1
f 20/24/1 21/25/1 22/26/1
f 23/27/1 17/21/1 19/23/1
f 23/27/1 20/24/1 17/21/1
f 24/28/1 21/25/1 20/24/1
f 24/28/1 20/24/1 23/27/1
f 25/29/1 26/30/1 27/31/1
f 28/32/1 25/29/1 27/31/1
f 29/33/1 28/32/1 27/31/1
f 29/33/1 30/34/1 28/32/1
f 31/35/1 30/34/1 29/33/1
f 32/36/1 33/37/1 34/38/1
f 35/39/1 33/37/1 32/36/1
f 36/40/1 37/41/1 38/42/1
f 39/43/1 37/41/1 36/40/1
f 40/44/2 41/45/2 42/46/2
f 40/44/2 42/46/2 43/47/2
f 40/44/2 43/47/2 44/48/2
f 43/47/2 45/49/2 44/48/2
f 44/48/2 45/49/2 46/50/2
f 47/51/2 48/52/2 49/53/2
f 49/53/2 48/52/2 50/54/2
f 51/55/2 52/56/2 53/57/2
f 53/57/2 52/56/2 54/58/2
f 55/59/2 56/60/2 57/61/2
f 58/62/2 59/63/2 60/64/2
f 55/59/2 57/61/2 61/65/2
f 57/61/2 60/64/2 61/65/2
f 60/64/2 59/63/2 62/66/2
f 61/65/2 60/64/2 62/66/2
f 63/67/2 64/68/2 65/69/2
f 65/69/2 64/68/2 66/70/2
f 67/71/2 68/72/2 69/73/2
f 69/73/2 68/72/2 70/74/2
f 65/75/2 66/76/2 71/77/2
f 71/77/2 66/76/2 72/78/2
f 69/79/2 70/80/2 73/81/2
f 73/81/2 70/80/2 74/82/2
f 75/83/2 76/84/2 77/85/2
f 77/85/2 76/84/2 78/86/2
f 79/87/3 80/88/3 81/89/3
f 82/90/3 80/88/3 79/87/3
f 83/91/3 84/92/3 85/93/3
f 86/94/3 87/95/3 84/96/3
f 86/97/3 84/92/3 83/91/3
f 88/98/3 87/95/3 86/94/3
f 89/99/3 90/100/3 91/101/3
f 92/102/3 93/103/3 90/104/3
f 92/105/3 90/100/3 89/99/3
f 94/106/3 93/103/3 92/102/3
f 95/107/3 96/108/3 97/109/3
f 98/110/3 96/108/3 95/107/3
f 99/111/3 96/108/3 98/110/3
f 100/112/3 99/111/3 101/113/3
f 102/114/3 96/108/3 99/111/3
f 102/114/3 99/111/3 100/112/3
f 103/115/3 104/116/3 105/117/3
f 106/118/3 104/116/3 103/115/3
f 107/119/3 104/116/3 106/118/3
f 108/120/3 104/116/3 107/119/3
f 109/121/3 104/116/3 108/120/3
f 110/122/3 111/123/3 112/124/3
f 113/125/3 111/123/3 110/122/3
f 114/126/3 115/127/3 116/128/3
f 117/129/3 118/130/3 119/131/3
f 117/129/3 114/126/3 118/130/3
f 120/132/3 115/127/3 114/126/3
f 120/132/3 114/126/3 117/129/3
f 121/133/4 122/134/4 123/135/4
f 123/135/4 122/134/4 124/136/4
f 124/136/4 122/134/4 125/137/4
f 125/137/4 122/134/4 126/138/4
f 126/138/4 122/134/4 127/139/4
f 128/140/4 129/141/4 130/142/4
f 130/142/4 129/141/4 131/143/4
f 132/144/4 133/145/4 134/146/4
f 135/147/4 136/148/4 137/149/4
f 136/148/4 134/146/4 137/149/4
f 134/146/4 133/145/4 138/150/4
f 137/149/4 134/146/4 138/150/4
f 139/151/4 140/152/4 141/153/4
f 141/153/4 140/152/4 142/154/4
f 142/154/4 140/152/4 143/155/4
f 144/156/4 143/155/4 145/157/4
f 143/155/4 140/152/4 146/158/4
f 145/157/4 143/155/4 146/158/4
f 147/159/4 148/160/4 149/161/4
f 148/162/4 150/163/4 151/164/4
f 149/161/4 148/160/4 151/165/4
f 151/164/4 150/163/4 152/166/4
f 149/167/4 151/168/4 153/169/4
f 152/170/4 154/171/4 153/169/4
f 151/168/4 152/170/4 153/169/4
f 153/169/4 154/171/4 155/172/4
f 155/172/4 154/171/4 156/173/4
f 156/173/4 154/171/4 157/174/4
f 153/175/4 155/176/4 158/177/4
f 155/178/4 156/179/4 159/180/4
f 158/177/4 155/176/4 159/181/4
f 159/180/4 156/179/4 160/182/4
f 161/183/5 162/184/5 163/185/5
f 164/186/5 162/184/5 161/183/5
f 165/187/5 161/188/5 166/189/5
f 165/190/5 164/186/5 161/183/5
f 167/191/5 168/192/5 164/193/5
f 167/194/5 164/186/5 165/190/5
f 169/195/5 165/187/5 166/189/5
f 169/195/5 167/191/5 165/187/5
f 170/196/5 168/192/5 167/191/5
f 170/196/5 167/191/5 169/195/5
f 171/197/5 169/198/5 172/199/5
f 171/197/5 173/200/5 170/201/5
f 171/197/5 170/201/5 169/198/5
f 174/202/5 173/200/5 171/197/5
f 175/203/5 173/200/5 174/202/5
f 176/204/5 173/200/5 175/203/5
f 177/205/5 175/206/5 174/207/5
f 178/208/5 175/206/5 177/205/5
f 179/209/5 177/205/5 174/207/5
f 180/210/5 178/211/5 177/212/5
f 180/213/5 177/205/5 179/209/5
f 181/214/5 175/206/5 178/208/5
f 181/215/5 178/211/5 180/210/5
f 182/216/5 175/206/5 181/214/5
f 183/217/6 184/218/6 185/219/6
f 185/219/6 184/218/6 186/220/6
f 187/221/6 188/222/6 189/223/6
f 189/223/6 188/222/6 190/224/6
f 183/217/6 185/219/6 191/225/6
f 191/225/6 185/219/6 192/226/6
f 190/224/6 188/222/6 193/227/6
f 193/227/6 188/222/6 194/228/6
f 195/229/6 196/230/6 197/231/6
f 198/232/6 199/233/6 200/234/6
f 197/231/6 201/235/6 202/236/6
f 195/229/6 197/231/6 202/236/6
f 202/236/6 201/235/6 203/237/6
f 204/238/6 200/234/6 205/239/6
f 200/234/6 199/233/6 206/240/6
f 205/239/6 200/234/6 206/240/6
f 207/241/6 208/242/6 209/243/6
f 209/243/6 208/242/6 210/244/6
f 211/245/6 212/246/6 213/247/6
f 213/247/6 212/246/6 214/248/6
f 215/249/6 216/250/6 217/251/6
f 217/251/6 216/250/6 218/252/6
f 219/253/6 220/254/6 221/255/6
f 221/255/6 220/254/6 222/256/6
f 223/257/6 224/258/6 225/259/6
f 225/259/6 224/258/6 226/260/6
f 223/257/6 225/259/6 227/261/6
f 226/260/6 224/258/6 228/262/6
f 223/257/6 227/261/6 229/263/6
f 227/261/6 228/262/6 229/263/6
f 228/262/6 224/258/6 230/264/6
f 229/263/6 228/262/6 230/264/6
f 231/265/6 232/266/6 233/267/6
f 233/267/6 232/266/6 234/268/6
