# MagicaVoxel @ Ephtracy

# group
o 

# material
mtllib GiftBox 2.mtl
usemtl palette

# normals
vn -1 0 0
vn 1 0 0
vn 0 0 1
vn 0 0 -1
vn 0 -1 0
vn 0 1 0

# texcoords
vt 0.130859 0.5
vt 0.283203 0.5
vt 0.310547 0.5
vt 0.958984 0.5

# verts
v -1.9 0 0.3
v -1.9 0 -0.2
v -1.9 3.8 0.3
v -1.9 3.8 -0.2
v -1.8 0 1.8
v -1.8 0 0.3
v -1.8 0 -0.2
v -1.8 0 -1.8
v -1.8 3.4 1.8
v -1.8 3.4 0.3
v -1.8 3.4 -0.2
v -1.8 3.4 -1.8
v -1.8 3.7 1.8
v -1.8 3.7 0.3
v -1.8 3.7 -0.2
v -1.8 3.7 -1.8
v -0.6 3.7 0.6
v -0.6 3.7 0.3
v -0.6 3.7 -0.2
v -0.6 3.7 -0.5
v -0.6 3.8 0.3
v -0.6 3.8 -0.2
v -0.6 3.9 0.6
v -0.6 3.9 -0.5
v -0.5 3.9 0.5
v -0.5 3.9 -0.4
v -0.5 4 0.5
v -0.5 4 -0.4
v -0.2 0 1.9
v -0.2 0 1.8
v -0.2 0 -1.8
v -0.2 0 -1.9
v -0.2 3.4 1.8
v -0.2 3.4 -1.8
v -0.2 3.7 1.8
v -0.2 3.7 0.6
v -0.2 3.7 -0.5
v -0.2 3.7 -1.8
v -0.2 3.8 1.9
v -0.2 3.8 0.6
v -0.2 3.8 -0.5
v -0.2 3.8 -1.9
v 0.1 0 1.9
v 0.1 0 1.8
v 0.1 0 -1.8
v 0.1 0 -1.9
v 0.1 3.4 1.8
v 0.1 3.4 -1.8
v 0.1 3.7 1.8
v 0.1 3.7 0.6
v 0.1 3.7 -0.5
v 0.1 3.7 -1.8
v 0.1 3.8 1.9
v 0.1 3.8 0.6
v 0.1 3.8 -0.5
v 0.1 3.8 -1.9
v 0.4 3.9 0.5
v 0.4 3.9 -0.4
v 0.4 4 0.5
v 0.4 4 -0.4
v 0.5 3.7 0.6
v 0.5 3.7 0.3
v 0.5 3.7 -0.2
v 0.5 3.7 -0.5
v 0.5 3.8 0.3
v 0.5 3.8 -0.2
v 0.5 3.9 0.6
v 0.5 3.9 -0.5
v 1.8 0 1.8
v 1.8 0 0.3
v 1.8 0 -0.2
v 1.8 0 -1.8
v 1.8 3.4 1.8
v 1.8 3.4 0.3
v 1.8 3.4 -0.2
v 1.8 3.4 -1.8
v 1.8 3.7 1.8
v 1.8 3.7 0.3
v 1.8 3.7 -0.2
v 1.8 3.7 -1.8
v 1.9 0 0.3
v 1.9 0 -0.2
v 1.9 3.8 0.3
v 1.9 3.8 -0.2
v -0.2 0 1.9
v -0.2 3.8 1.9
v 0.1 0 1.9
v 0.1 3.8 1.9
v -1.8 0 1.8
v -1.8 3.4 1.8
v -1.8 3.7 1.8
v -0.2 0 1.8
v -0.2 3.4 1.8
v -0.2 3.7 1.8
v 0.1 0 1.8
v 0.1 3.4 1.8
v 0.1 3.7 1.8
v 1.8 0 1.8
v 1.8 3.4 1.8
v 1.8 3.7 1.8
v -0.6 3.7 0.6
v -0.6 3.9 0.6
v -0.2 3.7 0.6
v -0.2 3.8 0.6
v 0.1 3.7 0.6
v 0.1 3.8 0.6
v 0.5 3.7 0.6
v 0.5 3.9 0.6
v -0.5 3.9 0.5
v -0.5 4 0.5
v 0.4 3.9 0.5
v 0.4 4 0.5
v -1.9 0 0.3
v -1.9 3.8 0.3
v -1.8 0 0.3
v -1.8 3.4 0.3
v -1.8 3.7 0.3
v -0.6 3.7 0.3
v -0.6 3.8 0.3
v 0.5 3.7 0.3
v 0.5 3.8 0.3
v 1.8 0 0.3
v 1.8 3.4 0.3
v 1.8 3.7 0.3
v 1.9 0 0.3
v 1.9 3.8 0.3
v -1.9 0 -0.2
v -1.9 3.8 -0.2
v -1.8 0 -0.2
v -1.8 3.4 -0.2
v -1.8 3.7 -0.2
v -0.6 3.7 -0.2
v -0.6 3.8 -0.2
v 0.5 3.7 -0.2
v 0.5 3.8 -0.2
v 1.8 0 -0.2
v 1.8 3.4 -0.2
v 1.8 3.7 -0.2
v 1.9 0 -0.2
v 1.9 3.8 -0.2
v -0.5 3.9 -0.4
v -0.5 4 -0.4
v 0.4 3.9 -0.4
v 0.4 4 -0.4
v -0.6 3.7 -0.5
v -0.6 3.9 -0.5
v -0.2 3.7 -0.5
v -0.2 3.8 -0.5
v 0.1 3.7 -0.5
v 0.1 3.8 -0.5
v 0.5 3.7 -0.5
v 0.5 3.9 -0.5
v -1.8 0 -1.8
v -1.8 3.4 -1.8
v -1.8 3.7 -1.8
v -0.2 0 -1.8
v -0.2 3.4 -1.8
v -0.2 3.7 -1.8
v 0.1 0 -1.8
v 0.1 3.4 -1.8
v 0.1 3.7 -1.8
v 1.8 0 -1.8
v 1.8 3.4 -1.8
v 1.8 3.7 -1.8
v -0.2 0 -1.9
v -0.2 3.8 -1.9
v 0.1 0 -1.9
v 0.1 3.8 -1.9
v -0.2 0 1.9
v 0.1 0 1.9
v -1.8 0 1.8
v -0.2 0 1.8
v 0.1 0 1.8
v 1.8 0 1.8
v -1.7 0 1.7
v -0.2 0 1.7
v 0.1 0 1.7
v 1.7 0 1.7
v -1.9 0 0.3
v -1.8 0 0.3
v -1.7 0 0.3
v 1.7 0 0.3
v 1.8 0 0.3
v 1.9 0 0.3
v -1.9 0 -0.2
v -1.8 0 -0.2
v -1.7 0 -0.2
v 1.7 0 -0.2
v 1.8 0 -0.2
v 1.9 0 -0.2
v -1.7 0 -1.7
v -0.2 0 -1.7
v 0.1 0 -1.7
v 1.7 0 -1.7
v -1.8 0 -1.8
v -0.2 0 -1.8
v 0.1 0 -1.8
v 1.8 0 -1.8
v -0.2 0 -1.9
v 0.1 0 -1.9
v -1.8 3.7 1.8
v -0.2 3.7 1.8
v 0.1 3.7 1.8
v 1.8 3.7 1.8
v -0.6 3.7 0.6
v -0.2 3.7 0.6
v 0.1 3.7 0.6
v 0.5 3.7 0.6
v -1.8 3.7 0.3
v -0.6 3.7 0.3
v 0.5 3.7 0.3
v 1.8 3.7 0.3
v -1.8 3.7 -0.2
v -0.6 3.7 -0.2
v 0.5 3.7 -0.2
v 1.8 3.7 -0.2
v -0.6 3.7 -0.5
v -0.2 3.7 -0.5
v 0.1 3.7 -0.5
v 0.5 3.7 -0.5
v -1.8 3.7 -1.8
v -0.2 3.7 -1.8
v 0.1 3.7 -1.8
v 1.8 3.7 -1.8
v -0.2 3.8 1.9
v 0.1 3.8 1.9
v -0.2 3.8 0.6
v 0.1 3.8 0.6
v -1.9 3.8 0.3
v -0.6 3.8 0.3
v 0.5 3.8 0.3
v 1.9 3.8 0.3
v -1.9 3.8 -0.2
v -0.6 3.8 -0.2
v 0.5 3.8 -0.2
v 1.9 3.8 -0.2
v -0.2 3.8 -0.5
v 0.1 3.8 -0.5
v -0.2 3.8 -1.9
v 0.1 3.8 -1.9
v -0.6 3.9 0.6
v 0.5 3.9 0.6
v -0.5 3.9 0.5
v 0.4 3.9 0.5
v -0.5 3.9 -0.4
v 0.4 3.9 -0.4
v -0.6 3.9 -0.5
v 0.5 3.9 -0.5
v -0.5 4 0.5
v 0.4 4 0.5
v -0.5 4 -0.4
v 0.4 4 -0.4

# faces
f 3/4/1 2/4/1 1/4/1
f 4/4/1 2/4/1 3/4/1
f 9/2/1 6/2/1 5/2/1
f 10/2/1 6/2/1 9/2/1
f 11/2/1 8/2/1 7/2/1
f 12/2/1 8/2/1 11/2/1
f 13/1/1 10/1/1 9/1/1
f 14/1/1 10/1/1 13/1/1
f 15/1/1 12/1/1 11/1/1
f 16/1/1 12/1/1 15/1/1
f 21/4/1 18/4/1 17/4/1
f 22/4/1 20/4/1 19/4/1
f 23/4/1 21/4/1 17/4/1
f 23/4/1 22/4/1 21/4/1
f 24/4/1 20/4/1 22/4/1
f 24/4/1 22/4/1 23/4/1
f 27/4/1 26/4/1 25/4/1
f 28/4/1 26/4/1 27/4/1
f 33/4/1 30/4/1 29/4/1
f 34/4/1 32/4/1 31/4/1
f 35/4/1 33/4/1 29/4/1
f 38/4/1 32/4/1 34/4/1
f 39/4/1 36/4/1 35/4/1
f 39/4/1 35/4/1 29/4/1
f 40/4/1 36/4/1 39/4/1
f 41/4/1 38/4/1 37/4/1
f 42/4/1 32/4/1 38/4/1
f 42/4/1 38/4/1 41/4/1
f 43/4/2 44/4/2 47/4/2
f 45/4/2 46/4/2 48/4/2
f 43/4/2 47/4/2 49/4/2
f 48/4/2 46/4/2 52/4/2
f 49/4/2 50/4/2 53/4/2
f 43/4/2 49/4/2 53/4/2
f 53/4/2 50/4/2 54/4/2
f 51/4/2 52/4/2 55/4/2
f 52/4/2 46/4/2 56/4/2
f 55/4/2 52/4/2 56/4/2
f 57/4/2 58/4/2 59/4/2
f 59/4/2 58/4/2 60/4/2
f 61/4/2 62/4/2 65/4/2
f 63/4/2 64/4/2 66/4/2
f 61/4/2 65/4/2 67/4/2
f 65/4/2 66/4/2 67/4/2
f 66/4/2 64/4/2 68/4/2
f 67/4/2 66/4/2 68/4/2
f 69/2/2 70/2/2 73/2/2
f 73/2/2 70/2/2 74/2/2
f 71/2/2 72/2/2 75/2/2
f 75/2/2 72/2/2 76/2/2
f 73/1/2 74/1/2 77/1/2
f 77/1/2 74/1/2 78/1/2
f 75/1/2 76/1/2 79/1/2
f 79/1/2 76/1/2 80/1/2
f 81/4/2 82/4/2 83/4/2
f 83/4/2 82/4/2 84/4/2
f 87/4/3 86/4/3 85/4/3
f 88/4/3 86/4/3 87/4/3
f 92/2/3 90/2/3 89/2/3
f 93/1/3 91/1/3 90/1/3
f 93/2/3 90/2/3 92/2/3
f 94/1/3 91/1/3 93/1/3
f 98/2/3 96/2/3 95/2/3
f 99/1/3 97/1/3 96/1/3
f 99/2/3 96/2/3 98/2/3
f 100/1/3 97/1/3 99/1/3
f 103/4/3 102/4/3 101/4/3
f 104/4/3 102/4/3 103/4/3
f 106/4/3 102/4/3 104/4/3
f 107/4/3 106/4/3 105/4/3
f 108/4/3 102/4/3 106/4/3
f 108/4/3 106/4/3 107/4/3
f 111/4/3 110/4/3 109/4/3
f 112/4/3 110/4/3 111/4/3
f 115/4/3 114/4/3 113/4/3
f 116/4/3 114/4/3 115/4/3
f 117/4/3 114/4/3 116/4/3
f 118/4/3 114/4/3 117/4/3
f 119/4/3 114/4/3 118/4/3
f 124/4/3 121/4/3 120/4/3
f 125/4/3 123/4/3 122/4/3
f 125/4/3 124/4/3 123/4/3
f 126/4/3 121/4/3 124/4/3
f 126/4/3 124/4/3 125/4/3
f 127/4/4 128/4/4 129/4/4
f 129/4/4 128/4/4 130/4/4
f 130/4/4 128/4/4 131/4/4
f 131/4/4 128/4/4 132/4/4
f 132/4/4 128/4/4 133/4/4
f 134/4/4 135/4/4 138/4/4
f 136/4/4 137/4/4 139/4/4
f 137/4/4 138/4/4 139/4/4
f 138/4/4 135/4/4 140/4/4
f 139/4/4 138/4/4 140/4/4
f 141/4/4 142/4/4 143/4/4
f 143/4/4 142/4/4 144/4/4
f 145/4/4 146/4/4 147/4/4
f 147/4/4 146/4/4 148/4/4
f 148/4/4 146/4/4 150/4/4
f 149/4/4 150/4/4 151/4/4
f 150/4/4 146/4/4 152/4/4
f 151/4/4 150/4/4 152/4/4
f 153/2/4 154/2/4 156/2/4
f 154/1/4 155/1/4 157/1/4
f 156/2/4 154/2/4 157/2/4
f 157/1/4 155/1/4 158/1/4
f 159/2/4 160/2/4 162/2/4
f 160/1/4 161/1/4 163/1/4
f 162/2/4 160/2/4 163/2/4
f 163/1/4 161/1/4 164/1/4
f 165/4/4 166/4/4 167/4/4
f 167/4/4 166/4/4 168/4/4
f 172/4/5 170/4/5 169/4/5
f 173/4/5 170/4/5 172/4/5
f 175/2/5 172/2/5 171/2/5
f 176/3/5 173/3/5 172/3/5
f 176/2/5 172/2/5 175/2/5
f 177/2/5 174/2/5 173/2/5
f 177/3/5 173/3/5 176/3/5
f 178/2/5 174/2/5 177/2/5
f 180/2/5 175/2/5 171/2/5
f 181/3/5 176/3/5 175/3/5
f 181/3/5 177/3/5 176/3/5
f 181/2/5 175/2/5 180/2/5
f 181/3/5 178/3/5 177/3/5
f 182/2/5 174/2/5 178/2/5
f 182/3/5 178/3/5 181/3/5
f 183/2/5 174/2/5 182/2/5
f 185/4/5 180/4/5 179/4/5
f 186/3/5 181/3/5 180/3/5
f 186/4/5 180/4/5 185/4/5
f 186/3/5 182/3/5 181/3/5
f 186/3/5 183/3/5 182/3/5
f 187/3/5 183/3/5 186/3/5
f 188/3/5 183/3/5 187/3/5
f 189/4/5 184/4/5 183/4/5
f 189/3/5 183/3/5 188/3/5
f 190/4/5 184/4/5 189/4/5
f 191/3/5 188/3/5 187/3/5
f 191/2/5 187/2/5 186/2/5
f 192/3/5 188/3/5 191/3/5
f 193/3/5 188/3/5 192/3/5
f 194/2/5 189/2/5 188/2/5
f 194/3/5 188/3/5 193/3/5
f 195/2/5 191/2/5 186/2/5
f 195/2/5 192/2/5 191/2/5
f 196/3/5 193/3/5 192/3/5
f 196/2/5 192/2/5 195/2/5
f 197/2/5 194/2/5 193/2/5
f 197/3/5 193/3/5 196/3/5
f 198/2/5 189/2/5 194/2/5
f 198/2/5 194/2/5 197/2/5
f 199/4/5 197/4/5 196/4/5
f 200/4/5 197/4/5 199/4/5
f 201/1/6 202/1/6 205/1/6
f 205/1/6 202/1/6 206/1/6
f 203/1/6 204/1/6 207/1/6
f 207/1/6 204/1/6 208/1/6
f 201/1/6 205/1/6 209/1/6
f 209/1/6 205/1/6 210/1/6
f 208/1/6 204/1/6 211/1/6
f 211/1/6 204/1/6 212/1/6
f 213/1/6 214/1/6 217/1/6
f 215/1/6 216/1/6 220/1/6
f 217/1/6 218/1/6 221/1/6
f 213/1/6 217/1/6 221/1/6
f 221/1/6 218/1/6 222/1/6
f 219/1/6 220/1/6 223/1/6
f 220/1/6 216/1/6 224/1/6
f 223/1/6 220/1/6 224/1/6
f 225/4/6 226/4/6 227/4/6
f 227/4/6 226/4/6 228/4/6
f 229/4/6 230/4/6 233/4/6
f 233/4/6 230/4/6 234/4/6
f 231/4/6 232/4/6 235/4/6
f 235/4/6 232/4/6 236/4/6
f 237/4/6 238/4/6 239/4/6
f 239/4/6 238/4/6 240/4/6
f 241/4/6 242/4/6 243/4/6
f 243/4/6 242/4/6 244/4/6
f 241/4/6 243/4/6 245/4/6
f 244/4/6 242/4/6 246/4/6
f 241/4/6 245/4/6 247/4/6
f 245/4/6 246/4/6 247/4/6
f 246/4/6 242/4/6 248/4/6
f 247/4/6 246/4/6 248/4/6
f 249/4/6 250/4/6 251/4/6
f 251/4/6 250/4/6 252/4/6
