# Blender v2.80 (sub 75) OBJ File: ''
# www.blender.org
mtllib Gun Platform.mtl
o Gun_Platform
v -1.000000 -0.000004 0.500000
v -1.000000 -0.100003 -0.500000
v -1.000000 -0.100004 0.500000
v -1.000000 -0.000003 -0.500000
v -1.000000 0.099996 0.500000
v -1.000000 0.099997 -0.500000
v -0.900000 -0.000004 0.700000
v -0.900000 -0.100004 0.500000
v -0.900000 -0.100004 0.700000
v -0.900000 -0.000004 0.500000
v -0.900000 -0.000003 -0.500000
v -0.900000 -0.100003 -0.700000
v -0.900000 -0.100003 -0.500000
v -0.900000 -0.000003 -0.700000
v -0.900000 0.099996 0.700000
v -0.900000 0.099996 0.500000
v -0.900000 0.099997 -0.500000
v -0.900000 0.099997 -0.700000
v -0.800000 -0.000004 0.800000
v -0.800000 -0.100004 0.700000
v -0.800000 -0.100004 0.800000
v -0.800000 -0.000004 0.700000
v -0.800000 -0.000003 -0.700000
v -0.800000 -0.100003 -0.800000
v -0.800000 -0.100003 -0.700000
v -0.800000 -0.000003 -0.800000
v -0.800000 0.099996 0.800000
v -0.800000 0.099996 0.700000
v -0.800000 0.099997 -0.700000
v -0.800000 0.099997 -0.800000
v -0.700000 -0.000004 0.900000
v -0.700000 -0.100004 0.800000
v -0.700000 -0.100004 0.900000
v -0.700000 -0.000004 0.800000
v -0.700000 -0.000003 -0.800000
v -0.700000 -0.100003 -0.900000
v -0.700000 -0.100003 -0.800000
v -0.700000 -0.000003 -0.900000
v -0.700000 0.099996 0.900000
v -0.700000 0.099996 0.800000
v -0.700000 0.099997 -0.800000
v -0.700000 0.099997 -0.900000
v -0.500000 -0.000004 1.000000
v -0.500000 -0.100004 0.900000
v -0.500000 -0.100004 1.000000
v -0.500000 -0.000004 0.900000
v -0.500000 -0.000003 -0.900000
v -0.500000 -0.100003 -1.000000
v -0.500000 -0.100003 -0.900000
v -0.500000 -0.000003 -1.000000
v -0.500000 0.099996 1.000000
v -0.500000 0.099996 0.900000
v -0.500000 0.099997 -0.900000
v -0.500000 0.099997 -1.000000
v 0.500000 -0.100004 1.000000
v 0.500000 -0.100004 0.900000
v 0.500000 -0.000004 1.000000
v 0.500000 -0.000004 0.900000
v 0.500000 -0.100003 -0.900000
v 0.500000 -0.100003 -1.000000
v 0.500000 -0.000003 -0.900000
v 0.500000 -0.000003 -1.000000
v 0.500000 0.099996 1.000000
v 0.500000 0.099996 0.900000
v 0.500000 0.099997 -0.900000
v 0.500000 0.099997 -1.000000
v 0.700000 -0.100004 0.900000
v 0.700000 -0.100004 0.800000
v 0.700000 -0.000004 0.900000
v 0.700000 -0.000004 0.800000
v 0.700000 -0.100003 -0.800000
v 0.700000 -0.100003 -0.900000
v 0.700000 -0.000003 -0.800000
v 0.700000 -0.000003 -0.900000
v 0.700000 0.099996 0.900000
v 0.700000 0.099996 0.800000
v 0.700000 0.099997 -0.800000
v 0.700000 0.099997 -0.900000
v 0.800000 -0.100004 0.800000
v 0.800000 -0.100004 0.700000
v 0.800000 -0.000004 0.800000
v 0.800000 -0.000004 0.700000
v 0.800000 -0.100003 -0.700000
v 0.800000 -0.100003 -0.800000
v 0.800000 -0.000003 -0.700000
v 0.800000 -0.000003 -0.800000
v 0.800000 0.099996 0.800000
v 0.800000 0.099996 0.700000
v 0.800000 0.099997 -0.700000
v 0.800000 0.099997 -0.800000
v 0.900000 -0.100004 0.700000
v 0.900000 -0.100004 0.500000
v 0.900000 -0.000004 0.700000
v 0.900000 -0.000004 0.500000
v 0.900000 -0.100003 -0.500000
v 0.900000 -0.100003 -0.700000
v 0.900000 -0.000003 -0.500000
v 0.900000 -0.000003 -0.700000
v 0.900000 0.099996 0.700000
v 0.900000 0.099996 0.500000
v 0.900000 0.099997 -0.500000
v 0.900000 0.099997 -0.700000
v 1.000000 -0.100004 0.500000
v 1.000000 -0.100003 -0.500000
v 1.000000 -0.000004 0.500000
v 1.000000 -0.000003 -0.500000
v 1.000000 0.099996 0.500000
v 1.000000 0.099997 -0.500000
v 0.500000 -0.100004 1.000000
v -0.500000 -0.000004 1.000000
v -0.500000 -0.100004 1.000000
v 0.500000 -0.000004 1.000000
v -0.500000 0.099996 1.000000
v 0.500000 0.099996 1.000000
v -0.500000 -0.100004 0.900000
v -0.700000 -0.000004 0.900000
v -0.700000 -0.100004 0.900000
v -0.500000 -0.000004 0.900000
v -0.700000 0.099996 0.900000
v -0.500000 0.099996 0.900000
v 0.700000 -0.100004 0.900000
v 0.500000 -0.000004 0.900000
v 0.500000 -0.100004 0.900000
v 0.700000 -0.000004 0.900000
v 0.500000 0.099996 0.900000
v 0.700000 0.099996 0.900000
v -0.700000 -0.100004 0.800000
v -0.800000 -0.000004 0.800000
v -0.800000 -0.100004 0.800000
v -0.700000 -0.000004 0.800000
v -0.800000 0.099996 0.800000
v -0.700000 0.099996 0.800000
v 0.800000 -0.100004 0.800000
v 0.700000 -0.000004 0.800000
v 0.700000 -0.100004 0.800000
v 0.800000 -0.000004 0.800000
v 0.700000 0.099996 0.800000
v 0.800000 0.099996 0.800000
v -0.800000 -0.100004 0.700000
v -0.900000 -0.000004 0.700000
v -0.900000 -0.100004 0.700000
v -0.800000 -0.000004 0.700000
v -0.900000 0.099996 0.700000
v -0.800000 0.099996 0.700000
v 0.900000 -0.100004 0.700000
v 0.800000 -0.000004 0.700000
v 0.800000 -0.100004 0.700000
v 0.900000 -0.000004 0.700000
v 0.800000 0.099996 0.700000
v 0.900000 0.099996 0.700000
v -0.900000 -0.100004 0.500000
v -1.000000 -0.000004 0.500000
v -1.000000 -0.100004 0.500000
v -0.900000 -0.000004 0.500000
v -1.000000 0.099996 0.500000
v -0.900000 0.099996 0.500000
v 1.000000 -0.100004 0.500000
v 0.900000 -0.000004 0.500000
v 0.900000 -0.100004 0.500000
v 1.000000 -0.000004 0.500000
v 0.900000 0.099996 0.500000
v 1.000000 0.099996 0.500000
v -1.000000 -0.100003 -0.500000
v -1.000000 -0.000003 -0.500000
v -0.900000 -0.100003 -0.500000
v -1.000000 0.099997 -0.500000
v -0.900000 -0.000003 -0.500000
v -0.900000 0.099997 -0.500000
v 0.900000 -0.100003 -0.500000
v 0.900000 -0.000003 -0.500000
v 1.000000 -0.100003 -0.500000
v 0.900000 0.099997 -0.500000
v 1.000000 -0.000003 -0.500000
v 1.000000 0.099997 -0.500000
v -0.900000 -0.100003 -0.700000
v -0.900000 -0.000003 -0.700000
v -0.800000 -0.100003 -0.700000
v -0.900000 0.099997 -0.700000
v -0.800000 -0.000003 -0.700000
v -0.800000 0.099997 -0.700000
v 0.800000 -0.100003 -0.700000
v 0.800000 -0.000003 -0.700000
v 0.900000 -0.100003 -0.700000
v 0.800000 0.099997 -0.700000
v 0.900000 -0.000003 -0.700000
v 0.900000 0.099997 -0.700000
v -0.800000 -0.100003 -0.800000
v -0.800000 -0.000003 -0.800000
v -0.700000 -0.100003 -0.800000
v -0.800000 0.099997 -0.800000
v -0.700000 -0.000003 -0.800000
v -0.700000 0.099997 -0.800000
v 0.700000 -0.100003 -0.800000
v 0.700000 -0.000003 -0.800000
v 0.800000 -0.100003 -0.800000
v 0.700000 0.099997 -0.800000
v 0.800000 -0.000003 -0.800000
v 0.800000 0.099997 -0.800000
v -0.700000 -0.100003 -0.900000
v -0.700000 -0.000003 -0.900000
v -0.500000 -0.100003 -0.900000
v -0.700000 0.099997 -0.900000
v -0.500000 -0.000003 -0.900000
v -0.500000 0.099997 -0.900000
v 0.500000 -0.100003 -0.900000
v 0.500000 -0.000003 -0.900000
v 0.700000 -0.100003 -0.900000
v 0.500000 0.099997 -0.900000
v 0.700000 -0.000003 -0.900000
v 0.700000 0.099997 -0.900000
v -0.500000 -0.100003 -1.000000
v -0.500000 -0.000003 -1.000000
v 0.500000 -0.100003 -1.000000
v -0.500000 0.099997 -1.000000
v 0.500000 -0.000003 -1.000000
v 0.500000 0.099997 -1.000000
v -0.500000 -0.100004 0.900000
v 0.500000 -0.100004 1.000000
v -0.500000 -0.100004 1.000000
v 0.500000 -0.100004 0.900000
v -0.700000 -0.100004 0.800000
v -0.700000 -0.100004 0.900000
v 0.700000 -0.100004 0.900000
v 0.700000 -0.100004 0.800000
v -0.800000 -0.100004 0.700000
v -0.800000 -0.100004 0.800000
v 0.800000 -0.100004 0.800000
v 0.800000 -0.100004 0.700000
v -0.900000 -0.100004 0.500000
v -0.900000 -0.100004 0.700000
v 0.900000 -0.100004 0.700000
v 0.900000 -0.100004 0.500000
v -1.000000 -0.100003 -0.500000
v -1.000000 -0.100004 0.500000
v 1.000000 -0.100004 0.500000
v -0.900000 -0.100003 -0.500000
v 0.900000 -0.100003 -0.500000
v 1.000000 -0.100003 -0.500000
v -0.900000 -0.100003 -0.700000
v -0.800000 -0.100003 -0.700000
v 0.800000 -0.100003 -0.700000
v 0.900000 -0.100003 -0.700000
v -0.800000 -0.100003 -0.800000
v -0.700000 -0.100003 -0.800000
v 0.700000 -0.100003 -0.800000
v 0.800000 -0.100003 -0.800000
v -0.700000 -0.100003 -0.900000
v -0.500000 -0.100003 -0.900000
v 0.500000 -0.100003 -0.900000
v 0.700000 -0.100003 -0.900000
v -0.500000 -0.100003 -1.000000
v 0.500000 -0.100003 -1.000000
v -0.500000 0.099996 1.000000
v 0.500000 0.099996 1.000000
v -0.500000 0.099996 0.900000
v 0.500000 0.099996 0.900000
v -0.700000 0.099996 0.900000
v -0.700000 0.099996 0.800000
v 0.700000 0.099996 0.900000
v 0.700000 0.099996 0.800000
v -0.800000 0.099996 0.800000
v -0.800000 0.099996 0.700000
v 0.800000 0.099996 0.800000
v 0.800000 0.099996 0.700000
v -0.900000 0.099996 0.700000
v -0.900000 0.099996 0.500000
v 0.900000 0.099996 0.700000
v 0.900000 0.099996 0.500000
v -1.000000 0.099996 0.500000
v -1.000000 0.099997 -0.500000
v 1.000000 0.099996 0.500000
v -0.900000 0.099997 -0.500000
v 0.900000 0.099997 -0.500000
v 1.000000 0.099997 -0.500000
v -0.900000 0.099997 -0.700000
v -0.800000 0.099997 -0.700000
v 0.800000 0.099997 -0.700000
v 0.900000 0.099997 -0.700000
v -0.800000 0.099997 -0.800000
v -0.700000 0.099997 -0.800000
v 0.700000 0.099997 -0.800000
v 0.800000 0.099997 -0.800000
v -0.700000 0.099997 -0.900000
v -0.500000 0.099997 -0.900000
v 0.500000 0.099997 -0.900000
v 0.700000 0.099997 -0.900000
v -0.500000 0.099997 -1.000000
v 0.500000 0.099997 -1.000000
vt 0.974609 0.500000
vt 0.974609 0.500000
vt 0.974609 0.500000
vt 0.974609 0.500000
vt 0.978516 0.500000
vt 0.978516 0.500000
vt 0.978516 0.500000
vt 0.978516 0.500000
vt 0.974609 0.500000
vt 0.974609 0.500000
vt 0.974609 0.500000
vt 0.974609 0.500000
vt 0.974609 0.500000
vt 0.974609 0.500000
vt 0.974609 0.500000
vt 0.974609 0.500000
vt 0.978516 0.500000
vt 0.978516 0.500000
vt 0.978516 0.500000
vt 0.978516 0.500000
vt 0.978516 0.500000
vt 0.978516 0.500000
vt 0.978516 0.500000
vt 0.978516 0.500000
vt 0.974609 0.500000
vt 0.974609 0.500000
vt 0.974609 0.500000
vt 0.974609 0.500000
vt 0.974609 0.500000
vt 0.974609 0.500000
vt 0.974609 0.500000
vt 0.974609 0.500000
vt 0.978516 0.500000
vt 0.978516 0.500000
vt 0.978516 0.500000
vt 0.978516 0.500000
vt 0.978516 0.500000
vt 0.978516 0.500000
vt 0.978516 0.500000
vt 0.978516 0.500000
vt 0.974609 0.500000
vt 0.974609 0.500000
vt 0.974609 0.500000
vt 0.974609 0.500000
vt 0.974609 0.500000
vt 0.974609 0.500000
vt 0.974609 0.500000
vt 0.974609 0.500000
vt 0.978516 0.500000
vt 0.978516 0.500000
vt 0.978516 0.500000
vt 0.978516 0.500000
vt 0.978516 0.500000
vt 0.978516 0.500000
vt 0.978516 0.500000
vt 0.978516 0.500000
vt 0.974609 0.500000
vt 0.974609 0.500000
vt 0.974609 0.500000
vt 0.974609 0.500000
vt 0.974609 0.500000
vt 0.974609 0.500000
vt 0.974609 0.500000
vt 0.974609 0.500000
vt 0.978516 0.500000
vt 0.978516 0.500000
vt 0.978516 0.500000
vt 0.978516 0.500000
vt 0.978516 0.500000
vt 0.978516 0.500000
vt 0.978516 0.500000
vt 0.978516 0.500000
vt 0.974609 0.500000
vt 0.974609 0.500000
vt 0.974609 0.500000
vt 0.974609 0.500000
vt 0.974609 0.500000
vt 0.974609 0.500000
vt 0.974609 0.500000
vt 0.974609 0.500000
vt 0.978516 0.500000
vt 0.978516 0.500000
vt 0.978516 0.500000
vt 0.978516 0.500000
vt 0.978516 0.500000
vt 0.978516 0.500000
vt 0.978516 0.500000
vt 0.978516 0.500000
vt 0.974609 0.500000
vt 0.974609 0.500000
vt 0.974609 0.500000
vt 0.974609 0.500000
vt 0.974609 0.500000
vt 0.974609 0.500000
vt 0.974609 0.500000
vt 0.974609 0.500000
vt 0.978516 0.500000
vt 0.978516 0.500000
vt 0.978516 0.500000
vt 0.978516 0.500000
vt 0.978516 0.500000
vt 0.978516 0.500000
vt 0.978516 0.500000
vt 0.978516 0.500000
vt 0.974609 0.500000
vt 0.974609 0.500000
vt 0.974609 0.500000
vt 0.974609 0.500000
vt 0.974609 0.500000
vt 0.974609 0.500000
vt 0.974609 0.500000
vt 0.974609 0.500000
vt 0.978516 0.500000
vt 0.978516 0.500000
vt 0.978516 0.500000
vt 0.978516 0.500000
vt 0.978516 0.500000
vt 0.978516 0.500000
vt 0.978516 0.500000
vt 0.978516 0.500000
vt 0.974609 0.500000
vt 0.974609 0.500000
vt 0.974609 0.500000
vt 0.974609 0.500000
vt 0.974609 0.500000
vt 0.974609 0.500000
vt 0.974609 0.500000
vt 0.974609 0.500000
vt 0.978516 0.500000
vt 0.978516 0.500000
vt 0.978516 0.500000
vt 0.978516 0.500000
vt 0.978516 0.500000
vt 0.978516 0.500000
vt 0.978516 0.500000
vt 0.978516 0.500000
vt 0.974609 0.500000
vt 0.974609 0.500000
vt 0.974609 0.500000
vt 0.974609 0.500000
vt 0.978516 0.500000
vt 0.978516 0.500000
vt 0.978516 0.500000
vt 0.978516 0.500000
vt 0.974609 0.500000
vt 0.974609 0.500000
vt 0.974609 0.500000
vt 0.978516 0.500000
vt 0.978516 0.500000
vt 0.978516 0.500000
vt 0.974609 0.500000
vt 0.978516 0.500000
vt 0.974609 0.500000
vt 0.974609 0.500000
vt 0.974609 0.500000
vt 0.978516 0.500000
vt 0.978516 0.500000
vt 0.978516 0.500000
vt 0.974609 0.500000
vt 0.978516 0.500000
vt 0.974609 0.500000
vt 0.974609 0.500000
vt 0.974609 0.500000
vt 0.978516 0.500000
vt 0.978516 0.500000
vt 0.978516 0.500000
vt 0.974609 0.500000
vt 0.978516 0.500000
vt 0.974609 0.500000
vt 0.974609 0.500000
vt 0.974609 0.500000
vt 0.978516 0.500000
vt 0.978516 0.500000
vt 0.978516 0.500000
vt 0.974609 0.500000
vt 0.978516 0.500000
vt 0.974609 0.500000
vt 0.974609 0.500000
vt 0.974609 0.500000
vt 0.978516 0.500000
vt 0.978516 0.500000
vt 0.978516 0.500000
vt 0.974609 0.500000
vt 0.978516 0.500000
vt 0.974609 0.500000
vt 0.974609 0.500000
vt 0.974609 0.500000
vt 0.978516 0.500000
vt 0.978516 0.500000
vt 0.978516 0.500000
vt 0.974609 0.500000
vt 0.978516 0.500000
vt 0.974609 0.500000
vt 0.974609 0.500000
vt 0.974609 0.500000
vt 0.978516 0.500000
vt 0.978516 0.500000
vt 0.978516 0.500000
vt 0.974609 0.500000
vt 0.978516 0.500000
vt 0.974609 0.500000
vt 0.974609 0.500000
vt 0.974609 0.500000
vt 0.978516 0.500000
vt 0.978516 0.500000
vt 0.978516 0.500000
vt 0.974609 0.500000
vt 0.978516 0.500000
vt 0.974609 0.500000
vt 0.974609 0.500000
vt 0.974609 0.500000
vt 0.978516 0.500000
vt 0.978516 0.500000
vt 0.978516 0.500000
vt 0.974609 0.500000
vt 0.978516 0.500000
vt 0.974609 0.500000
vt 0.974609 0.500000
vt 0.974609 0.500000
vt 0.978516 0.500000
vt 0.978516 0.500000
vt 0.978516 0.500000
vt 0.974609 0.500000
vt 0.978516 0.500000
vt 0.974609 0.500000
vt 0.974609 0.500000
vt 0.974609 0.500000
vt 0.978516 0.500000
vt 0.978516 0.500000
vt 0.978516 0.500000
vt 0.974609 0.500000
vt 0.978516 0.500000
vt 0.974609 0.500000
vt 0.974609 0.500000
vt 0.974609 0.500000
vt 0.978516 0.500000
vt 0.978516 0.500000
vt 0.978516 0.500000
vt 0.974609 0.500000
vt 0.978516 0.500000
vt 0.974609 0.500000
vt 0.974609 0.500000
vt 0.974609 0.500000
vt 0.978516 0.500000
vt 0.978516 0.500000
vt 0.978516 0.500000
vt 0.974609 0.500000
vt 0.978516 0.500000
vt 0.974609 0.500000
vt 0.974609 0.500000
vt 0.974609 0.500000
vt 0.978516 0.500000
vt 0.978516 0.500000
vt 0.978516 0.500000
vt 0.974609 0.500000
vt 0.978516 0.500000
vt 0.974609 0.500000
vt 0.974609 0.500000
vt 0.974609 0.500000
vt 0.978516 0.500000
vt 0.978516 0.500000
vt 0.978516 0.500000
vt 0.974609 0.500000
vt 0.978516 0.500000
vt 0.974609 0.500000
vt 0.974609 0.500000
vt 0.974609 0.500000
vt 0.978516 0.500000
vt 0.978516 0.500000
vt 0.978516 0.500000
vt 0.974609 0.500000
vt 0.978516 0.500000
vt 0.974609 0.500000
vt 0.974609 0.500000
vt 0.974609 0.500000
vt 0.978516 0.500000
vt 0.978516 0.500000
vt 0.978516 0.500000
vt 0.974609 0.500000
vt 0.978516 0.500000
vt 0.974609 0.500000
vt 0.974609 0.500000
vt 0.974609 0.500000
vt 0.978516 0.500000
vt 0.978516 0.500000
vt 0.978516 0.500000
vt 0.974609 0.500000
vt 0.978516 0.500000
vt 0.974609 0.500000
vt 0.974609 0.500000
vt 0.974609 0.500000
vt 0.974609 0.500000
vt 0.974609 0.500000
vt 0.974609 0.500000
vt 0.974609 0.500000
vt 0.974609 0.500000
vt 0.974609 0.500000
vt 0.974609 0.500000
vt 0.974609 0.500000
vt 0.974609 0.500000
vt 0.974609 0.500000
vt 0.974609 0.500000
vt 0.974609 0.500000
vt 0.974609 0.500000
vt 0.974609 0.500000
vt 0.974609 0.500000
vt 0.974609 0.500000
vt 0.974609 0.500000
vt 0.974609 0.500000
vt 0.974609 0.500000
vt 0.974609 0.500000
vt 0.974609 0.500000
vt 0.974609 0.500000
vt 0.974609 0.500000
vt 0.974609 0.500000
vt 0.974609 0.500000
vt 0.974609 0.500000
vt 0.974609 0.500000
vt 0.974609 0.500000
vt 0.974609 0.500000
vt 0.974609 0.500000
vt 0.974609 0.500000
vt 0.974609 0.500000
vt 0.974609 0.500000
vt 0.978516 0.500000
vt 0.978516 0.500000
vt 0.978516 0.500000
vt 0.978516 0.500000
vt 0.978516 0.500000
vt 0.978516 0.500000
vt 0.978516 0.500000
vt 0.978516 0.500000
vt 0.978516 0.500000
vt 0.978516 0.500000
vt 0.978516 0.500000
vt 0.978516 0.500000
vt 0.978516 0.500000
vt 0.978516 0.500000
vt 0.978516 0.500000
vt 0.978516 0.500000
vt 0.978516 0.500000
vt 0.978516 0.500000
vt 0.978516 0.500000
vt 0.978516 0.500000
vt 0.978516 0.500000
vt 0.978516 0.500000
vt 0.978516 0.500000
vt 0.978516 0.500000
vt 0.978516 0.500000
vt 0.978516 0.500000
vt 0.978516 0.500000
vt 0.978516 0.500000
vt 0.978516 0.500000
vt 0.978516 0.500000
vt 0.978516 0.500000
vt 0.978516 0.500000
vt 0.978516 0.500000
vt 0.978516 0.500000
vt 0.978516 0.500000
vt 0.978516 0.500000
vn -1.0000 0.0000 0.0000
vn 1.0000 0.0000 0.0000
vn 0.0000 0.0000 1.0000
vn 0.0000 0.0000 -1.0000
vn 0.0000 -1.0000 -0.0000
vn 0.0000 1.0000 0.0000
usemtl palette.004
s 1
f 1/1/1 2/2/1 3/3/1
f 4/4/1 2/2/1 1/1/1
f 5/5/1 4/6/1 1/7/1
f 6/8/1 4/6/1 5/5/1
f 7/9/1 8/10/1 9/11/1
f 10/12/1 8/10/1 7/9/1
f 11/13/1 12/14/1 13/15/1
f 14/16/1 12/14/1 11/13/1
f 15/17/1 10/18/1 7/19/1
f 16/20/1 10/18/1 15/17/1
f 17/21/1 14/22/1 11/23/1
f 18/24/1 14/22/1 17/21/1
f 19/25/1 20/26/1 21/27/1
f 22/28/1 20/26/1 19/25/1
f 23/29/1 24/30/1 25/31/1
f 26/32/1 24/30/1 23/29/1
f 27/33/1 22/34/1 19/35/1
f 28/36/1 22/34/1 27/33/1
f 29/37/1 26/38/1 23/39/1
f 30/40/1 26/38/1 29/37/1
f 31/41/1 32/42/1 33/43/1
f 34/44/1 32/42/1 31/41/1
f 35/45/1 36/46/1 37/47/1
f 38/48/1 36/46/1 35/45/1
f 39/49/1 34/50/1 31/51/1
f 40/52/1 34/50/1 39/49/1
f 41/53/1 38/54/1 35/55/1
f 42/56/1 38/54/1 41/53/1
f 43/57/1 44/58/1 45/59/1
f 46/60/1 44/58/1 43/57/1
f 47/61/1 48/62/1 49/63/1
f 50/64/1 48/62/1 47/61/1
f 51/65/1 46/66/1 43/67/1
f 52/68/1 46/66/1 51/65/1
f 53/69/1 50/70/1 47/71/1
f 54/72/1 50/70/1 53/69/1
f 55/73/2 56/74/2 57/75/2
f 57/75/2 56/74/2 58/76/2
f 59/77/2 60/78/2 61/79/2
f 61/79/2 60/78/2 62/80/2
f 57/81/2 58/82/2 63/83/2
f 63/83/2 58/82/2 64/84/2
f 61/85/2 62/86/2 65/87/2
f 65/87/2 62/86/2 66/88/2
f 67/89/2 68/90/2 69/91/2
f 69/91/2 68/90/2 70/92/2
f 71/93/2 72/94/2 73/95/2
f 73/95/2 72/94/2 74/96/2
f 69/97/2 70/98/2 75/99/2
f 75/99/2 70/98/2 76/100/2
f 73/101/2 74/102/2 77/103/2
f 77/103/2 74/102/2 78/104/2
f 79/105/2 80/106/2 81/107/2
f 81/107/2 80/106/2 82/108/2
f 83/109/2 84/110/2 85/111/2
f 85/111/2 84/110/2 86/112/2
f 81/113/2 82/114/2 87/115/2
f 87/115/2 82/114/2 88/116/2
f 85/117/2 86/118/2 89/119/2
f 89/119/2 86/118/2 90/120/2
f 91/121/2 92/122/2 93/123/2
f 93/123/2 92/122/2 94/124/2
f 95/125/2 96/126/2 97/127/2
f 97/127/2 96/126/2 98/128/2
f 93/129/2 94/130/2 99/131/2
f 99/131/2 94/130/2 100/132/2
f 97/133/2 98/134/2 101/135/2
f 101/135/2 98/134/2 102/136/2
f 103/137/2 104/138/2 105/139/2
f 105/139/2 104/138/2 106/140/2
f 105/141/2 106/142/2 107/143/2
f 107/143/2 106/142/2 108/144/2
f 109/145/3 110/146/3 111/147/3
f 112/148/3 113/149/3 110/150/3
f 112/151/3 110/146/3 109/145/3
f 114/152/3 113/149/3 112/148/3
f 115/153/3 116/154/3 117/155/3
f 118/156/3 119/157/3 116/158/3
f 118/159/3 116/154/3 115/153/3
f 120/160/3 119/157/3 118/156/3
f 121/161/3 122/162/3 123/163/3
f 124/164/3 125/165/3 122/166/3
f 124/167/3 122/162/3 121/161/3
f 126/168/3 125/165/3 124/164/3
f 127/169/3 128/170/3 129/171/3
f 130/172/3 131/173/3 128/174/3
f 130/175/3 128/170/3 127/169/3
f 132/176/3 131/173/3 130/172/3
f 133/177/3 134/178/3 135/179/3
f 136/180/3 137/181/3 134/182/3
f 136/183/3 134/178/3 133/177/3
f 138/184/3 137/181/3 136/180/3
f 139/185/3 140/186/3 141/187/3
f 142/188/3 143/189/3 140/190/3
f 142/191/3 140/186/3 139/185/3
f 144/192/3 143/189/3 142/188/3
f 145/193/3 146/194/3 147/195/3
f 148/196/3 149/197/3 146/198/3
f 148/199/3 146/194/3 145/193/3
f 150/200/3 149/197/3 148/196/3
f 151/201/3 152/202/3 153/203/3
f 154/204/3 155/205/3 152/206/3
f 154/207/3 152/202/3 151/201/3
f 156/208/3 155/205/3 154/204/3
f 157/209/3 158/210/3 159/211/3
f 160/212/3 161/213/3 158/214/3
f 160/215/3 158/210/3 157/209/3
f 162/216/3 161/213/3 160/212/3
f 163/217/4 164/218/4 165/219/4
f 164/220/4 166/221/4 167/222/4
f 165/219/4 164/218/4 167/223/4
f 167/222/4 166/221/4 168/224/4
f 169/225/4 170/226/4 171/227/4
f 170/228/4 172/229/4 173/230/4
f 171/227/4 170/226/4 173/231/4
f 173/230/4 172/229/4 174/232/4
f 175/233/4 176/234/4 177/235/4
f 176/236/4 178/237/4 179/238/4
f 177/235/4 176/234/4 179/239/4
f 179/238/4 178/237/4 180/240/4
f 181/241/4 182/242/4 183/243/4
f 182/244/4 184/245/4 185/246/4
f 183/243/4 182/242/4 185/247/4
f 185/246/4 184/245/4 186/248/4
f 187/249/4 188/250/4 189/251/4
f 188/252/4 190/253/4 191/254/4
f 189/251/4 188/250/4 191/255/4
f 191/254/4 190/253/4 192/256/4
f 193/257/4 194/258/4 195/259/4
f 194/260/4 196/261/4 197/262/4
f 195/259/4 194/258/4 197/263/4
f 197/262/4 196/261/4 198/264/4
f 199/265/4 200/266/4 201/267/4
f 200/268/4 202/269/4 203/270/4
f 201/267/4 200/266/4 203/271/4
f 203/270/4 202/269/4 204/272/4
f 205/273/4 206/274/4 207/275/4
f 206/276/4 208/277/4 209/278/4
f 207/275/4 206/274/4 209/279/4
f 209/278/4 208/277/4 210/280/4
f 211/281/4 212/282/4 213/283/4
f 212/284/4 214/285/4 215/286/4
f 213/283/4 212/282/4 215/287/4
f 215/286/4 214/285/4 216/288/4
f 217/289/5 218/290/5 219/291/5
f 220/292/5 218/290/5 217/289/5
f 221/293/5 217/289/5 222/294/5
f 221/293/5 223/295/5 220/292/5
f 221/293/5 220/292/5 217/289/5
f 224/296/5 223/295/5 221/293/5
f 225/297/5 221/293/5 226/298/5
f 225/297/5 227/299/5 224/296/5
f 225/297/5 224/296/5 221/293/5
f 228/300/5 227/299/5 225/297/5
f 229/301/5 225/297/5 230/302/5
f 229/301/5 231/303/5 228/300/5
f 229/301/5 228/300/5 225/297/5
f 232/304/5 231/303/5 229/301/5
f 233/305/5 229/301/5 234/306/5
f 233/305/5 235/307/5 232/304/5
f 233/305/5 232/304/5 229/301/5
f 236/308/5 235/307/5 233/305/5
f 237/309/5 235/307/5 236/308/5
f 238/310/5 235/307/5 237/309/5
f 239/311/5 237/309/5 236/308/5
f 240/312/5 237/309/5 239/311/5
f 241/313/5 237/309/5 240/312/5
f 242/314/5 237/309/5 241/313/5
f 243/315/5 241/313/5 240/312/5
f 244/316/5 241/313/5 243/315/5
f 245/317/5 241/313/5 244/316/5
f 246/318/5 241/313/5 245/317/5
f 247/319/5 245/317/5 244/316/5
f 248/320/5 245/317/5 247/319/5
f 249/321/5 245/317/5 248/320/5
f 250/322/5 245/317/5 249/321/5
f 251/323/5 249/321/5 248/320/5
f 252/324/5 249/321/5 251/323/5
f 253/325/6 254/326/6 255/327/6
f 255/327/6 254/326/6 256/328/6
f 257/329/6 255/327/6 258/330/6
f 256/328/6 259/331/6 258/330/6
f 255/327/6 256/328/6 258/330/6
f 258/330/6 259/331/6 260/332/6
f 261/333/6 258/330/6 262/334/6
f 260/332/6 263/335/6 262/334/6
f 258/330/6 260/332/6 262/334/6
f 262/334/6 263/335/6 264/336/6
f 265/337/6 262/334/6 266/338/6
f 264/336/6 267/339/6 266/338/6
f 262/334/6 264/336/6 266/338/6
f 266/338/6 267/339/6 268/340/6
f 269/341/6 266/338/6 270/342/6
f 268/340/6 271/343/6 270/342/6
f 266/338/6 268/340/6 270/342/6
f 270/342/6 271/343/6 272/344/6
f 272/344/6 271/343/6 273/345/6
f 273/345/6 271/343/6 274/346/6
f 272/344/6 273/345/6 275/347/6
f 275/347/6 273/345/6 276/348/6
f 276/348/6 273/345/6 277/349/6
f 277/349/6 273/345/6 278/350/6
f 276/348/6 277/349/6 279/351/6
f 279/351/6 277/349/6 280/352/6
f 280/352/6 277/349/6 281/353/6
f 281/353/6 277/349/6 282/354/6
f 280/352/6 281/353/6 283/355/6
f 283/355/6 281/353/6 284/356/6
f 284/356/6 281/353/6 285/357/6
f 285/357/6 281/353/6 286/358/6
f 284/356/6 285/357/6 287/359/6
f 287/359/6 285/357/6 288/360/6
