# MagicaVoxel @ Ephtracy

# group
o 

# material
mtllib Tree platform.mtl
usemtl palette

# normals
vn -1 0 0
vn 1 0 0
vn 0 0 1
vn 0 0 -1
vn 0 -1 0
vn 0 1 0

# texcoords
vt 0.314453 0.5
vt 0.341797 0.5
vt 0.958984 0.5

# verts
v -4 0 2.1
v -4 0 -2.1
v -4 0.2 2.1
v -4 0.2 -2.1
v 4 0 2.1
v 4 0 -2.1
v 4 0.2 2.1
v 4 0.2 -2.1
v -4 0 2.1
v -4 0.2 2.1
v 4 0 2.1
v 4 0.2 2.1
v -4 0 -2.1
v -4 0.2 -2.1
v 4 0 -2.1
v 4 0.2 -2.1
v -4 0 2.1
v 4 0 2.1
v -4 0 -2.1
v 4 0 -2.1
v -4 0.2 2.1
v 4 0.2 2.1
v -3.8 0.2 1.9
v 3.8 0.2 1.9
v -3.6 0.2 1.7
v 3.6 0.2 1.7
v -3.6 0.2 -1.7
v 3.6 0.2 -1.7
v -3.8 0.2 -1.9
v 3.8 0.2 -1.9
v -4 0.2 -2.1
v 4 0.2 -2.1

# faces
f 3/3/1 2/3/1 1/3/1
f 4/3/1 2/3/1 3/3/1
f 5/3/2 6/3/2 7/3/2
f 7/3/2 6/3/2 8/3/2
f 11/3/3 10/3/3 9/3/3
f 12/3/3 10/3/3 11/3/3
f 13/3/4 14/3/4 15/3/4
f 15/3/4 14/3/4 16/3/4
f 19/3/5 18/3/5 17/3/5
f 20/3/5 18/3/5 19/3/5
f 21/3/6 22/3/6 23/3/6
f 23/3/6 22/3/6 24/3/6
f 23/2/6 24/2/6 25/2/6
f 25/2/6 24/2/6 26/2/6
f 23/2/6 25/2/6 27/2/6
f 25/1/6 26/1/6 27/1/6
f 26/2/6 24/2/6 28/2/6
f 27/1/6 26/1/6 28/1/6
f 21/3/6 23/3/6 29/3/6
f 23/2/6 27/2/6 29/2/6
f 27/2/6 28/2/6 29/2/6
f 28/2/6 24/2/6 30/2/6
f 29/2/6 28/2/6 30/2/6
f 24/3/6 22/3/6 30/3/6
f 21/3/6 29/3/6 31/3/6
f 29/3/6 30/3/6 31/3/6
f 30/3/6 22/3/6 32/3/6
f 31/3/6 30/3/6 32/3/6
