# Blender v2.80 (sub 75) OBJ File: ''
# www.blender.org
mtllib Tank Turret.mtl
o Tank_Turret
v -1.200000 -0.000000 0.200000
v -1.200000 -0.100000 0.100000
v -1.200000 -0.100000 0.200000
v -1.200000 -0.000000 0.100000
v -1.200000 0.000000 -0.100000
v -1.200000 -0.100000 -0.200000
v -1.200000 -0.100000 -0.100000
v -1.200000 0.000000 -0.200000
v -1.200000 0.100000 0.200000
v -1.200000 0.100000 0.100000
v -1.200000 0.100000 -0.100000
v -1.200000 0.100000 -0.200000
v -1.000000 -0.000000 0.100000
v -1.000000 -0.100000 -0.100000
v -1.000000 -0.100000 0.100000
v -1.000000 0.000000 -0.100000
v -1.000000 0.100000 0.100000
v -1.000000 0.100000 -0.100000
v -0.700000 -0.000000 0.200000
v -0.700000 -0.100000 0.200000
v -0.700000 -0.100000 0.300000
v -0.700000 0.000000 -0.200000
v -0.700000 -0.100000 -0.300000
v -0.700000 -0.100000 -0.200000
v -0.700000 0.100000 0.300000
v -0.700000 0.100000 0.200000
v -0.700000 0.100000 -0.200000
v -0.700000 0.100000 -0.300000
v 0.300000 -0.100000 0.500000
v 0.300000 -0.200000 0.400000
v 0.300000 -0.200000 0.500000
v 0.300000 -0.100000 0.400000
v 0.300000 -0.200000 -0.400000
v 0.300000 -0.100000 0.200000
v 0.300000 -0.100000 -0.200000
v 0.300000 -0.100000 -0.400000
v 0.300000 -0.200000 -0.500000
v 0.300000 -0.100000 -0.500000
v 0.300000 -0.000000 0.400000
v 0.300000 -0.000000 0.300000
v 0.300000 -0.000000 0.200000
v 0.300000 0.000000 -0.200000
v 0.300000 0.000000 -0.400000
v 0.300000 0.100000 0.400000
v 0.300000 0.100000 0.300000
v 0.300000 0.100000 0.200000
v 0.300000 0.100000 -0.200000
v 0.300000 0.100000 -0.300000
v 0.300000 0.100000 -0.400000
v 0.300000 0.200000 0.300000
v 0.300000 0.200000 0.200000
v 0.300000 0.100000 -0.100000
v 0.300000 0.100000 0.100000
v 0.300000 0.200000 -0.200000
v 0.300000 0.200000 -0.300000
v 0.000000 -0.100000 0.300000
v 0.000000 -0.100000 0.200000
v 0.000000 -0.000000 0.200000
v 0.000000 -0.100000 -0.200000
v 0.000000 -0.100000 -0.300000
v 0.000000 0.000000 -0.200000
v 0.000000 0.100000 0.300000
v 0.000000 0.100000 0.200000
v 0.000000 0.100000 -0.200000
v 0.000000 0.100000 -0.300000
v 1.100000 -0.000000 0.400000
v 1.100000 -0.000000 0.300000
v 1.100000 0.100000 0.400000
v 1.100000 0.100000 0.300000
v 1.100000 0.000000 -0.300000
v 1.100000 0.000000 -0.400000
v 1.100000 0.100000 -0.300000
v 1.100000 0.100000 -0.400000
v 1.100000 0.200000 0.300000
v 1.100000 0.200000 -0.300000
v 1.200000 -0.200000 0.500000
v 1.200000 -0.200000 0.400000
v 1.200000 -0.100000 0.500000
v 1.200000 -0.200000 -0.400000
v 1.200000 -0.100000 0.400000
v 1.200000 -0.200000 -0.500000
v 1.200000 -0.100000 -0.400000
v 1.200000 -0.100000 -0.500000
v 1.200000 -0.000000 0.400000
v 1.200000 -0.000000 0.300000
v 1.200000 0.000000 -0.300000
v 1.200000 0.000000 -0.400000
v 1.200000 0.100000 0.300000
v 1.200000 0.100000 -0.300000
v 1.200000 -0.200000 0.500000
v 0.300000 -0.100000 0.500000
v 0.300000 -0.200000 0.500000
v 1.200000 -0.100000 0.500000
v 1.100000 -0.000000 0.400000
v 0.300000 -0.000000 0.400000
v 0.300000 -0.100000 0.400000
v 0.300000 0.100000 0.400000
v 1.100000 0.100000 0.400000
v 1.200000 -0.100000 0.400000
v 1.200000 -0.000000 0.400000
v 0.000000 -0.100000 0.300000
v -0.700000 0.100000 0.300000
v -0.700000 -0.100000 0.300000
v 0.000000 0.100000 0.300000
v 1.100000 0.100000 0.300000
v 0.300000 0.200000 0.300000
v 0.300000 0.100000 0.300000
v 1.100000 0.200000 0.300000
v 1.200000 -0.000000 0.300000
v 1.100000 -0.000000 0.300000
v 1.200000 0.100000 0.300000
v -0.900000 -0.100000 0.200000
v -1.200000 -0.000000 0.200000
v -1.200000 -0.100000 0.200000
v -0.900000 -0.000000 0.200000
v -1.200000 0.100000 0.200000
v -0.900000 0.100000 0.200000
v -0.700000 -0.100000 0.200000
v -0.700000 -0.000000 0.200000
v -0.700000 0.100000 0.200000
v 0.300000 -0.100000 0.200000
v 0.000000 -0.000000 0.200000
v 0.000000 -0.100000 0.200000
v 0.300000 -0.000000 0.200000
v 0.000000 0.100000 0.200000
v 0.300000 0.100000 0.200000
v -1.000000 -0.100000 -0.100000
v -1.200000 0.000000 -0.100000
v -1.200000 -0.100000 -0.100000
v -1.000000 0.000000 -0.100000
v -1.200000 0.100000 -0.100000
v -1.000000 0.100000 -0.100000
v -1.200000 -0.100000 0.100000
v -1.200000 -0.000000 0.100000
v -1.000000 -0.100000 0.100000
v -1.200000 0.100000 0.100000
v -1.000000 -0.000000 0.100000
v -1.000000 0.100000 0.100000
v -1.200000 -0.100000 -0.200000
v -1.200000 0.000000 -0.200000
v -0.900000 -0.100000 -0.200000
v -1.200000 0.100000 -0.200000
v -0.900000 0.000000 -0.200000
v -0.900000 0.100000 -0.200000
v -0.700000 -0.100000 -0.200000
v -0.700000 0.000000 -0.200000
v -0.700000 0.100000 -0.200000
v 0.000000 -0.100000 -0.200000
v 0.000000 0.000000 -0.200000
v 0.300000 -0.100000 -0.200000
v 0.000000 0.100000 -0.200000
v 0.300000 0.000000 -0.200000
v 0.300000 0.100000 -0.200000
v -0.700000 -0.100000 -0.300000
v -0.700000 0.100000 -0.300000
v 0.000000 -0.100000 -0.300000
v 0.000000 0.100000 -0.300000
v 0.300000 0.100000 -0.300000
v 0.300000 0.200000 -0.300000
v 1.100000 0.100000 -0.300000
v 1.100000 0.200000 -0.300000
v 1.100000 0.000000 -0.300000
v 1.200000 0.000000 -0.300000
v 1.200000 0.100000 -0.300000
v 0.300000 -0.100000 -0.400000
v 0.300000 0.000000 -0.400000
v 1.100000 0.000000 -0.400000
v 0.300000 0.100000 -0.400000
v 1.100000 0.100000 -0.400000
v 1.200000 -0.100000 -0.400000
v 1.200000 0.000000 -0.400000
v 0.300000 -0.200000 -0.500000
v 0.300000 -0.100000 -0.500000
v 1.200000 -0.200000 -0.500000
v 1.200000 -0.100000 -0.500000
v 0.300000 -0.200000 0.400000
v 1.200000 -0.200000 0.500000
v 0.300000 -0.200000 0.500000
v 1.200000 -0.200000 0.400000
v 0.300000 -0.200000 -0.400000
v 1.200000 -0.200000 -0.400000
v 0.300000 -0.200000 -0.500000
v 1.200000 -0.200000 -0.500000
v -0.700000 -0.100000 0.200000
v 0.000000 -0.100000 0.300000
v -0.700000 -0.100000 0.300000
v 0.000000 -0.100000 0.200000
v -1.200000 -0.100000 0.100000
v -0.900000 -0.100000 0.200000
v -1.200000 -0.100000 0.200000
v -1.000000 -0.100000 0.100000
v -1.000000 -0.100000 -0.100000
v -1.200000 -0.100000 -0.200000
v -1.200000 -0.100000 -0.100000
v -0.900000 -0.100000 -0.200000
v 0.300000 -0.100000 0.200000
v -0.700000 -0.100000 -0.200000
v 0.000000 -0.100000 -0.200000
v 0.300000 -0.100000 -0.200000
v -0.700000 -0.100000 -0.300000
v 0.000000 -0.100000 -0.300000
v 0.300000 -0.100000 0.500000
v 1.200000 -0.100000 0.500000
v 0.300000 -0.100000 0.400000
v 1.200000 -0.100000 0.400000
v 0.300000 -0.100000 -0.400000
v 1.200000 -0.100000 -0.400000
v 0.300000 -0.100000 -0.500000
v 1.200000 -0.100000 -0.500000
v 1.100000 -0.000000 0.400000
v 1.200000 -0.000000 0.400000
v 1.100000 -0.000000 0.300000
v 1.200000 -0.000000 0.300000
v 1.100000 0.000000 -0.300000
v 1.200000 0.000000 -0.300000
v 1.100000 0.000000 -0.400000
v 1.200000 0.000000 -0.400000
v 0.300000 0.100000 0.400000
v 1.100000 0.100000 0.400000
v 0.300000 0.100000 0.300000
v 1.100000 0.100000 0.300000
v -0.700000 0.100000 0.300000
v 0.000000 0.100000 0.300000
v -0.700000 0.100000 0.200000
v -0.600000 0.100000 0.200000
v -0.100000 0.100000 0.200000
v 0.000000 0.100000 0.200000
v -1.200000 0.100000 0.200000
v -0.900000 0.100000 0.200000
v -1.200000 0.100000 0.100000
v -1.000000 0.100000 0.100000
v -0.900000 0.100000 0.100000
v -0.600000 0.100000 0.100000
v 0.300000 0.100000 0.200000
v -0.100000 0.100000 0.100000
v 0.100000 0.100000 0.100000
v 0.300000 0.100000 0.100000
v -1.000000 0.100000 -0.100000
v -0.900000 0.100000 -0.100000
v -0.600000 0.100000 -0.100000
v -0.100000 0.100000 -0.100000
v 0.100000 0.100000 -0.100000
v 0.300000 0.100000 -0.100000
v -1.200000 0.100000 -0.100000
v -1.200000 0.100000 -0.200000
v -0.900000 0.100000 -0.200000
v -0.700000 0.100000 -0.200000
v -0.600000 0.100000 -0.200000
v -0.100000 0.100000 -0.200000
v 0.000000 0.100000 -0.200000
v 0.300000 0.100000 -0.200000
v -0.700000 0.100000 -0.300000
v 0.000000 0.100000 -0.300000
v 1.200000 0.100000 0.300000
v 1.100000 0.100000 -0.300000
v 1.200000 0.100000 -0.300000
v 0.300000 0.100000 -0.300000
v 0.300000 0.100000 -0.400000
v 1.100000 0.100000 -0.400000
v 0.300000 0.200000 0.300000
v 1.100000 0.200000 0.300000
v 0.300000 0.200000 0.200000
v 1.000000 0.200000 0.200000
v 0.300000 0.200000 -0.200000
v 1.000000 0.200000 -0.200000
v 0.300000 0.200000 -0.300000
v 1.100000 0.200000 -0.300000
vt 0.162109 0.500000
vt 0.162109 0.500000
vt 0.162109 0.500000
vt 0.162109 0.500000
vt 0.162109 0.500000
vt 0.162109 0.500000
vt 0.162109 0.500000
vt 0.162109 0.500000
vt 0.205078 0.500000
vt 0.205078 0.500000
vt 0.205078 0.500000
vt 0.205078 0.500000
vt 0.205078 0.500000
vt 0.205078 0.500000
vt 0.205078 0.500000
vt 0.205078 0.500000
vt 0.162109 0.500000
vt 0.162109 0.500000
vt 0.162109 0.500000
vt 0.162109 0.500000
vt 0.205078 0.500000
vt 0.205078 0.500000
vt 0.205078 0.500000
vt 0.205078 0.500000
vt 0.962891 0.500000
vt 0.962891 0.500000
vt 0.962891 0.500000
vt 0.962891 0.500000
vt 0.962891 0.500000
vt 0.962891 0.500000
vt 0.962891 0.500000
vt 0.962891 0.500000
vt 0.962891 0.500000
vt 0.962891 0.500000
vt 0.908203 0.500000
vt 0.908203 0.500000
vt 0.908203 0.500000
vt 0.900391 0.500000
vt 0.900391 0.500000
vt 0.900391 0.500000
vt 0.908203 0.500000
vt 0.900391 0.500000
vt 0.900391 0.500000
vt 0.908203 0.500000
vt 0.908203 0.500000
vt 0.908203 0.500000
vt 0.900391 0.500000
vt 0.908203 0.500000
vt 0.900391 0.500000
vt 0.900391 0.500000
vt 0.900391 0.500000
vt 0.900391 0.500000
vt 0.900391 0.500000
vt 0.908203 0.500000
vt 0.908203 0.500000
vt 0.908203 0.500000
vt 0.900391 0.500000
vt 0.908203 0.500000
vt 0.900391 0.500000
vt 0.908203 0.500000
vt 0.908203 0.500000
vt 0.908203 0.500000
vt 0.908203 0.500000
vt 0.908203 0.500000
vt 0.900391 0.500000
vt 0.912109 0.500000
vt 0.912109 0.500000
vt 0.912109 0.500000
vt 0.900391 0.500000
vt 0.912109 0.500000
vt 0.912109 0.500000
vt 0.900391 0.500000
vt 0.900391 0.500000
vt 0.900391 0.500000
vt 0.912109 0.500000
vt 0.900391 0.500000
vt 0.962891 0.500000
vt 0.962891 0.500000
vt 0.962891 0.500000
vt 0.962891 0.500000
vt 0.962891 0.500000
vt 0.962891 0.500000
vt 0.962891 0.500000
vt 0.962891 0.500000
vt 0.962891 0.500000
vt 0.962891 0.500000
vt 0.908203 0.500000
vt 0.908203 0.500000
vt 0.908203 0.500000
vt 0.908203 0.500000
vt 0.908203 0.500000
vt 0.908203 0.500000
vt 0.908203 0.500000
vt 0.908203 0.500000
vt 0.900391 0.500000
vt 0.900391 0.500000
vt 0.900391 0.500000
vt 0.900391 0.500000
vt 0.908203 0.500000
vt 0.908203 0.500000
vt 0.908203 0.500000
vt 0.900391 0.500000
vt 0.900391 0.500000
vt 0.900391 0.500000
vt 0.908203 0.500000
vt 0.908203 0.500000
vt 0.908203 0.500000
vt 0.908203 0.500000
vt 0.900391 0.500000
vt 0.908203 0.500000
vt 0.900391 0.500000
vt 0.900391 0.500000
vt 0.900391 0.500000
vt 0.900391 0.500000
vt 0.908203 0.500000
vt 0.908203 0.500000
vt 0.908203 0.500000
vt 0.908203 0.500000
vt 0.908203 0.500000
vt 0.908203 0.500000
vt 0.908203 0.500000
vt 0.908203 0.500000
vt 0.900391 0.500000
vt 0.900391 0.500000
vt 0.900391 0.500000
vt 0.908203 0.500000
vt 0.908203 0.500000
vt 0.908203 0.500000
vt 0.908203 0.500000
vt 0.900391 0.500000
vt 0.900391 0.500000
vt 0.962891 0.500000
vt 0.962891 0.500000
vt 0.962891 0.500000
vt 0.962891 0.500000
vt 0.900391 0.500000
vt 0.900391 0.500000
vt 0.900391 0.500000
vt 0.900391 0.500000
vt 0.908203 0.500000
vt 0.908203 0.500000
vt 0.908203 0.500000
vt 0.908203 0.500000
vt 0.162109 0.500000
vt 0.162109 0.500000
vt 0.162109 0.500000
vt 0.205078 0.500000
vt 0.205078 0.500000
vt 0.205078 0.500000
vt 0.162109 0.500000
vt 0.205078 0.500000
vt 0.978516 0.500000
vt 0.978516 0.500000
vt 0.978516 0.500000
vt 0.970703 0.500000
vt 0.970703 0.500000
vt 0.970703 0.500000
vt 0.978516 0.500000
vt 0.970703 0.500000
vt 0.978516 0.500000
vt 0.978516 0.500000
vt 0.978516 0.500000
vt 0.970703 0.500000
vt 0.970703 0.500000
vt 0.970703 0.500000
vt 0.978516 0.500000
vt 0.970703 0.500000
vt 0.162109 0.500000
vt 0.162109 0.500000
vt 0.162109 0.500000
vt 0.205078 0.500000
vt 0.205078 0.500000
vt 0.205078 0.500000
vt 0.162109 0.500000
vt 0.205078 0.500000
vt 0.162109 0.500000
vt 0.162109 0.500000
vt 0.162109 0.500000
vt 0.205078 0.500000
vt 0.205078 0.500000
vt 0.205078 0.500000
vt 0.162109 0.500000
vt 0.205078 0.500000
vt 0.162109 0.500000
vt 0.162109 0.500000
vt 0.162109 0.500000
vt 0.205078 0.500000
vt 0.205078 0.500000
vt 0.205078 0.500000
vt 0.162109 0.500000
vt 0.205078 0.500000
vt 0.978516 0.500000
vt 0.978516 0.500000
vt 0.978516 0.500000
vt 0.970703 0.500000
vt 0.970703 0.500000
vt 0.970703 0.500000
vt 0.978516 0.500000
vt 0.970703 0.500000
vt 0.978516 0.500000
vt 0.978516 0.500000
vt 0.978516 0.500000
vt 0.970703 0.500000
vt 0.970703 0.500000
vt 0.970703 0.500000
vt 0.978516 0.500000
vt 0.970703 0.500000
vt 0.962891 0.500000
vt 0.962891 0.500000
vt 0.962891 0.500000
vt 0.962891 0.500000
vt 0.900391 0.500000
vt 0.900391 0.500000
vt 0.900391 0.500000
vt 0.900391 0.500000
vt 0.908203 0.500000
vt 0.908203 0.500000
vt 0.908203 0.500000
vt 0.908203 0.500000
vt 0.900391 0.500000
vt 0.900391 0.500000
vt 0.900391 0.500000
vt 0.908203 0.500000
vt 0.908203 0.500000
vt 0.908203 0.500000
vt 0.908203 0.500000
vt 0.900391 0.500000
vt 0.900391 0.500000
vt 0.908203 0.500000
vt 0.908203 0.500000
vt 0.908203 0.500000
vt 0.908203 0.500000
vt 0.908203 0.500000
vt 0.908203 0.500000
vt 0.908203 0.500000
vt 0.908203 0.500000
vt 0.900391 0.500000
vt 0.900391 0.500000
vt 0.900391 0.500000
vt 0.900391 0.500000
vt 0.908203 0.500000
vt 0.908203 0.500000
vt 0.908203 0.500000
vt 0.908203 0.500000
vt 0.962891 0.500000
vt 0.962891 0.500000
vt 0.962891 0.500000
vt 0.962891 0.500000
vt 0.162109 0.500000
vt 0.162109 0.500000
vt 0.162109 0.500000
vt 0.162109 0.500000
vt 0.162109 0.500000
vt 0.162109 0.500000
vt 0.162109 0.500000
vt 0.978516 0.500000
vt 0.978516 0.500000
vt 0.978516 0.500000
vt 0.162109 0.500000
vt 0.978516 0.500000
vt 0.978516 0.500000
vt 0.978516 0.500000
vt 0.978516 0.500000
vt 0.978516 0.500000
vt 0.962891 0.500000
vt 0.962891 0.500000
vt 0.962891 0.500000
vt 0.962891 0.500000
vt 0.908203 0.500000
vt 0.908203 0.500000
vt 0.908203 0.500000
vt 0.908203 0.500000
vt 0.908203 0.500000
vt 0.908203 0.500000
vt 0.908203 0.500000
vt 0.908203 0.500000
vt 0.900391 0.500000
vt 0.900391 0.500000
vt 0.900391 0.500000
vt 0.900391 0.500000
vt 0.900391 0.500000
vt 0.900391 0.500000
vt 0.900391 0.500000
vt 0.900391 0.500000
vt 0.908203 0.500000
vt 0.908203 0.500000
vt 0.908203 0.500000
vt 0.908203 0.500000
vt 0.962891 0.500000
vt 0.962891 0.500000
vt 0.962891 0.500000
vt 0.962891 0.500000
vt 0.962891 0.500000
vt 0.962891 0.500000
vt 0.205078 0.500000
vt 0.205078 0.500000
vt 0.205078 0.500000
vt 0.205078 0.500000
vt 0.970703 0.500000
vt 0.970703 0.500000
vt 0.970703 0.500000
vt 0.205078 0.500000
vt 0.970703 0.500000
vt 0.962891 0.500000
vt 0.970703 0.500000
vt 0.970703 0.500000
vt 0.970703 0.500000
vt 0.970703 0.500000
vt 0.962891 0.500000
vt 0.970703 0.500000
vt 0.970703 0.500000
vt 0.970703 0.500000
vt 0.205078 0.500000
vt 0.205078 0.500000
vt 0.205078 0.500000
vt 0.205078 0.500000
vt 0.205078 0.500000
vt 0.205078 0.500000
vt 0.205078 0.500000
vt 0.962891 0.500000
vt 0.962891 0.500000
vt 0.962891 0.500000
vt 0.205078 0.500000
vt 0.962891 0.500000
vt 0.205078 0.500000
vt 0.205078 0.500000
vt 0.970703 0.500000
vt 0.970703 0.500000
vt 0.970703 0.500000
vt 0.205078 0.500000
vt 0.970703 0.500000
vt 0.962891 0.500000
vt 0.962891 0.500000
vt 0.962891 0.500000
vt 0.970703 0.500000
vt 0.970703 0.500000
vt 0.970703 0.500000
vt 0.970703 0.500000
vt 0.962891 0.500000
vt 0.970703 0.500000
vt 0.970703 0.500000
vt 0.970703 0.500000
vt 0.962891 0.500000
vt 0.962891 0.500000
vt 0.962891 0.500000
vt 0.962891 0.500000
vt 0.908203 0.500000
vt 0.908203 0.500000
vt 0.908203 0.500000
vt 0.908203 0.500000
vt 0.908203 0.500000
vt 0.908203 0.500000
vt 0.900391 0.500000
vt 0.900391 0.500000
vt 0.900391 0.500000
vt 0.900391 0.500000
vt 0.912109 0.500000
vt 0.912109 0.500000
vt 0.912109 0.500000
vt 0.900391 0.500000
vt 0.912109 0.500000
vt 0.900391 0.500000
vt 0.900391 0.500000
vt 0.900391 0.500000
vn -1.0000 -0.0000 0.0000
vn 1.0000 0.0000 0.0000
vn 0.0000 0.0000 1.0000
vn 0.0000 0.0000 -1.0000
vn 0.0000 -1.0000 -0.0000
vn 0.0000 1.0000 0.0000
usemtl palette
s 1
f 1/1/1 2/2/1 3/3/1
f 4/4/1 2/2/1 1/1/1
f 5/5/1 6/6/1 7/7/1
f 8/8/1 6/6/1 5/5/1
f 9/9/1 4/10/1 1/11/1
f 10/12/1 4/10/1 9/9/1
f 11/13/1 8/14/1 5/15/1
f 12/16/1 8/14/1 11/13/1
f 13/17/1 14/18/1 15/19/1
f 16/20/1 14/18/1 13/17/1
f 17/21/1 16/22/1 13/23/1
f 18/24/1 16/22/1 17/21/1
f 19/25/1 20/26/1 21/27/1
f 22/28/1 23/29/1 24/30/1
f 25/31/1 19/25/1 21/27/1
f 26/32/1 19/25/1 25/31/1
f 27/33/1 23/29/1 22/28/1
f 28/34/1 23/29/1 27/33/1
f 29/35/1 30/36/1 31/37/1
f 32/38/1 33/39/1 30/40/1
f 32/41/1 30/36/1 29/35/1
f 34/42/1 33/39/1 32/38/1
f 35/43/1 33/39/1 34/42/1
f 36/44/1 37/45/1 33/46/1
f 36/47/1 33/39/1 35/43/1
f 38/48/1 37/45/1 36/44/1
f 39/49/1 34/42/1 32/38/1
f 40/50/1 34/42/1 39/49/1
f 41/51/1 34/42/1 40/50/1
f 42/52/1 36/47/1 35/43/1
f 43/53/1 36/47/1 42/52/1
f 44/54/1 40/55/1 39/56/1
f 45/57/1 41/51/1 40/50/1
f 45/58/1 40/55/1 44/54/1
f 46/59/1 41/51/1 45/57/1
f 47/60/1 43/61/1 42/62/1
f 48/63/1 43/61/1 47/60/1
f 49/64/1 43/61/1 48/63/1
f 50/65/1 46/59/1 45/57/1
f 51/66/1 52/67/1 53/68/1
f 51/69/1 46/59/1 50/65/1
f 51/66/1 53/68/1 46/70/1
f 51/66/1 47/71/1 52/67/1
f 54/72/1 48/73/1 47/74/1
f 54/75/1 47/71/1 51/66/1
f 55/76/1 48/73/1 54/72/1
f 56/77/2 57/78/2 58/79/2
f 59/80/2 60/81/2 61/82/2
f 56/77/2 58/79/2 62/83/2
f 62/83/2 58/79/2 63/84/2
f 61/82/2 60/81/2 64/85/2
f 64/85/2 60/81/2 65/86/2
f 66/87/2 67/88/2 68/89/2
f 68/89/2 67/88/2 69/90/2
f 70/91/2 71/92/2 72/93/2
f 72/93/2 71/92/2 73/94/2
f 69/95/2 72/96/2 74/97/2
f 74/97/2 72/96/2 75/98/2
f 76/99/2 77/100/2 78/101/2
f 77/102/2 79/103/2 80/104/2
f 78/101/2 77/100/2 80/105/2
f 79/106/2 81/107/2 82/108/2
f 80/104/2 79/103/2 82/109/2
f 82/108/2 81/107/2 83/110/2
f 80/104/2 82/109/2 84/111/2
f 84/111/2 82/109/2 85/112/2
f 85/112/2 82/109/2 86/113/2
f 86/113/2 82/109/2 87/114/2
f 85/115/2 86/116/2 88/117/2
f 88/117/2 86/116/2 89/118/2
f 90/119/3 91/120/3 92/121/3
f 93/122/3 91/120/3 90/119/3
f 94/123/3 95/124/3 96/125/3
f 94/126/3 97/127/3 95/128/3
f 98/129/3 97/127/3 94/126/3
f 99/130/3 94/123/3 96/125/3
f 100/131/3 94/123/3 99/130/3
f 101/132/3 102/133/3 103/134/3
f 104/135/3 102/133/3 101/132/3
f 105/136/3 106/137/3 107/138/3
f 108/139/3 106/137/3 105/136/3
f 109/140/3 105/141/3 110/142/3
f 111/143/3 105/141/3 109/140/3
f 112/144/3 113/145/3 114/146/3
f 115/147/3 116/148/3 113/149/3
f 115/150/3 113/145/3 112/144/3
f 117/151/3 116/148/3 115/147/3
f 118/152/3 115/153/3 112/154/3
f 119/155/3 117/156/3 115/157/3
f 119/158/3 115/153/3 118/152/3
f 120/159/3 117/156/3 119/155/3
f 121/160/3 122/161/3 123/162/3
f 124/163/3 125/164/3 122/165/3
f 124/166/3 122/161/3 121/160/3
f 126/167/3 125/164/3 124/163/3
f 127/168/3 128/169/3 129/170/3
f 130/171/3 131/172/3 128/173/3
f 130/174/3 128/169/3 127/168/3
f 132/175/3 131/172/3 130/171/3
f 133/176/4 134/177/4 135/178/4
f 134/179/4 136/180/4 137/181/4
f 135/178/4 134/177/4 137/182/4
f 137/181/4 136/180/4 138/183/4
f 139/184/4 140/185/4 141/186/4
f 140/187/4 142/188/4 143/189/4
f 141/186/4 140/185/4 143/190/4
f 143/189/4 142/188/4 144/191/4
f 141/192/4 143/193/4 145/194/4
f 143/195/4 144/196/4 146/197/4
f 145/194/4 143/193/4 146/198/4
f 146/197/4 144/196/4 147/199/4
f 148/200/4 149/201/4 150/202/4
f 149/203/4 151/204/4 152/205/4
f 150/202/4 149/201/4 152/206/4
f 152/205/4 151/204/4 153/207/4
f 154/208/4 155/209/4 156/210/4
f 156/210/4 155/209/4 157/211/4
f 158/212/4 159/213/4 160/214/4
f 160/214/4 159/213/4 161/215/4
f 162/216/4 160/217/4 163/218/4
f 163/218/4 160/217/4 164/219/4
f 165/220/4 166/221/4 167/222/4
f 166/223/4 168/224/4 167/225/4
f 167/225/4 168/224/4 169/226/4
f 165/220/4 167/222/4 170/227/4
f 170/227/4 167/222/4 171/228/4
f 172/229/4 173/230/4 174/231/4
f 174/231/4 173/230/4 175/232/4
f 176/233/5 177/234/5 178/235/5
f 179/236/5 177/234/5 176/233/5
f 180/237/5 179/238/5 176/239/5
f 181/240/5 179/238/5 180/237/5
f 182/241/5 181/242/5 180/243/5
f 183/244/5 181/242/5 182/241/5
f 184/245/5 185/246/5 186/247/5
f 187/248/5 185/246/5 184/245/5
f 188/249/5 189/250/5 190/251/5
f 191/252/5 189/250/5 188/249/5
f 192/253/5 189/250/5 191/252/5
f 193/254/5 192/253/5 194/255/5
f 195/256/5 196/257/5 187/258/5
f 195/259/5 192/253/5 193/254/5
f 195/256/5 184/260/5 189/261/5
f 195/259/5 189/250/5 192/253/5
f 195/256/5 187/258/5 184/260/5
f 197/262/5 196/257/5 195/256/5
f 198/263/5 196/257/5 197/262/5
f 199/264/5 196/257/5 198/263/5
f 200/265/5 198/266/5 197/267/5
f 201/268/5 198/266/5 200/265/5
f 202/269/6 203/270/6 204/271/6
f 204/271/6 203/270/6 205/272/6
f 206/273/6 207/274/6 208/275/6
f 208/275/6 207/274/6 209/276/6
f 210/277/6 211/278/6 212/279/6
f 212/279/6 211/278/6 213/280/6
f 214/281/6 215/282/6 216/283/6
f 216/283/6 215/282/6 217/284/6
f 218/285/6 219/286/6 220/287/6
f 220/287/6 219/286/6 221/288/6
f 222/289/6 223/290/6 224/291/6
f 224/291/6 223/290/6 225/292/6
f 225/292/6 223/290/6 226/293/6
f 226/293/6 223/290/6 227/294/6
f 228/295/6 229/296/6 230/297/6
f 230/297/6 229/296/6 231/298/6
f 229/299/6 224/300/6 232/301/6
f 231/298/6 229/296/6 232/302/6
f 224/300/6 225/303/6 232/301/6
f 225/292/6 226/293/6 233/304/6
f 232/301/6 225/303/6 233/305/6
f 227/306/6 234/307/6 235/308/6
f 233/304/6 226/293/6 235/309/6
f 226/310/6 227/306/6 235/308/6
f 235/308/6 234/307/6 236/311/6
f 236/311/6 234/307/6 237/312/6
f 232/302/6 233/313/6 238/314/6
f 231/298/6 232/302/6 238/314/6
f 235/315/6 236/316/6 238/314/6
f 233/313/6 235/315/6 238/314/6
f 238/314/6 236/316/6 239/317/6
f 239/317/6 236/316/6 240/318/6
f 240/318/6 236/316/6 241/319/6
f 236/320/6 237/321/6 242/322/6
f 241/319/6 236/316/6 242/323/6
f 242/322/6 237/321/6 243/324/6
f 244/325/6 238/314/6 245/326/6
f 238/314/6 239/317/6 245/326/6
f 239/327/6 240/328/6 246/329/6
f 245/326/6 239/317/6 246/330/6
f 246/329/6 240/328/6 247/331/6
f 240/332/6 241/333/6 248/334/6
f 247/331/6 240/328/6 248/335/6
f 242/336/6 243/337/6 249/338/6
f 248/334/6 241/333/6 249/339/6
f 241/340/6 242/336/6 249/338/6
f 249/338/6 243/337/6 250/341/6
f 250/341/6 243/337/6 251/342/6
f 247/343/6 248/334/6 252/344/6
f 249/339/6 250/345/6 252/344/6
f 248/334/6 249/339/6 252/344/6
f 252/344/6 250/345/6 253/346/6
f 221/288/6 254/347/6 255/348/6
f 255/348/6 254/347/6 256/349/6
f 257/350/6 255/348/6 258/351/6
f 258/351/6 255/348/6 259/352/6
f 260/353/6 261/354/6 262/355/6
f 262/355/6 261/354/6 263/356/6
f 262/357/6 263/358/6 264/359/6
f 263/356/6 261/354/6 265/360/6
f 264/359/6 263/358/6 265/361/6
f 264/362/6 265/360/6 266/363/6
f 265/360/6 261/354/6 267/364/6
f 266/363/6 265/360/6 267/364/6
