# MagicaVoxel @ Ephtracy

# group
o 

# material
mtllib More Park.mtl
usemtl palette

# normals
vn -1 0 0
vn 1 0 0
vn 0 0 1
vn 0 0 -1
vn 0 -1 0
vn 0 1 0

# texcoords
vt 0.880859 0.5
vt 0.884766 0.5
vt 0.888672 0.5
vt 0.962891 0.5

# verts
v -2 0 2
v -2 0 -2
v -2 0.2 2
v -2 0.2 -2
v -2 0.3 2
v -2 0.3 -2
v 2 0 2
v 2 0 -2
v 2 0.2 2
v 2 0.2 -2
v 2 0.3 2
v 2 0.3 -2
v -2 0 2
v -2 0.2 2
v -2 0.3 2
v 2 0 2
v 2 0.2 2
v 2 0.3 2
v -2 0 -2
v -2 0.2 -2
v -2 0.3 -2
v 2 0 -2
v 2 0.2 -2
v 2 0.3 -2
v -2 0 2
v 2 0 2
v -2 0 -2
v 2 0 -2
v -2 0.3 2
v 2 0.3 2
v -1.9 0.3 1.9
v 1.8 0.3 1.9
v 1.9 0.3 1.9
v 1.8 0.3 1.8
v 1.9 0.3 1.8
v -1.6 0.3 0.4
v -1.5 0.3 0.4
v -1.6 0.3 0.3
v -1.5 0.3 0.3
v 1.6 0.3 -0.4
v 1.7 0.3 -0.4
v 1.6 0.3 -0.5
v 1.7 0.3 -0.5
v -1.3 0.3 -1.5
v -1.1 0.3 -1.5
v -1.3 0.3 -1.6
v -1.1 0.3 -1.6
v -1.9 0.3 -1.9
v 1.9 0.3 -1.9
v -2 0.3 -2
v 2 0.3 -2

# faces
f 3/4/1 2/4/1 1/4/1
f 4/4/1 2/4/1 3/4/1
f 5/3/1 4/3/1 3/3/1
f 6/3/1 4/3/1 5/3/1
f 7/4/2 8/4/2 9/4/2
f 9/4/2 8/4/2 10/4/2
f 9/3/2 10/3/2 11/3/2
f 11/3/2 10/3/2 12/3/2
f 16/4/3 14/4/3 13/4/3
f 17/3/3 15/3/3 14/3/3
f 17/4/3 14/4/3 16/4/3
f 18/3/3 15/3/3 17/3/3
f 19/4/4 20/4/4 22/4/4
f 20/3/4 21/3/4 23/3/4
f 22/4/4 20/4/4 23/4/4
f 23/3/4 21/3/4 24/3/4
f 27/4/5 26/4/5 25/4/5
f 28/4/5 26/4/5 27/4/5
f 29/3/6 30/3/6 31/3/6
f 31/3/6 30/3/6 32/3/6
f 32/3/6 30/3/6 33/3/6
f 31/1/6 32/1/6 34/1/6
f 32/2/6 33/2/6 34/2/6
f 33/3/6 30/3/6 35/3/6
f 34/2/6 33/2/6 35/2/6
f 31/1/6 34/1/6 36/1/6
f 34/1/6 35/1/6 36/1/6
f 36/1/6 35/1/6 37/1/6
f 31/1/6 36/1/6 38/1/6
f 36/2/6 37/2/6 38/2/6
f 37/1/6 35/1/6 39/1/6
f 38/2/6 37/2/6 39/2/6
f 38/1/6 39/1/6 40/1/6
f 39/1/6 35/1/6 40/1/6
f 40/1/6 35/1/6 41/1/6
f 38/1/6 40/1/6 42/1/6
f 40/2/6 41/2/6 42/2/6
f 41/1/6 35/1/6 43/1/6
f 42/2/6 41/2/6 43/2/6
f 38/1/6 42/1/6 44/1/6
f 42/1/6 43/1/6 44/1/6
f 44/1/6 43/1/6 45/1/6
f 38/1/6 44/1/6 46/1/6
f 44/2/6 45/2/6 46/2/6
f 45/1/6 43/1/6 47/1/6
f 46/2/6 45/2/6 47/2/6
f 29/3/6 31/3/6 48/3/6
f 31/1/6 38/1/6 48/1/6
f 46/1/6 47/1/6 48/1/6
f 38/1/6 46/1/6 48/1/6
f 47/1/6 43/1/6 49/1/6
f 48/1/6 47/1/6 49/1/6
f 35/3/6 30/3/6 49/3/6
f 43/1/6 35/1/6 49/1/6
f 29/3/6 48/3/6 50/3/6
f 48/3/6 49/3/6 50/3/6
f 49/3/6 30/3/6 51/3/6
f 50/3/6 49/3/6 51/3/6
