# Blender v2.80 (sub 75) OBJ File: ''
# www.blender.org
mtllib Park side.mtl
o Park_side.001
v -2.000000 -0.150000 2.000000
v -2.000000 -0.350000 1.400000
v -2.000000 -0.350000 2.000000
v -2.000000 -0.150000 1.400000
v -2.000000 -0.350000 -2.000000
v -2.000000 -0.050000 2.000000
v -2.000000 -0.050000 1.400000
v -2.000000 -0.050000 -2.000000
v -2.000000 0.350000 2.000000
v -2.000000 0.350000 1.400000
v 2.000000 -0.350000 2.000000
v 2.000000 -0.350000 -2.000000
v 2.000000 -0.150000 2.000000
v 2.000000 -0.150000 1.400000
v 2.000000 -0.150000 -2.000000
v 2.000000 -0.050000 2.000000
v 2.000000 -0.050000 1.400000
v 2.000000 -0.050000 -2.000000
v 2.000000 0.350000 2.000000
v 2.000000 0.350000 1.400000
v 2.000000 -0.350000 2.000000
v -2.000000 -0.150000 2.000000
v -2.000000 -0.350000 2.000000
v 2.000000 -0.150000 2.000000
v -2.000000 -0.050000 2.000000
v 2.000000 -0.050000 2.000000
v -2.000000 0.350000 2.000000
v 2.000000 0.350000 2.000000
v -2.000000 -0.050000 1.400000
v -2.000000 0.350000 1.400000
v 2.000000 -0.050000 1.400000
v 2.000000 0.350000 1.400000
v -2.000000 -0.350000 -2.000000
v -2.000000 -0.050000 -2.000000
v 1.400000 -0.350000 -2.000000
v 1.400000 -0.150000 -2.000000
v 2.000000 -0.350000 -2.000000
v 2.000000 -0.150000 -2.000000
v 2.000000 -0.050000 -2.000000
v -2.000000 -0.350000 1.400000
v 2.000000 -0.350000 2.000000
v -2.000000 -0.350000 2.000000
v 1.400000 -0.350000 1.400000
v -2.000000 -0.350000 -2.000000
v 1.400000 -0.350000 -2.000000
v 2.000000 -0.350000 -2.000000
v -2.000000 -0.050000 1.400000
v 2.000000 -0.050000 1.400000
v -2.000000 -0.050000 -2.000000
v 2.000000 -0.050000 -2.000000
v -2.000000 0.350000 2.000000
v 2.000000 0.350000 2.000000
v -2.000000 0.350000 1.400000
v 2.000000 0.350000 1.400000
vt 0.974609 0.500000
vt 0.974609 0.500000
vt 0.974609 0.500000
vt 0.482422 0.500000
vt 0.482422 0.500000
vt 0.482422 0.500000
vt 0.974609 0.500000
vt 0.904297 0.500000
vt 0.904297 0.500000
vt 0.904297 0.500000
vt 0.482422 0.500000
vt 0.904297 0.500000
vt 0.482422 0.500000
vt 0.908203 0.500000
vt 0.908203 0.500000
vt 0.908203 0.500000
vt 0.908203 0.500000
vt 0.974609 0.500000
vt 0.974609 0.500000
vt 0.974609 0.500000
vt 0.974609 0.500000
vt 0.974609 0.500000
vt 0.904297 0.500000
vt 0.904297 0.500000
vt 0.904297 0.500000
vt 0.482422 0.500000
vt 0.482422 0.500000
vt 0.482422 0.500000
vt 0.904297 0.500000
vt 0.482422 0.500000
vt 0.908203 0.500000
vt 0.908203 0.500000
vt 0.908203 0.500000
vt 0.908203 0.500000
vt 0.974609 0.500000
vt 0.974609 0.500000
vt 0.974609 0.500000
vt 0.904297 0.500000
vt 0.904297 0.500000
vt 0.904297 0.500000
vt 0.974609 0.500000
vt 0.908203 0.500000
vt 0.908203 0.500000
vt 0.908203 0.500000
vt 0.904297 0.500000
vt 0.908203 0.500000
vt 0.908203 0.500000
vt 0.908203 0.500000
vt 0.908203 0.500000
vt 0.908203 0.500000
vt 0.482422 0.500000
vt 0.482422 0.500000
vt 0.482422 0.500000
vt 0.482422 0.500000
vt 0.974609 0.500000
vt 0.974609 0.500000
vt 0.974609 0.500000
vt 0.482422 0.500000
vt 0.974609 0.500000
vt 0.482422 0.500000
vt 0.974609 0.500000
vt 0.974609 0.500000
vt 0.974609 0.500000
vt 0.974609 0.500000
vt 0.482422 0.500000
vt 0.482422 0.500000
vt 0.482422 0.500000
vt 0.974609 0.500000
vt 0.482422 0.500000
vt 0.974609 0.500000
vt 0.482422 0.500000
vt 0.482422 0.500000
vt 0.482422 0.500000
vt 0.482422 0.500000
vt 0.908203 0.500000
vt 0.908203 0.500000
vt 0.908203 0.500000
vt 0.908203 0.500000
vn -1.0000 0.0000 0.0000
vn 1.0000 0.0000 0.0000
vn 0.0000 0.0000 1.0000
vn 0.0000 0.0000 -1.0000
vn 0.0000 -1.0000 -0.0000
vn 0.0000 1.0000 0.0000
usemtl palette.010
s 1
f 1/1/1 2/2/1 3/3/1
f 4/4/1 5/5/1 2/6/1
f 4/7/1 2/2/1 1/1/1
f 6/8/1 4/9/1 1/10/1
f 7/11/1 5/5/1 4/4/1
f 7/12/1 4/9/1 6/8/1
f 8/13/1 5/5/1 7/11/1
f 9/14/1 7/15/1 6/16/1
f 10/17/1 7/15/1 9/14/1
f 11/18/2 12/19/2 13/20/2
f 13/20/2 12/19/2 14/21/2
f 14/21/2 12/19/2 15/22/2
f 13/23/2 14/24/2 16/25/2
f 14/26/2 15/27/2 17/28/2
f 16/25/2 14/24/2 17/29/2
f 17/28/2 15/27/2 18/30/2
f 16/31/2 17/32/2 19/33/2
f 19/33/2 17/32/2 20/34/2
f 21/35/3 22/36/3 23/37/3
f 24/38/3 25/39/3 22/40/3
f 24/41/3 22/36/3 21/35/3
f 26/42/3 27/43/3 25/44/3
f 26/45/3 25/39/3 24/38/3
f 28/46/3 27/43/3 26/42/3
f 29/47/4 30/48/4 31/49/4
f 31/49/4 30/48/4 32/50/4
f 33/51/4 34/52/4 35/53/4
f 35/53/4 34/52/4 36/54/4
f 35/55/4 36/56/4 37/57/4
f 36/54/4 34/52/4 38/58/4
f 37/57/4 36/56/4 38/59/4
f 38/58/4 34/52/4 39/60/4
f 40/61/5 41/62/5 42/63/5
f 43/64/5 41/62/5 40/61/5
f 44/65/5 43/66/5 40/67/5
f 45/68/5 41/62/5 43/64/5
f 45/69/5 43/66/5 44/65/5
f 46/70/5 41/62/5 45/68/5
f 47/71/6 48/72/6 49/73/6
f 49/73/6 48/72/6 50/74/6
f 51/75/6 52/76/6 53/77/6
f 53/77/6 52/76/6 54/78/6
