# MagicaVoxel @ Ephtracy

# group
o 

# material
mtllib Park middle.mtl
usemtl palette

# normals
vn -1 0 0
vn 1 0 0
vn 0 0 1
vn 0 0 -1
vn 0 -1 0
vn 0 1 0

# texcoords
vt 0.431641 0.5
vt 0.435547 0.5
vt 0.439453 0.5
vt 0.455078 0.5
vt 0.458984 0.5
vt 0.884766 0.5
vt 0.892578 0.5
vt 0.974609 0.5

# verts
v -2 0 2
v -2 0 -2
v -2 0.2 2
v -2 0.2 -2
v -2 0.3 2
v -2 0.3 -2
v 2 0 2
v 2 0 -2
v 2 0.2 2
v 2 0.2 -2
v 2 0.3 2
v 2 0.3 -2
v -2 0 2
v -2 0.2 2
v -2 0.3 2
v 2 0 2
v 2 0.2 2
v 2 0.3 2
v -2 0 -2
v -2 0.2 -2
v -2 0.3 -2
v 2 0 -2
v 2 0.2 -2
v 2 0.3 -2
v -2 0 2
v 2 0 2
v -2 0 -2
v 2 0 -2
v -2 0.3 2
v 2 0.3 2
v 0.8 0.3 1.2
v 0.9 0.3 1.2
v -0.7 0.3 1.1
v -0.4 0.3 1.1
v 0.8 0.3 1.1
v 0.9 0.3 1.1
v 0.8 0.3 1
v 0.9 0.3 1
v 0.8 0.3 0.9
v 0.9 0.3 0.9
v -0.7 0.3 0.8
v -0.4 0.3 0.8
v 0.6 0.3 0.7
v 0.9 0.3 0.7
v 0.6 0.3 0.6
v 0.9 0.3 0.6
v -1.5 0.3 -0.1
v -1.2 0.3 -0.1
v -1.5 0.3 -0.4
v -1.2 0.3 -0.4
v 1.3 0.3 -0.5
v 1.7 0.3 -0.5
v 1.3 0.3 -0.7
v 1.7 0.3 -0.7
v 0.5 0.3 -1.2
v 0.8 0.3 -1.2
v -1.5 0.3 -1.4
v -1.4 0.3 -1.4
v -1 0.3 -1.4
v -0.7 0.3 -1.4
v -1.5 0.3 -1.5
v -1.4 0.3 -1.5
v -1 0.3 -1.5
v -0.7 0.3 -1.5
v 0.5 0.3 -1.5
v 0.8 0.3 -1.5
v -2 0.3 -2
v 2 0.3 -2

# faces
f 3/8/1 2/8/1 1/8/1
f 4/8/1 2/8/1 3/8/1
f 5/5/1 4/5/1 3/5/1
f 6/5/1 4/5/1 5/5/1
f 7/8/2 8/8/2 9/8/2
f 9/8/2 8/8/2 10/8/2
f 9/5/2 10/5/2 11/5/2
f 11/5/2 10/5/2 12/5/2
f 16/8/3 14/8/3 13/8/3
f 17/5/3 15/5/3 14/5/3
f 17/8/3 14/8/3 16/8/3
f 18/5/3 15/5/3 17/5/3
f 19/8/4 20/8/4 22/8/4
f 20/5/4 21/5/4 23/5/4
f 22/8/4 20/8/4 23/8/4
f 23/5/4 21/5/4 24/5/4
f 27/8/5 26/8/5 25/8/5
f 28/8/5 26/8/5 27/8/5
f 29/5/6 30/5/6 31/5/6
f 31/5/6 30/5/6 32/5/6
f 29/5/6 31/5/6 33/5/6
f 33/5/6 31/5/6 34/5/6
f 31/2/6 32/2/6 35/2/6
f 34/5/6 31/5/6 35/5/6
f 32/5/6 30/5/6 36/5/6
f 35/2/6 32/2/6 36/2/6
f 34/5/6 35/5/6 37/5/6
f 35/5/6 36/5/6 37/5/6
f 36/5/6 30/5/6 38/5/6
f 37/5/6 36/5/6 38/5/6
f 34/5/6 37/5/6 39/5/6
f 37/2/6 38/2/6 39/2/6
f 38/5/6 30/5/6 40/5/6
f 39/2/6 38/2/6 40/2/6
f 33/6/6 34/6/6 41/6/6
f 29/5/6 33/5/6 41/5/6
f 34/5/6 39/5/6 42/5/6
f 41/6/6 34/6/6 42/6/6
f 39/5/6 40/5/6 42/5/6
f 41/5/6 42/5/6 43/5/6
f 42/5/6 40/5/6 43/5/6
f 40/5/6 30/5/6 44/5/6
f 43/5/6 40/5/6 44/5/6
f 41/5/6 43/5/6 45/5/6
f 43/2/6 44/2/6 45/2/6
f 44/5/6 30/5/6 46/5/6
f 45/2/6 44/2/6 46/2/6
f 29/5/6 41/5/6 47/5/6
f 41/5/6 45/5/6 47/5/6
f 45/5/6 46/5/6 47/5/6
f 47/5/6 46/5/6 48/5/6
f 29/5/6 47/5/6 49/5/6
f 47/7/6 48/7/6 49/7/6
f 48/5/6 46/5/6 50/5/6
f 49/7/6 48/7/6 50/7/6
f 46/5/6 30/5/6 51/5/6
f 50/5/6 46/5/6 51/5/6
f 49/5/6 50/5/6 51/5/6
f 51/5/6 30/5/6 52/5/6
f 49/5/6 51/5/6 53/5/6
f 51/3/6 52/3/6 53/3/6
f 52/5/6 30/5/6 54/5/6
f 53/3/6 52/3/6 54/3/6
f 49/5/6 53/5/6 55/5/6
f 53/5/6 54/5/6 55/5/6
f 55/5/6 54/5/6 56/5/6
f 29/5/6 49/5/6 57/5/6
f 49/5/6 55/5/6 57/5/6
f 57/5/6 55/5/6 58/5/6
f 58/5/6 55/5/6 59/5/6
f 59/5/6 55/5/6 60/5/6
f 29/5/6 57/5/6 61/5/6
f 57/1/6 58/1/6 61/1/6
f 58/5/6 59/5/6 62/5/6
f 61/1/6 58/1/6 62/1/6
f 59/1/6 60/1/6 63/1/6
f 62/5/6 59/5/6 63/5/6
f 60/5/6 55/5/6 64/5/6
f 63/1/6 60/1/6 64/1/6
f 55/4/6 56/4/6 65/4/6
f 64/5/6 55/5/6 65/5/6
f 56/5/6 54/5/6 66/5/6
f 65/4/6 56/4/6 66/4/6
f 64/5/6 65/5/6 67/5/6
f 63/5/6 64/5/6 67/5/6
f 65/5/6 66/5/6 67/5/6
f 29/5/6 61/5/6 67/5/6
f 61/5/6 62/5/6 67/5/6
f 62/5/6 63/5/6 67/5/6
f 66/5/6 54/5/6 68/5/6
f 67/5/6 66/5/6 68/5/6
f 54/5/6 30/5/6 68/5/6
