# MagicaVoxel @ Ephtracy

# group
o 

# material
mtllib Rare Park.mtl
usemtl palette

# normals
vn -1 0 0
vn 1 0 0
vn 0 0 1
vn 0 0 -1
vn 0 -1 0
vn 0 1 0

# texcoords
vt 0.724609 0.5
vt 0.744141 0.5
vt 0.748047 0.5
vt 0.880859 0.5
vt 0.884766 0.5
vt 0.888672 0.5
vt 0.892578 0.5
vt 0.896484 0.5
vt 0.962891 0.5

# verts
v -2 0 2
v -2 0 -2
v -2 0.2 2
v -2 0.2 -2
v -2 0.3 2
v -2 0.3 -2
v 2 0 2
v 2 0 -2
v 2 0.2 2
v 2 0.2 -2
v 2 0.3 2
v 2 0.3 -2
v -2 0 2
v -2 0.2 2
v -2 0.3 2
v 2 0 2
v 2 0.2 2
v 2 0.3 2
v -2 0 -2
v -2 0.2 -2
v -2 0.3 -2
v 2 0 -2
v 2 0.2 -2
v 2 0.3 -2
v -2 0 2
v 2 0 2
v -2 0 -2
v 2 0 -2
v -2 0.3 2
v 2 0.3 2
v -1.9 0.3 1.9
v -0.6 0.3 1.9
v 0.1 0.3 1.9
v 0.9 0.3 1.9
v 1.9 0.3 1.9
v 0.1 0.3 1.5
v 0.9 0.3 1.5
v 0.9 0.3 1
v 1.9 0.3 1
v -1.9 0.3 0.8
v -0.6 0.3 0.8
v -1.6 0.3 0.4
v -1.5 0.3 0.4
v -1.6 0.3 0.3
v -1.5 0.3 0.3
v -0.8 0.3 0.2
v 0.7 0.3 0.2
v 0.7 0.3 -0.3
v 1.9 0.3 -0.3
v -1.9 0.3 -0.7
v -1.1 0.3 -0.7
v -0.8 0.3 -0.9
v -0.3 0.3 -0.9
v 0.7 0.3 -0.9
v -1.9 0.3 -1.9
v -1.1 0.3 -1.9
v -0.3 0.3 -1.9
v 0.7 0.3 -1.9
v 1.9 0.3 -1.9
v -2 0.3 -2
v 2 0.3 -2

# faces
f 3/9/1 2/9/1 1/9/1
f 4/9/1 2/9/1 3/9/1
f 5/6/1 4/6/1 3/6/1
f 6/6/1 4/6/1 5/6/1
f 7/9/2 8/9/2 9/9/2
f 9/9/2 8/9/2 10/9/2
f 9/6/2 10/6/2 11/6/2
f 11/6/2 10/6/2 12/6/2
f 16/9/3 14/9/3 13/9/3
f 17/6/3 15/6/3 14/6/3
f 17/9/3 14/9/3 16/9/3
f 18/6/3 15/6/3 17/6/3
f 19/9/4 20/9/4 22/9/4
f 20/6/4 21/6/4 23/6/4
f 22/9/4 20/9/4 23/9/4
f 23/6/4 21/6/4 24/6/4
f 27/9/5 26/9/5 25/9/5
f 28/9/5 26/9/5 27/9/5
f 29/6/6 30/6/6 31/6/6
f 31/6/6 30/6/6 32/6/6
f 32/6/6 30/6/6 33/6/6
f 33/6/6 30/6/6 34/6/6
f 34/6/6 30/6/6 35/6/6
f 32/4/6 33/4/6 36/4/6
f 33/8/6 34/8/6 36/8/6
f 34/2/6 35/2/6 37/2/6
f 36/8/6 34/8/6 37/8/6
f 36/4/6 37/4/6 38/4/6
f 37/2/6 35/2/6 38/2/6
f 35/6/6 30/6/6 39/6/6
f 38/2/6 35/2/6 39/2/6
f 29/6/6 31/6/6 40/6/6
f 31/3/6 32/3/6 40/3/6
f 38/4/6 39/4/6 41/4/6
f 40/3/6 32/3/6 41/3/6
f 36/4/6 38/4/6 41/4/6
f 32/4/6 36/4/6 41/4/6
f 40/4/6 41/4/6 42/4/6
f 42/4/6 41/4/6 43/4/6
f 40/4/6 42/4/6 44/4/6
f 42/5/6 43/5/6 44/5/6
f 43/4/6 41/4/6 45/4/6
f 44/5/6 43/5/6 45/5/6
f 44/4/6 45/4/6 46/4/6
f 45/4/6 41/4/6 46/4/6
f 41/4/6 39/4/6 47/4/6
f 46/4/6 41/4/6 47/4/6
f 46/5/6 47/5/6 48/5/6
f 47/4/6 39/4/6 48/4/6
f 39/6/6 30/6/6 49/6/6
f 48/4/6 39/4/6 49/4/6
f 29/6/6 40/6/6 50/6/6
f 44/4/6 46/4/6 50/4/6
f 40/4/6 44/4/6 50/4/6
f 50/4/6 46/4/6 51/4/6
f 46/5/6 48/5/6 52/5/6
f 51/4/6 46/4/6 52/4/6
f 52/5/6 48/5/6 53/5/6
f 48/7/6 49/7/6 54/7/6
f 53/5/6 48/5/6 54/5/6
f 50/1/6 51/1/6 55/1/6
f 29/6/6 50/6/6 55/6/6
f 52/4/6 53/4/6 56/4/6
f 55/1/6 51/1/6 56/1/6
f 51/4/6 52/4/6 56/4/6
f 53/8/6 54/8/6 57/8/6
f 56/4/6 53/4/6 57/4/6
f 54/7/6 49/7/6 58/7/6
f 57/8/6 54/8/6 58/8/6
f 49/6/6 30/6/6 59/6/6
f 58/7/6 49/7/6 59/7/6
f 56/6/6 57/6/6 60/6/6
f 57/6/6 58/6/6 60/6/6
f 58/6/6 59/6/6 60/6/6
f 55/6/6 56/6/6 60/6/6
f 29/6/6 55/6/6 60/6/6
f 59/6/6 30/6/6 61/6/6
f 60/6/6 59/6/6 61/6/6
