# Blender v2.80 (sub 75) OBJ File: ''
# www.blender.org
mtllib Road new intersection.mtl
o Road_new_intersection.001
v -2.000000 0.049999 2.000000
v -2.000000 -0.149999 -2.000000
v -2.000000 -0.150001 2.000000
v -2.000000 0.050001 -2.000000
v -2.000000 0.149999 2.000000
v -2.000000 0.150001 -2.000000
v 2.000000 -0.150001 2.000000
v 2.000000 -0.149999 -2.000000
v 2.000000 0.049999 2.000000
v 2.000000 0.050001 -2.000000
v 2.000000 0.149999 2.000000
v 2.000000 0.150001 -2.000000
v 2.000000 -0.150001 2.000000
v -2.000000 0.049999 2.000000
v -2.000000 -0.150001 2.000000
v 2.000000 0.049999 2.000000
v -2.000000 0.149999 2.000000
v 2.000000 0.149999 2.000000
v -2.000000 -0.149999 -2.000000
v -2.000000 0.050001 -2.000000
v 2.000000 -0.149999 -2.000000
v -2.000000 0.150001 -2.000000
v 2.000000 0.050001 -2.000000
v 2.000000 0.150001 -2.000000
v -2.000000 -0.149999 -2.000000
v 2.000000 -0.150001 2.000000
v -2.000000 -0.150001 2.000000
v 2.000000 -0.149999 -2.000000
v -2.000000 0.149999 2.000000
v 2.000000 0.149999 2.000000
v -1.800000 0.149999 -0.000001
v -1.700000 0.149999 -0.000001
v -1.300000 0.149999 -0.000001
v -1.200000 0.149999 -0.000001
v -0.800000 0.149999 -0.000001
v -0.700000 0.149999 -0.000001
v -0.300000 0.149999 -0.000001
v -0.200000 0.149999 -0.000001
v 0.200000 0.149999 -0.000001
v 0.300000 0.149999 -0.000001
v 0.700000 0.149999 -0.000001
v 0.800000 0.149999 -0.000001
v 1.200000 0.149999 -0.000001
v 1.300000 0.149999 -0.000001
v 1.700000 0.149999 -0.000001
v 1.800000 0.149999 -0.000001
v -1.800000 0.150001 -0.900001
v -1.700000 0.150001 -0.900001
v -1.300000 0.150001 -0.900001
v -1.200000 0.150001 -0.900001
v -0.800000 0.150001 -0.900001
v -0.700000 0.150001 -0.900001
v -0.300000 0.150001 -0.900001
v -0.200000 0.150001 -0.900001
v 0.200000 0.150001 -0.900001
v 0.300000 0.150001 -0.900001
v 0.700000 0.150001 -0.900001
v 0.800000 0.150001 -0.900001
v 1.200000 0.150001 -0.900001
v 1.300000 0.150001 -0.900001
v 1.700000 0.150001 -0.900001
v 1.800000 0.150001 -0.900001
v -2.000000 0.150001 -2.000000
v 2.000000 0.150001 -2.000000
vt 0.962891 0.500000
vt 0.962891 0.500000
vt 0.962891 0.500000
vt 0.962891 0.500000
vt 0.982422 0.500000
vt 0.982422 0.500000
vt 0.982422 0.500000
vt 0.982422 0.500000
vt 0.962891 0.500000
vt 0.962891 0.500000
vt 0.962891 0.500000
vt 0.962891 0.500000
vt 0.982422 0.500000
vt 0.982422 0.500000
vt 0.982422 0.500000
vt 0.982422 0.500000
vt 0.962891 0.500000
vt 0.962891 0.500000
vt 0.962891 0.500000
vt 0.982422 0.500000
vt 0.982422 0.500000
vt 0.982422 0.500000
vt 0.962891 0.500000
vt 0.982422 0.500000
vt 0.962891 0.500000
vt 0.962891 0.500000
vt 0.962891 0.500000
vt 0.982422 0.500000
vt 0.982422 0.500000
vt 0.982422 0.500000
vt 0.962891 0.500000
vt 0.982422 0.500000
vt 0.962891 0.500000
vt 0.962891 0.500000
vt 0.962891 0.500000
vt 0.962891 0.500000
vt 0.982422 0.500000
vt 0.982422 0.500000
vt 0.982422 0.500000
vt 0.982422 0.500000
vt 0.982422 0.500000
vt 0.982422 0.500000
vt 0.982422 0.500000
vt 0.982422 0.500000
vt 0.982422 0.500000
vt 0.982422 0.500000
vt 0.982422 0.500000
vt 0.982422 0.500000
vt 0.982422 0.500000
vt 0.982422 0.500000
vt 0.982422 0.500000
vt 0.982422 0.500000
vt 0.982422 0.500000
vt 0.982422 0.500000
vt 0.982422 0.500000
vt 0.958984 0.500000
vt 0.958984 0.500000
vt 0.958984 0.500000
vt 0.982422 0.500000
vt 0.958984 0.500000
vt 0.958984 0.500000
vt 0.958984 0.500000
vt 0.958984 0.500000
vt 0.982422 0.500000
vt 0.982422 0.500000
vt 0.958984 0.500000
vt 0.958984 0.500000
vt 0.958984 0.500000
vt 0.958984 0.500000
vt 0.982422 0.500000
vt 0.982422 0.500000
vt 0.958984 0.500000
vt 0.958984 0.500000
vt 0.958984 0.500000
vt 0.958984 0.500000
vt 0.982422 0.500000
vt 0.982422 0.500000
vt 0.958984 0.500000
vt 0.958984 0.500000
vt 0.958984 0.500000
vt 0.958984 0.500000
vt 0.982422 0.500000
vt 0.982422 0.500000
vt 0.958984 0.500000
vt 0.958984 0.500000
vt 0.958984 0.500000
vt 0.958984 0.500000
vt 0.982422 0.500000
vt 0.982422 0.500000
vt 0.958984 0.500000
vt 0.958984 0.500000
vt 0.958984 0.500000
vt 0.958984 0.500000
vt 0.982422 0.500000
vt 0.982422 0.500000
vt 0.958984 0.500000
vt 0.958984 0.500000
vt 0.958984 0.500000
vt 0.958984 0.500000
vt 0.982422 0.500000
vt 0.982422 0.500000
vt 0.958984 0.500000
vt 0.982422 0.500000
vt 0.982422 0.500000
vn -1.0000 0.0000 0.0000
vn 1.0000 0.0000 0.0000
vn 0.0000 0.0000 1.0000
vn 0.0000 0.0000 -1.0000
vn 0.0000 -1.0000 -0.0000
vn 0.0000 1.0000 0.0000
usemtl palette.004
s 1
f 1/1/1 2/2/1 3/3/1
f 4/4/1 2/2/1 1/1/1
f 5/5/1 4/6/1 1/7/1
f 6/8/1 4/6/1 5/5/1
f 7/9/2 8/10/2 9/11/2
f 9/11/2 8/10/2 10/12/2
f 9/13/2 10/14/2 11/15/2
f 11/15/2 10/14/2 12/16/2
f 13/17/3 14/18/3 15/19/3
f 16/20/3 17/21/3 14/22/3
f 16/23/3 14/18/3 13/17/3
f 18/24/3 17/21/3 16/20/3
f 19/25/4 20/26/4 21/27/4
f 20/28/4 22/29/4 23/30/4
f 21/27/4 20/26/4 23/31/4
f 23/30/4 22/29/4 24/32/4
f 25/33/5 26/34/5 27/35/5
f 28/36/5 26/34/5 25/33/5
f 29/37/6 30/38/6 31/39/6
f 31/39/6 30/38/6 32/40/6
f 32/40/6 30/38/6 33/41/6
f 33/41/6 30/38/6 34/42/6
f 34/42/6 30/38/6 35/43/6
f 35/43/6 30/38/6 36/44/6
f 36/44/6 30/38/6 37/45/6
f 37/45/6 30/38/6 38/46/6
f 38/46/6 30/38/6 39/47/6
f 39/47/6 30/38/6 40/48/6
f 40/48/6 30/38/6 41/49/6
f 41/49/6 30/38/6 42/50/6
f 42/50/6 30/38/6 43/51/6
f 43/51/6 30/38/6 44/52/6
f 44/52/6 30/38/6 45/53/6
f 45/53/6 30/38/6 46/54/6
f 29/37/6 31/39/6 47/55/6
f 31/56/6 32/57/6 47/58/6
f 32/40/6 33/41/6 48/59/6
f 47/58/6 32/57/6 48/60/6
f 33/61/6 34/62/6 49/63/6
f 48/59/6 33/41/6 49/64/6
f 34/42/6 35/43/6 50/65/6
f 49/63/6 34/62/6 50/66/6
f 35/67/6 36/68/6 51/69/6
f 50/65/6 35/43/6 51/70/6
f 36/44/6 37/45/6 52/71/6
f 51/69/6 36/68/6 52/72/6
f 37/73/6 38/74/6 53/75/6
f 52/71/6 37/45/6 53/76/6
f 38/46/6 39/47/6 54/77/6
f 53/75/6 38/74/6 54/78/6
f 39/79/6 40/80/6 55/81/6
f 54/77/6 39/47/6 55/82/6
f 40/48/6 41/49/6 56/83/6
f 55/81/6 40/80/6 56/84/6
f 41/85/6 42/86/6 57/87/6
f 56/83/6 41/49/6 57/88/6
f 42/50/6 43/51/6 58/89/6
f 57/87/6 42/86/6 58/90/6
f 43/91/6 44/92/6 59/93/6
f 58/89/6 43/51/6 59/94/6
f 44/52/6 45/53/6 60/95/6
f 59/93/6 44/92/6 60/96/6
f 45/97/6 46/98/6 61/99/6
f 60/95/6 45/53/6 61/100/6
f 46/54/6 30/38/6 62/101/6
f 61/99/6 46/98/6 62/102/6
f 60/95/6 61/100/6 63/103/6
f 59/94/6 60/95/6 63/103/6
f 61/100/6 62/101/6 63/103/6
f 58/89/6 59/94/6 63/103/6
f 57/88/6 58/89/6 63/103/6
f 56/83/6 57/88/6 63/103/6
f 55/82/6 56/83/6 63/103/6
f 54/77/6 55/82/6 63/103/6
f 53/76/6 54/77/6 63/103/6
f 52/71/6 53/76/6 63/103/6
f 51/70/6 52/71/6 63/103/6
f 50/65/6 51/70/6 63/103/6
f 49/64/6 50/65/6 63/103/6
f 48/59/6 49/64/6 63/103/6
f 47/55/6 48/59/6 63/103/6
f 29/37/6 47/55/6 63/103/6
f 62/101/6 30/38/6 64/104/6
f 63/103/6 62/101/6 64/104/6
