# Blender v2.80 (sub 74) OBJ File: ''
# www.blender.org
mtllib Road Turn.mtl
o Road_Turn.004
v -2.000000 0.050000 2.000000
v -2.000000 -0.150000 -2.000000
v -2.000000 -0.150000 2.000000
v -2.000000 0.050000 -2.000000
v -2.000000 0.150000 2.000000
v -2.000000 0.150000 -2.000000
v 2.000000 -0.150000 2.000000
v 2.000000 -0.150000 -2.000000
v 2.000000 0.050000 2.000000
v 2.000000 0.050000 0.300000
v 2.000000 0.050000 0.200000
v 2.000000 0.050000 -0.300000
v 2.000000 0.050000 -0.400000
v 2.000000 0.050000 -2.000000
v 2.000000 0.150000 2.000000
v 2.000000 0.150000 0.300000
v 2.000000 0.150000 0.200000
v 2.000000 0.150000 -0.300000
v 2.000000 0.150000 -0.400000
v 2.000000 0.150000 -2.000000
v -0.400000 0.050000 2.000000
v -2.000000 0.050000 2.000000
v -2.000000 -0.150000 2.000000
v -2.000000 0.150000 2.000000
v -0.400000 0.150000 2.000000
v -0.300000 0.050000 2.000000
v -0.300000 0.150000 2.000000
v 0.200000 0.050000 2.000000
v 0.200000 0.150000 2.000000
v 0.300000 0.050000 2.000000
v 0.300000 0.150000 2.000000
v 2.000000 -0.150000 2.000000
v 2.000000 0.050000 2.000000
v 2.000000 0.150000 2.000000
v -2.000000 -0.150000 -2.000000
v -2.000000 0.050000 -2.000000
v 2.000000 -0.150000 -2.000000
v -2.000000 0.150000 -2.000000
v 2.000000 0.050000 -2.000000
v 2.000000 0.150000 -2.000000
v -2.000000 -0.150000 -2.000000
v 2.000000 -0.150000 2.000000
v -2.000000 -0.150000 2.000000
v 2.000000 -0.150000 -2.000000
v -0.300000 0.150000 2.000000
v 0.200000 0.150000 2.000000
v 0.200000 0.150000 0.500000
v 0.300000 0.150000 2.000000
v 2.000000 0.150000 2.000000
v 0.300000 0.150000 0.500000
v 0.400000 0.150000 0.500000
v 0.300000 0.150000 0.400000
v 0.400000 0.150000 0.400000
v 0.500000 0.150000 0.400000
v 0.400000 0.150000 0.300000
v 0.500000 0.150000 0.300000
v 2.000000 0.150000 0.300000
v 0.500000 0.150000 0.200000
v 2.000000 0.150000 0.200000
v -2.000000 0.150000 2.000000
v -0.400000 0.150000 2.000000
v -0.400000 0.150000 -0.100000
v -0.300000 0.150000 -0.100000
v -0.200000 0.150000 -0.100000
v -0.300000 0.150000 -0.200000
v -0.200000 0.150000 -0.200000
v -0.100000 0.150000 -0.200000
v -0.200000 0.150000 -0.300000
v -0.100000 0.150000 -0.300000
v 2.000000 0.150000 -0.300000
v -0.100000 0.150000 -0.400000
v 2.000000 0.150000 -0.400000
v -2.000000 0.150000 -2.000000
v 2.000000 0.150000 -2.000000
vt 0.962891 0.500000
vt 0.962891 0.500000
vt 0.962891 0.500000
vt 0.962891 0.500000
vt 0.982422 0.500000
vt 0.982422 0.500000
vt 0.982422 0.500000
vt 0.982422 0.500000
vt 0.962891 0.500000
vt 0.962891 0.500000
vt 0.962891 0.500000
vt 0.962891 0.500000
vt 0.962891 0.500000
vt 0.962891 0.500000
vt 0.962891 0.500000
vt 0.962891 0.500000
vt 0.982422 0.500000
vt 0.982422 0.500000
vt 0.982422 0.500000
vt 0.064453 0.500000
vt 0.064453 0.500000
vt 0.064453 0.500000
vt 0.982422 0.500000
vt 0.982422 0.500000
vt 0.982422 0.500000
vt 0.982422 0.500000
vt 0.064453 0.500000
vt 0.064453 0.500000
vt 0.064453 0.500000
vt 0.064453 0.500000
vt 0.982422 0.500000
vt 0.982422 0.500000
vt 0.982422 0.500000
vt 0.982422 0.500000
vt 0.064453 0.500000
vt 0.982422 0.500000
vt 0.962891 0.500000
vt 0.962891 0.500000
vt 0.962891 0.500000
vt 0.982422 0.500000
vt 0.982422 0.500000
vt 0.982422 0.500000
vt 0.982422 0.500000
vt 0.962891 0.500000
vt 0.064453 0.500000
vt 0.064453 0.500000
vt 0.064453 0.500000
vt 0.064453 0.500000
vt 0.962891 0.500000
vt 0.982422 0.500000
vt 0.982422 0.500000
vt 0.982422 0.500000
vt 0.982422 0.500000
vt 0.962891 0.500000
vt 0.064453 0.500000
vt 0.064453 0.500000
vt 0.064453 0.500000
vt 0.064453 0.500000
vt 0.962891 0.500000
vt 0.982422 0.500000
vt 0.982422 0.500000
vt 0.982422 0.500000
vt 0.962891 0.500000
vt 0.982422 0.500000
vt 0.962891 0.500000
vt 0.962891 0.500000
vt 0.962891 0.500000
vt 0.982422 0.500000
vt 0.982422 0.500000
vt 0.982422 0.500000
vt 0.962891 0.500000
vt 0.982422 0.500000
vt 0.962891 0.500000
vt 0.962891 0.500000
vt 0.962891 0.500000
vt 0.962891 0.500000
vt 0.982422 0.500000
vt 0.982422 0.500000
vt 0.982422 0.500000
vt 0.064453 0.500000
vt 0.064453 0.500000
vt 0.064453 0.500000
vt 0.982422 0.500000
vt 0.982422 0.500000
vt 0.982422 0.500000
vt 0.064453 0.500000
vt 0.982422 0.500000
vt 0.982422 0.500000
vt 0.064453 0.500000
vt 0.064453 0.500000
vt 0.982422 0.500000
vt 0.064453 0.500000
vt 0.982422 0.500000
vt 0.982422 0.500000
vt 0.064453 0.500000
vt 0.064453 0.500000
vt 0.982422 0.500000
vt 0.064453 0.500000
vt 0.982422 0.500000
vt 0.982422 0.500000
vt 0.064453 0.500000
vt 0.064453 0.500000
vt 0.064453 0.500000
vt 0.982422 0.500000
vt 0.982422 0.500000
vt 0.982422 0.500000
vt 0.064453 0.500000
vt 0.064453 0.500000
vt 0.064453 0.500000
vt 0.982422 0.500000
vt 0.982422 0.500000
vt 0.064453 0.500000
vt 0.982422 0.500000
vt 0.982422 0.500000
vt 0.064453 0.500000
vt 0.064453 0.500000
vt 0.982422 0.500000
vt 0.064453 0.500000
vt 0.982422 0.500000
vt 0.982422 0.500000
vt 0.064453 0.500000
vt 0.064453 0.500000
vt 0.982422 0.500000
vt 0.064453 0.500000
vt 0.982422 0.500000
vt 0.982422 0.500000
vt 0.064453 0.500000
vt 0.064453 0.500000
vt 0.064453 0.500000
vt 0.982422 0.500000
vt 0.982422 0.500000
vt 0.982422 0.500000
vn -1.0000 0.0000 0.0000
vn 1.0000 0.0000 0.0000
vn 0.0000 0.0000 1.0000
vn 0.0000 0.0000 -1.0000
vn 0.0000 -1.0000 -0.0000
vn -0.0000 1.0000 0.0000
usemtl palette.006
s 1
f 1/1/1 2/2/1 3/3/1
f 4/4/1 2/2/1 1/1/1
f 5/5/1 4/6/1 1/7/1
f 6/8/1 4/6/1 5/5/1
f 7/9/2 8/10/2 9/11/2
f 9/11/2 8/10/2 10/12/2
f 10/12/2 8/10/2 11/13/2
f 11/13/2 8/10/2 12/14/2
f 12/14/2 8/10/2 13/15/2
f 13/15/2 8/10/2 14/16/2
f 9/17/2 10/18/2 15/19/2
f 10/20/2 11/21/2 16/22/2
f 15/19/2 10/18/2 16/23/2
f 11/24/2 12/25/2 17/26/2
f 16/22/2 11/21/2 17/27/2
f 12/28/2 13/29/2 18/30/2
f 17/26/2 12/25/2 18/31/2
f 13/32/2 14/33/2 19/34/2
f 18/30/2 13/29/2 19/35/2
f 19/34/2 14/33/2 20/36/2
f 21/37/3 22/38/3 23/39/3
f 21/40/3 24/41/3 22/42/3
f 25/43/3 24/41/3 21/40/3
f 26/44/3 21/37/3 23/39/3
f 26/45/3 25/46/3 21/47/3
f 27/48/3 25/46/3 26/45/3
f 28/49/3 26/44/3 23/39/3
f 28/50/3 27/51/3 26/52/3
f 29/53/3 27/51/3 28/50/3
f 30/54/3 28/49/3 23/39/3
f 30/55/3 29/56/3 28/57/3
f 31/58/3 29/56/3 30/55/3
f 32/59/3 30/54/3 23/39/3
f 33/60/3 31/61/3 30/62/3
f 33/63/3 30/54/3 32/59/3
f 34/64/3 31/61/3 33/60/3
f 35/65/4 36/66/4 37/67/4
f 36/68/4 38/69/4 39/70/4
f 37/67/4 36/66/4 39/71/4
f 39/70/4 38/69/4 40/72/4
f 41/73/5 42/74/5 43/75/5
f 44/76/5 42/74/5 41/73/5
f 45/77/6 46/78/6 47/79/6
f 46/80/6 48/81/6 47/82/6
f 48/83/6 49/84/6 50/85/6
f 47/82/6 48/81/6 50/86/6
f 50/85/6 49/84/6 51/87/6
f 47/79/6 50/85/6 52/88/6
f 50/86/6 51/89/6 52/90/6
f 51/87/6 49/84/6 53/91/6
f 52/90/6 51/89/6 53/92/6
f 53/91/6 49/84/6 54/93/6
f 52/88/6 53/91/6 55/94/6
f 53/92/6 54/95/6 55/96/6
f 54/93/6 49/84/6 56/97/6
f 55/96/6 54/95/6 56/98/6
f 56/97/6 49/84/6 57/99/6
f 55/94/6 56/97/6 58/100/6
f 56/98/6 57/101/6 58/102/6
f 58/102/6 57/101/6 59/103/6
f 60/104/6 61/105/6 62/106/6
f 61/107/6 45/108/6 62/109/6
f 58/100/6 59/110/6 63/111/6
f 62/109/6 45/108/6 63/112/6
f 45/77/6 47/79/6 63/111/6
f 55/94/6 58/100/6 63/111/6
f 47/79/6 52/88/6 63/111/6
f 52/88/6 55/94/6 63/111/6
f 63/111/6 59/110/6 64/113/6
f 62/106/6 63/111/6 65/114/6
f 63/112/6 64/115/6 65/116/6
f 64/113/6 59/110/6 66/117/6
f 65/116/6 64/115/6 66/118/6
f 66/117/6 59/110/6 67/119/6
f 65/114/6 66/117/6 68/120/6
f 66/118/6 67/121/6 68/122/6
f 67/119/6 59/110/6 69/123/6
f 68/122/6 67/121/6 69/124/6
f 69/123/6 59/110/6 70/125/6
f 68/120/6 69/123/6 71/126/6
f 69/124/6 70/127/6 71/128/6
f 71/128/6 70/127/6 72/129/6
f 60/104/6 62/106/6 73/130/6
f 62/106/6 65/114/6 73/130/6
f 71/126/6 72/131/6 73/130/6
f 68/120/6 71/126/6 73/130/6
f 65/114/6 68/120/6 73/130/6
f 73/130/6 72/131/6 74/132/6
