# Blender v2.80 (sub 75) OBJ File: ''
# www.blender.org
mtllib Side walk 1-1.mtl
o Side_walk_1-1
v -2.000000 0.050000 2.000000
v -2.000000 -0.150000 -2.000000
v -2.000000 -0.150000 2.000000
v -2.000000 0.050000 -2.000000
v -2.000000 0.150000 2.000000
v -2.000000 0.150000 -2.000000
v 2.000000 -0.150000 2.000000
v 2.000000 -0.150000 -2.000000
v 2.000000 0.050000 2.000000
v 2.000000 0.050000 -2.000000
v 2.000000 0.150000 2.000000
v 2.000000 0.150000 -2.000000
v -1.800000 0.050000 2.000000
v -2.000000 0.050000 2.000000
v -2.000000 -0.150000 2.000000
v -2.000000 0.150000 2.000000
v -1.800000 0.150000 2.000000
v -1.600000 0.050000 2.000000
v -1.600000 0.150000 2.000000
v -1.000000 0.050000 2.000000
v -1.000000 0.150000 2.000000
v 2.000000 -0.150000 2.000000
v 2.000000 0.050000 2.000000
v 2.000000 0.150000 2.000000
v -2.000000 -0.150000 -2.000000
v -2.000000 0.050000 -2.000000
v -1.800000 0.050000 -2.000000
v -2.000000 0.150000 -2.000000
v -1.800000 0.150000 -2.000000
v -1.600000 0.050000 -2.000000
v -1.600000 0.150000 -2.000000
v -1.000000 0.050000 -2.000000
v -1.000000 0.150000 -2.000000
v 2.000000 -0.150000 -2.000000
v 2.000000 0.050000 -2.000000
v 2.000000 0.150000 -2.000000
v -2.000000 -0.150000 -2.000000
v 2.000000 -0.150000 2.000000
v -2.000000 -0.150000 2.000000
v 2.000000 -0.150000 -2.000000
v -2.000000 0.150000 2.000000
v -1.800000 0.150000 2.000000
v -2.000000 0.150000 -2.000000
v -1.600000 0.150000 2.000000
v -1.800000 0.150000 -2.000000
v -1.000000 0.150000 2.000000
v -1.600000 0.150000 -2.000000
v 2.000000 0.150000 2.000000
v -1.000000 0.150000 -2.000000
v 2.000000 0.150000 -2.000000
vt 0.962891 0.500000
vt 0.962891 0.500000
vt 0.962891 0.500000
vt 0.962891 0.500000
vt 0.966797 0.500000
vt 0.966797 0.500000
vt 0.966797 0.500000
vt 0.966797 0.500000
vt 0.962891 0.500000
vt 0.962891 0.500000
vt 0.962891 0.500000
vt 0.962891 0.500000
vt 0.966797 0.500000
vt 0.966797 0.500000
vt 0.966797 0.500000
vt 0.966797 0.500000
vt 0.962891 0.500000
vt 0.962891 0.500000
vt 0.962891 0.500000
vt 0.966797 0.500000
vt 0.966797 0.500000
vt 0.966797 0.500000
vt 0.966797 0.500000
vt 0.962891 0.500000
vt 0.982422 0.500000
vt 0.982422 0.500000
vt 0.982422 0.500000
vt 0.982422 0.500000
vt 0.962891 0.500000
vt 0.974609 0.500000
vt 0.974609 0.500000
vt 0.974609 0.500000
vt 0.974609 0.500000
vt 0.962891 0.500000
vt 0.966797 0.500000
vt 0.966797 0.500000
vt 0.966797 0.500000
vt 0.962891 0.500000
vt 0.966797 0.500000
vt 0.962891 0.500000
vt 0.962891 0.500000
vt 0.962891 0.500000
vt 0.966797 0.500000
vt 0.966797 0.500000
vt 0.966797 0.500000
vt 0.966797 0.500000
vt 0.962891 0.500000
vt 0.982422 0.500000
vt 0.982422 0.500000
vt 0.982422 0.500000
vt 0.982422 0.500000
vt 0.962891 0.500000
vt 0.974609 0.500000
vt 0.974609 0.500000
vt 0.974609 0.500000
vt 0.974609 0.500000
vt 0.962891 0.500000
vt 0.966797 0.500000
vt 0.966797 0.500000
vt 0.966797 0.500000
vt 0.962891 0.500000
vt 0.966797 0.500000
vt 0.962891 0.500000
vt 0.962891 0.500000
vt 0.962891 0.500000
vt 0.962891 0.500000
vt 0.966797 0.500000
vt 0.966797 0.500000
vt 0.966797 0.500000
vt 0.982422 0.500000
vt 0.982422 0.500000
vt 0.982422 0.500000
vt 0.966797 0.500000
vt 0.974609 0.500000
vt 0.974609 0.500000
vt 0.974609 0.500000
vt 0.982422 0.500000
vt 0.966797 0.500000
vt 0.966797 0.500000
vt 0.966797 0.500000
vt 0.974609 0.500000
vt 0.966797 0.500000
vn -1.0000 0.0000 0.0000
vn 1.0000 0.0000 0.0000
vn 0.0000 0.0000 1.0000
vn 0.0000 0.0000 -1.0000
vn 0.0000 -1.0000 -0.0000
vn 0.0000 1.0000 0.0000
usemtl palette.005
s 1
f 1/1/1 2/2/1 3/3/1
f 4/4/1 2/2/1 1/1/1
f 5/5/1 4/6/1 1/7/1
f 6/8/1 4/6/1 5/5/1
f 7/9/2 8/10/2 9/11/2
f 9/11/2 8/10/2 10/12/2
f 9/13/2 10/14/2 11/15/2
f 11/15/2 10/14/2 12/16/2
f 13/17/3 14/18/3 15/19/3
f 13/20/3 16/21/3 14/22/3
f 17/23/3 16/21/3 13/20/3
f 18/24/3 13/17/3 15/19/3
f 18/25/3 17/26/3 13/27/3
f 19/28/3 17/26/3 18/25/3
f 20/29/3 18/24/3 15/19/3
f 20/30/3 19/31/3 18/32/3
f 21/33/3 19/31/3 20/30/3
f 22/34/3 20/29/3 15/19/3
f 23/35/3 21/36/3 20/37/3
f 23/38/3 20/29/3 22/34/3
f 24/39/3 21/36/3 23/35/3
f 25/40/4 26/41/4 27/42/4
f 26/43/4 28/44/4 27/45/4
f 27/45/4 28/44/4 29/46/4
f 25/40/4 27/42/4 30/47/4
f 27/48/4 29/49/4 30/50/4
f 30/50/4 29/49/4 31/51/4
f 25/40/4 30/47/4 32/52/4
f 30/53/4 31/54/4 32/55/4
f 32/55/4 31/54/4 33/56/4
f 25/40/4 32/52/4 34/57/4
f 32/58/4 33/59/4 35/60/4
f 34/57/4 32/52/4 35/61/4
f 35/60/4 33/59/4 36/62/4
f 37/63/5 38/64/5 39/65/5
f 40/66/5 38/64/5 37/63/5
f 41/67/6 42/68/6 43/69/6
f 42/70/6 44/71/6 45/72/6
f 43/69/6 42/68/6 45/73/6
f 44/74/6 46/75/6 47/76/6
f 45/72/6 44/71/6 47/77/6
f 46/78/6 48/79/6 49/80/6
f 47/76/6 46/75/6 49/81/6
f 49/80/6 48/79/6 50/82/6
