# MagicaVoxel @ Ephtracy

# group
o 

# material
mtllib Side walk 1-1.mtl
usemtl palette

# normals
vn -1 0 0
vn 1 0 0
vn 0 0 1
vn 0 0 -1
vn 0 -1 0
vn 0 1 0

# texcoords
vt 0.962891 0.5
vt 0.966797 0.5
vt 0.970703 0.5
vt 0.974609 0.5
vt 0.982422 0.5

# verts
v -2 0 2
v -2 0 -2
v -2 0.2 2
v -2 0.2 -2
v -2 0.3 2
v -2 0.3 -2
v 2 0 2
v 2 0 -2
v 2 0.2 2
v 2 0.2 -2
v 2 0.3 2
v 2 0.3 -2
v -2 0 2
v -2 0.2 2
v -2 0.3 2
v -1.8 0.2 2
v -1.8 0.3 2
v -1.6 0.2 2
v -1.6 0.3 2
v -1 0.2 2
v -1 0.3 2
v 2 0 2
v 2 0.2 2
v 2 0.3 2
v -2 0 -2
v -2 0.2 -2
v -2 0.3 -2
v -1.8 0.2 -2
v -1.8 0.3 -2
v -1.6 0.2 -2
v -1.6 0.3 -2
v -1 0.2 -2
v -1 0.3 -2
v 2 0 -2
v 2 0.2 -2
v 2 0.3 -2
v -2 0 2
v 2 0 2
v -2 0 -2
v 2 0 -2
v -2 0.3 2
v -1.8 0.3 2
v -1.6 0.3 2
v -1 0.3 2
v 2 0.3 2
v 1 0.3 1.6
v 1.4 0.3 1.6
v 1 0.3 1.3
v 1.4 0.3 1.3
v 1.6 0.3 0.2
v 1.7 0.3 0.2
v 1.6 0.3 0.0999999
v 1.7 0.3 0.0999999
v 0.2 0.3 -0.9
v 0.5 0.3 -0.9
v 0.2 0.3 -1
v 0.5 0.3 -1
v -2 0.3 -2
v -1.8 0.3 -2
v -1.6 0.3 -2
v -1 0.3 -2
v 2 0.3 -2

# faces
f 3/1/1 2/1/1 1/1/1
f 4/1/1 2/1/1 3/1/1
f 5/2/1 4/2/1 3/2/1
f 6/2/1 4/2/1 5/2/1
f 7/1/2 8/1/2 9/1/2
f 9/1/2 8/1/2 10/1/2
f 9/2/2 10/2/2 11/2/2
f 11/2/2 10/2/2 12/2/2
f 16/1/3 14/1/3 13/1/3
f 16/2/3 15/2/3 14/2/3
f 17/2/3 15/2/3 16/2/3
f 18/1/3 16/1/3 13/1/3
f 18/5/3 17/5/3 16/5/3
f 19/5/3 17/5/3 18/5/3
f 20/1/3 18/1/3 13/1/3
f 20/4/3 19/4/3 18/4/3
f 21/4/3 19/4/3 20/4/3
f 22/1/3 20/1/3 13/1/3
f 23/2/3 21/2/3 20/2/3
f 23/1/3 20/1/3 22/1/3
f 24/2/3 21/2/3 23/2/3
f 25/1/4 26/1/4 28/1/4
f 26/2/4 27/2/4 28/2/4
f 28/2/4 27/2/4 29/2/4
f 25/1/4 28/1/4 30/1/4
f 28/5/4 29/5/4 30/5/4
f 30/5/4 29/5/4 31/5/4
f 25/1/4 30/1/4 32/1/4
f 30/4/4 31/4/4 32/4/4
f 32/4/4 31/4/4 33/4/4
f 25/1/4 32/1/4 34/1/4
f 32/2/4 33/2/4 35/2/4
f 34/1/4 32/1/4 35/1/4
f 35/2/4 33/2/4 36/2/4
f 39/1/5 38/1/5 37/1/5
f 40/1/5 38/1/5 39/1/5
f 44/2/6 45/2/6 46/2/6
f 46/2/6 45/2/6 47/2/6
f 44/2/6 46/2/6 48/2/6
f 46/3/6 47/3/6 48/3/6
f 47/2/6 45/2/6 49/2/6
f 48/3/6 47/3/6 49/3/6
f 48/2/6 49/2/6 50/2/6
f 49/2/6 45/2/6 50/2/6
f 50/2/6 45/2/6 51/2/6
f 48/2/6 50/2/6 52/2/6
f 50/3/6 51/3/6 52/3/6
f 51/2/6 45/2/6 53/2/6
f 52/3/6 51/3/6 53/3/6
f 44/2/6 48/2/6 54/2/6
f 48/2/6 52/2/6 54/2/6
f 52/2/6 53/2/6 54/2/6
f 54/2/6 53/2/6 55/2/6
f 44/2/6 54/2/6 56/2/6
f 54/3/6 55/3/6 56/3/6
f 55/2/6 53/2/6 57/2/6
f 56/3/6 55/3/6 57/3/6
f 41/2/6 42/2/6 58/2/6
f 42/5/6 43/5/6 59/5/6
f 58/2/6 42/2/6 59/2/6
f 43/4/6 44/4/6 60/4/6
f 59/5/6 43/5/6 60/5/6
f 44/2/6 56/2/6 61/2/6
f 60/4/6 44/4/6 61/4/6
f 56/2/6 57/2/6 61/2/6
f 57/2/6 53/2/6 62/2/6
f 61/2/6 57/2/6 62/2/6
f 53/2/6 45/2/6 62/2/6
