# Blender v2.80 (sub 74) OBJ File: ''
# www.blender.org
mtllib Small rock 1.mtl
o Small_rock_1
v -0.850000 -0.000000 0.300000
v -0.850000 -0.100000 -0.600000
v -0.850000 -0.100000 0.600000
v -0.850000 0.000000 0.000000
v -0.850000 0.100000 0.600000
v -0.850000 0.100000 0.300000
v -0.850000 0.100000 0.000000
v -0.850000 0.100000 -0.600000
v -0.750000 0.100000 0.700000
v -0.750000 -0.100000 0.600000
v -0.750000 -0.100000 0.700000
v -0.750000 0.100000 0.600000
v -0.750000 0.100000 -0.600000
v -0.750000 -0.100000 -0.700000
v -0.750000 -0.100000 -0.600000
v -0.750000 0.100000 -0.700000
v 0.750000 -0.100000 0.700000
v 0.750000 -0.100000 0.600000
v 0.750000 0.100000 0.700000
v 0.750000 0.100000 0.600000
v 0.750000 -0.100000 -0.600000
v 0.750000 -0.100000 -0.700000
v 0.750000 0.100000 -0.600000
v 0.750000 0.100000 -0.700000
v 0.850000 -0.100000 0.600000
v 0.850000 -0.100000 -0.600000
v 0.850000 0.100000 0.600000
v 0.850000 0.100000 -0.600000
v 0.750000 -0.100000 0.700000
v -0.750000 0.100000 0.700000
v -0.750000 -0.100000 0.700000
v 0.750000 0.100000 0.700000
v -0.750000 -0.100000 0.600000
v -0.850000 0.100000 0.600000
v -0.850000 -0.100000 0.600000
v -0.750000 0.100000 0.600000
v 0.850000 -0.100000 0.600000
v 0.750000 0.100000 0.600000
v 0.750000 -0.100000 0.600000
v 0.850000 0.100000 0.600000
v -0.850000 -0.100000 -0.600000
v -0.850000 0.100000 -0.600000
v -0.750000 -0.100000 -0.600000
v -0.750000 0.100000 -0.600000
v 0.750000 -0.100000 -0.600000
v 0.750000 0.100000 -0.600000
v 0.850000 -0.100000 -0.600000
v 0.850000 0.100000 -0.600000
v -0.750000 -0.100000 -0.700000
v -0.750000 0.100000 -0.700000
v 0.750000 -0.100000 -0.700000
v 0.750000 0.100000 -0.700000
v -0.750000 -0.100000 0.600000
v 0.750000 -0.100000 0.700000
v -0.750000 -0.100000 0.700000
v 0.750000 -0.100000 0.600000
v -0.850000 -0.100000 -0.600000
v -0.850000 -0.100000 0.600000
v 0.850000 -0.100000 0.600000
v -0.750000 -0.100000 -0.600000
v 0.750000 -0.100000 -0.600000
v 0.850000 -0.100000 -0.600000
v -0.750000 -0.100000 -0.700000
v 0.750000 -0.100000 -0.700000
v -0.750000 0.100000 0.700000
v 0.750000 0.100000 0.700000
v -0.750000 0.100000 0.600000
v 0.750000 0.100000 0.600000
v -0.850000 0.100000 0.600000
v -0.150000 0.100000 0.500000
v 0.850000 0.100000 0.600000
v 0.650000 0.100000 0.500000
v -0.850000 0.100000 0.300000
v -0.650000 0.100000 0.300000
v -0.250000 0.100000 0.300000
v -0.150000 0.100000 0.300000
v -0.850000 0.100000 0.000000
v -0.650000 0.100000 0.000000
v -0.550000 0.100000 -0.300000
v -0.350000 0.100000 -0.300000
v -0.250000 0.100000 -0.300000
v -0.150000 0.100000 -0.300000
v -0.150000 0.100000 -0.500000
v 0.650000 0.100000 -0.500000
v -0.850000 0.100000 -0.600000
v -0.750000 0.100000 -0.600000
v -0.550000 0.100000 -0.600000
v -0.350000 0.100000 -0.600000
v 0.750000 0.100000 -0.600000
v 0.850000 0.100000 -0.600000
v -0.750000 0.100000 -0.700000
v 0.750000 0.100000 -0.700000
vt 0.033203 0.500000
vt 0.033203 0.500000
vt 0.033203 0.500000
vt 0.033203 0.500000
vt 0.033203 0.500000
vt 0.037109 0.500000
vt 0.037109 0.500000
vt 0.037109 0.500000
vt 0.033203 0.500000
vt 0.033203 0.500000
vt 0.037109 0.500000
vt 0.033203 0.500000
vt 0.033203 0.500000
vt 0.033203 0.500000
vt 0.033203 0.500000
vt 0.033203 0.500000
vt 0.033203 0.500000
vt 0.033203 0.500000
vt 0.033203 0.500000
vt 0.033203 0.500000
vt 0.033203 0.500000
vt 0.033203 0.500000
vt 0.033203 0.500000
vt 0.033203 0.500000
vt 0.033203 0.500000
vt 0.033203 0.500000
vt 0.033203 0.500000
vt 0.033203 0.500000
vt 0.033203 0.500000
vt 0.033203 0.500000
vt 0.033203 0.500000
vt 0.033203 0.500000
vt 0.033203 0.500000
vt 0.033203 0.500000
vt 0.033203 0.500000
vt 0.033203 0.500000
vt 0.033203 0.500000
vt 0.033203 0.500000
vt 0.033203 0.500000
vt 0.033203 0.500000
vt 0.033203 0.500000
vt 0.033203 0.500000
vt 0.033203 0.500000
vt 0.033203 0.500000
vt 0.033203 0.500000
vt 0.033203 0.500000
vt 0.033203 0.500000
vt 0.033203 0.500000
vt 0.033203 0.500000
vt 0.033203 0.500000
vt 0.033203 0.500000
vt 0.033203 0.500000
vt 0.033203 0.500000
vt 0.033203 0.500000
vt 0.033203 0.500000
vt 0.033203 0.500000
vt 0.033203 0.500000
vt 0.033203 0.500000
vt 0.033203 0.500000
vt 0.033203 0.500000
vt 0.033203 0.500000
vt 0.033203 0.500000
vt 0.033203 0.500000
vt 0.033203 0.500000
vt 0.033203 0.500000
vt 0.033203 0.500000
vt 0.033203 0.500000
vt 0.033203 0.500000
vt 0.033203 0.500000
vt 0.033203 0.500000
vt 0.033203 0.500000
vt 0.033203 0.500000
vt 0.033203 0.500000
vt 0.033203 0.500000
vt 0.033203 0.500000
vt 0.033203 0.500000
vt 0.033203 0.500000
vt 0.033203 0.500000
vt 0.033203 0.500000
vt 0.037109 0.500000
vt 0.037109 0.500000
vt 0.037109 0.500000
vt 0.033203 0.500000
vt 0.037109 0.500000
vt 0.037109 0.500000
vt 0.037109 0.500000
vt 0.033203 0.500000
vt 0.037109 0.500000
vt 0.033203 0.500000
vt 0.033203 0.500000
vt 0.033203 0.500000
vt 0.037109 0.500000
vt 0.037109 0.500000
vt 0.033203 0.500000
vt 0.037109 0.500000
vt 0.033203 0.500000
vt 0.037109 0.500000
vt 0.033203 0.500000
vt 0.033203 0.500000
vt 0.037109 0.500000
vt 0.033203 0.500000
vt 0.033203 0.500000
vt 0.037109 0.500000
vt 0.037109 0.500000
vt 0.037109 0.500000
vt 0.033203 0.500000
vt 0.033203 0.500000
vt 0.037109 0.500000
vt 0.033203 0.500000
vt 0.033203 0.500000
vt 0.033203 0.500000
vt 0.033203 0.500000
vn -1.0000 0.0000 0.0000
vn 1.0000 0.0000 0.0000
vn 0.0000 0.0000 1.0000
vn 0.0000 0.0000 -1.0000
vn 0.0000 -1.0000 -0.0000
vn 0.0000 1.0000 0.0000
usemtl palette.003
s 1
f 1/1/1 2/2/1 3/3/1
f 4/4/1 2/2/1 1/1/1
f 5/5/1 1/1/1 3/3/1
f 6/6/1 4/7/1 1/8/1
f 6/9/1 1/1/1 5/5/1
f 7/10/1 2/2/1 4/4/1
f 7/11/1 4/7/1 6/6/1
f 8/12/1 2/2/1 7/10/1
f 9/13/1 10/14/1 11/15/1
f 12/16/1 10/14/1 9/13/1
f 13/17/1 14/18/1 15/19/1
f 16/20/1 14/18/1 13/17/1
f 17/21/2 18/22/2 19/23/2
f 19/23/2 18/22/2 20/24/2
f 21/25/2 22/26/2 23/27/2
f 23/27/2 22/26/2 24/28/2
f 25/29/2 26/30/2 27/31/2
f 27/31/2 26/30/2 28/32/2
f 29/33/3 30/34/3 31/35/3
f 32/36/3 30/34/3 29/33/3
f 33/37/3 34/38/3 35/39/3
f 36/40/3 34/38/3 33/37/3
f 37/41/3 38/42/3 39/43/3
f 40/44/3 38/42/3 37/41/3
f 41/45/4 42/46/4 43/47/4
f 43/47/4 42/46/4 44/48/4
f 45/49/4 46/50/4 47/51/4
f 47/51/4 46/50/4 48/52/4
f 49/53/4 50/54/4 51/55/4
f 51/55/4 50/54/4 52/56/4
f 53/57/5 54/58/5 55/59/5
f 56/60/5 54/58/5 53/57/5
f 57/61/5 53/57/5 58/62/5
f 57/61/5 59/63/5 56/60/5
f 57/61/5 56/60/5 53/57/5
f 60/64/5 59/63/5 57/61/5
f 61/65/5 59/63/5 60/64/5
f 62/66/5 59/63/5 61/65/5
f 63/67/5 61/65/5 60/64/5
f 64/68/5 61/65/5 63/67/5
f 65/69/6 66/70/6 67/71/6
f 67/71/6 66/70/6 68/72/6
f 69/73/6 67/71/6 70/74/6
f 68/72/6 71/75/6 70/74/6
f 67/71/6 68/72/6 70/74/6
f 70/74/6 71/75/6 72/76/6
f 69/73/6 70/74/6 73/77/6
f 73/77/6 70/74/6 74/78/6
f 74/78/6 70/74/6 75/79/6
f 70/80/6 72/81/6 76/82/6
f 75/79/6 70/74/6 76/83/6
f 73/84/6 74/85/6 77/86/6
f 74/78/6 75/79/6 78/87/6
f 77/86/6 74/85/6 78/88/6
f 77/89/6 78/87/6 79/90/6
f 78/87/6 75/79/6 79/90/6
f 79/90/6 75/79/6 80/91/6
f 75/92/6 76/82/6 81/93/6
f 80/91/6 75/79/6 81/94/6
f 76/82/6 72/81/6 82/95/6
f 81/93/6 76/82/6 82/95/6
f 80/91/6 81/94/6 83/96/6
f 82/95/6 72/81/6 83/97/6
f 81/94/6 82/98/6 83/96/6
f 72/76/6 71/75/6 84/99/6
f 83/97/6 72/81/6 84/100/6
f 77/89/6 79/90/6 85/101/6
f 85/101/6 79/90/6 86/102/6
f 79/103/6 80/104/6 87/105/6
f 86/102/6 79/90/6 87/106/6
f 80/91/6 83/96/6 88/107/6
f 87/105/6 80/104/6 88/108/6
f 83/96/6 84/99/6 88/107/6
f 84/99/6 71/75/6 89/109/6
f 88/107/6 84/99/6 89/109/6
f 89/109/6 71/75/6 90/110/6
f 86/102/6 87/106/6 91/111/6
f 87/106/6 88/107/6 91/111/6
f 88/107/6 89/109/6 91/111/6
f 91/111/6 89/109/6 92/112/6
