# Blender v2.80 (sub 74) OBJ File: ''
# www.blender.org
mtllib Small rock 3.mtl
o Small_rock_3
v -0.950000 -0.000000 0.550000
v -0.950000 -0.100000 -0.650000
v -0.950000 -0.100000 0.550000
v -0.950000 0.000000 -0.650000
v -0.850000 -0.000000 0.650000
v -0.850000 -0.100000 0.550000
v -0.850000 -0.100000 0.650000
v -0.850000 -0.000000 0.550000
v -0.850000 0.000000 -0.650000
v -0.850000 -0.100000 -0.750000
v -0.850000 -0.100000 -0.650000
v -0.850000 0.000000 -0.750000
v -0.850000 0.100000 0.550000
v -0.850000 -0.000000 0.250000
v -0.850000 0.100000 0.250000
v -0.850000 -0.000000 0.050000
v -0.850000 0.100000 0.050000
v -0.850000 0.000000 -0.350000
v -0.850000 0.100000 -0.350000
v -0.850000 0.000000 -0.550000
v -0.850000 0.100000 -0.550000
v -0.850000 0.100000 -0.650000
v -0.650000 -0.000000 0.750000
v -0.650000 -0.100000 0.650000
v -0.650000 -0.100000 0.750000
v -0.650000 -0.000000 0.650000
v -0.650000 0.100000 0.650000
v -0.650000 -0.000000 0.550000
v -0.650000 0.100000 0.550000
v 0.650000 -0.100000 -0.650000
v 0.650000 -0.100000 -0.750000
v 0.650000 0.000000 -0.650000
v 0.650000 0.000000 -0.750000
v 0.650000 0.000000 -0.550000
v 0.650000 0.100000 -0.550000
v 0.650000 0.100000 -0.650000
v 0.750000 -0.100000 0.750000
v 0.750000 -0.100000 0.650000
v 0.750000 -0.000000 0.750000
v 0.750000 -0.000000 0.650000
v 0.750000 -0.100000 -0.550000
v 0.750000 -0.100000 -0.650000
v 0.750000 0.000000 -0.550000
v 0.750000 0.000000 -0.650000
v 0.750000 -0.000000 0.550000
v 0.750000 0.100000 0.650000
v 0.750000 0.100000 0.550000
v 0.750000 0.000000 -0.450000
v 0.750000 0.100000 -0.450000
v 0.750000 0.100000 -0.550000
v 0.850000 -0.100000 0.650000
v 0.850000 -0.100000 0.550000
v 0.850000 -0.000000 0.650000
v 0.850000 -0.000000 0.550000
v 0.850000 -0.100000 -0.350000
v 0.850000 -0.100000 -0.550000
v 0.850000 0.000000 -0.350000
v 0.850000 0.000000 -0.450000
v 0.850000 0.000000 -0.550000
v 0.850000 0.100000 0.550000
v 0.850000 0.100000 -0.450000
v 0.950000 -0.100000 0.550000
v 0.950000 -0.100000 -0.350000
v 0.950000 -0.000000 0.550000
v 0.950000 0.000000 -0.350000
v 0.750000 -0.100000 0.750000
v -0.650000 -0.000000 0.750000
v -0.650000 -0.100000 0.750000
v 0.750000 -0.000000 0.750000
v -0.650000 -0.100000 0.650000
v -0.850000 -0.000000 0.650000
v -0.850000 -0.100000 0.650000
v -0.650000 -0.000000 0.650000
v 0.650000 -0.000000 0.650000
v -0.650000 0.100000 0.650000
v 0.650000 0.100000 0.650000
v 0.750000 -0.000000 0.650000
v 0.750000 0.100000 0.650000
v 0.850000 -0.100000 0.650000
v 0.750000 -0.100000 0.650000
v 0.850000 -0.000000 0.650000
v -0.850000 -0.100000 0.550000
v -0.950000 -0.000000 0.550000
v -0.950000 -0.100000 0.550000
v -0.850000 -0.000000 0.550000
v -0.650000 -0.000000 0.550000
v -0.850000 0.100000 0.550000
v -0.650000 0.100000 0.550000
v 0.850000 -0.000000 0.550000
v 0.750000 0.100000 0.550000
v 0.750000 -0.000000 0.550000
v 0.850000 0.100000 0.550000
v 0.950000 -0.100000 0.550000
v 0.850000 -0.100000 0.550000
v 0.950000 -0.000000 0.550000
v 0.850000 -0.100000 -0.350000
v 0.850000 0.000000 -0.350000
v 0.950000 -0.100000 -0.350000
v 0.950000 0.000000 -0.350000
v 0.750000 0.000000 -0.450000
v 0.750000 0.100000 -0.450000
v 0.850000 0.000000 -0.450000
v 0.850000 0.100000 -0.450000
v 0.650000 0.000000 -0.550000
v 0.650000 0.100000 -0.550000
v 0.750000 0.000000 -0.550000
v 0.750000 0.100000 -0.550000
v 0.750000 -0.100000 -0.550000
v 0.850000 -0.100000 -0.550000
v 0.850000 0.000000 -0.550000
v -0.950000 -0.100000 -0.650000
v -0.950000 0.000000 -0.650000
v -0.850000 -0.100000 -0.650000
v -0.850000 0.000000 -0.650000
v -0.850000 0.100000 -0.650000
v -0.650000 0.000000 -0.650000
v -0.650000 0.100000 -0.650000
v -0.450000 0.000000 -0.650000
v -0.450000 0.100000 -0.650000
v 0.650000 0.000000 -0.650000
v 0.650000 0.100000 -0.650000
v 0.650000 -0.100000 -0.650000
v 0.750000 -0.100000 -0.650000
v 0.750000 0.000000 -0.650000
v -0.850000 -0.100000 -0.750000
v -0.850000 0.000000 -0.750000
v 0.650000 -0.100000 -0.750000
v 0.650000 0.000000 -0.750000
v -0.650000 -0.100000 0.650000
v 0.750000 -0.100000 0.750000
v -0.650000 -0.100000 0.750000
v 0.650000 -0.100000 0.650000
v 0.750000 -0.100000 0.650000
v -0.850000 -0.100000 0.550000
v -0.850000 -0.100000 0.650000
v 0.650000 -0.100000 0.550000
v 0.850000 -0.100000 0.650000
v 0.750000 -0.100000 0.550000
v 0.850000 -0.100000 0.550000
v 0.850000 -0.100000 -0.350000
v 0.950000 -0.100000 0.550000
v 0.950000 -0.100000 -0.350000
v 0.750000 -0.100000 -0.550000
v -0.950000 -0.100000 0.550000
v 0.850000 -0.100000 -0.550000
v -0.950000 -0.100000 -0.650000
v -0.850000 -0.100000 -0.650000
v 0.650000 -0.100000 -0.650000
v 0.750000 -0.100000 -0.650000
v -0.850000 -0.100000 -0.750000
v 0.650000 -0.100000 -0.750000
v -0.650000 -0.000000 0.750000
v 0.750000 -0.000000 0.750000
v -0.650000 -0.000000 0.650000
v 0.650000 -0.000000 0.650000
v 0.750000 -0.000000 0.650000
v -0.850000 -0.000000 0.650000
v -0.850000 -0.000000 0.550000
v -0.650000 -0.000000 0.550000
v 0.850000 -0.000000 0.650000
v 0.750000 -0.000000 0.550000
v 0.850000 -0.000000 0.550000
v -0.950000 -0.000000 0.550000
v -0.850000 -0.000000 0.250000
v -0.850000 -0.000000 0.050000
v -0.850000 0.000000 -0.350000
v 0.950000 -0.000000 0.550000
v 0.850000 0.000000 -0.350000
v 0.950000 0.000000 -0.350000
v -0.850000 0.000000 -0.550000
v 0.750000 0.000000 -0.450000
v 0.850000 0.000000 -0.450000
v 0.750000 0.000000 -0.550000
v 0.850000 0.000000 -0.550000
v -0.950000 0.000000 -0.650000
v -0.850000 0.000000 -0.650000
v 0.650000 0.000000 -0.550000
v 0.650000 0.000000 -0.650000
v 0.750000 0.000000 -0.650000
v -0.650000 0.000000 -0.650000
v -0.450000 0.000000 -0.650000
v -0.850000 0.000000 -0.750000
v 0.650000 0.000000 -0.750000
v -0.650000 0.100000 0.650000
v 0.650000 0.100000 0.650000
v -0.650000 0.100000 0.550000
v 0.750000 0.100000 0.650000
v 0.650000 0.100000 0.550000
v 0.750000 0.100000 0.550000
v -0.850000 0.100000 0.550000
v -0.350000 0.100000 0.450000
v -0.250000 0.100000 0.450000
v 0.550000 0.100000 0.450000
v -0.550000 0.100000 0.350000
v -0.350000 0.100000 0.350000
v -0.850000 0.100000 0.250000
v -0.750000 0.100000 0.250000
v -0.850000 0.100000 0.050000
v -0.750000 0.100000 0.050000
v -0.550000 0.100000 0.050000
v -0.350000 0.100000 0.050000
v -0.250000 0.100000 0.050000
v -0.550000 0.100000 -0.050000
v -0.350000 0.100000 -0.050000
v -0.650000 0.100000 -0.150000
v -0.550000 0.100000 -0.150000
v -0.450000 0.100000 -0.150000
v -0.850000 0.100000 -0.350000
v -0.650000 0.100000 -0.350000
v -0.350000 0.100000 -0.350000
v -0.250000 0.100000 -0.350000
v -0.150000 0.100000 -0.350000
v 0.050000 0.100000 -0.350000
v 0.850000 0.100000 0.550000
v 0.750000 0.100000 -0.450000
v 0.850000 0.100000 -0.450000
v -0.850000 0.100000 -0.550000
v -0.650000 0.100000 -0.550000
v -0.250000 0.100000 -0.550000
v -0.150000 0.100000 -0.550000
v 0.050000 0.100000 -0.550000
v 0.550000 0.100000 -0.550000
v 0.650000 0.100000 -0.550000
v 0.750000 0.100000 -0.550000
v -0.850000 0.100000 -0.650000
v -0.650000 0.100000 -0.650000
v -0.450000 0.100000 -0.650000
v 0.650000 0.100000 -0.650000
vt 0.033203 0.500000
vt 0.033203 0.500000
vt 0.033203 0.500000
vt 0.033203 0.500000
vt 0.033203 0.500000
vt 0.033203 0.500000
vt 0.033203 0.500000
vt 0.033203 0.500000
vt 0.033203 0.500000
vt 0.033203 0.500000
vt 0.033203 0.500000
vt 0.033203 0.500000
vt 0.033203 0.500000
vt 0.033203 0.500000
vt 0.037109 0.500000
vt 0.037109 0.500000
vt 0.037109 0.500000
vt 0.033203 0.500000
vt 0.041016 0.500000
vt 0.041016 0.500000
vt 0.041016 0.500000
vt 0.037109 0.500000
vt 0.037109 0.500000
vt 0.037109 0.500000
vt 0.037109 0.500000
vt 0.041016 0.500000
vt 0.033203 0.500000
vt 0.033203 0.500000
vt 0.037109 0.500000
vt 0.033203 0.500000
vt 0.033203 0.500000
vt 0.033203 0.500000
vt 0.033203 0.500000
vt 0.033203 0.500000
vt 0.033203 0.500000
vt 0.033203 0.500000
vt 0.033203 0.500000
vt 0.033203 0.500000
vt 0.033203 0.500000
vt 0.033203 0.500000
vt 0.033203 0.500000
vt 0.033203 0.500000
vt 0.033203 0.500000
vt 0.033203 0.500000
vt 0.033203 0.500000
vt 0.033203 0.500000
vt 0.033203 0.500000
vt 0.033203 0.500000
vt 0.033203 0.500000
vt 0.033203 0.500000
vt 0.033203 0.500000
vt 0.033203 0.500000
vt 0.037109 0.500000
vt 0.037109 0.500000
vt 0.037109 0.500000
vt 0.037109 0.500000
vt 0.033203 0.500000
vt 0.033203 0.500000
vt 0.033203 0.500000
vt 0.037109 0.500000
vt 0.037109 0.500000
vt 0.037109 0.500000
vt 0.037109 0.500000
vt 0.037109 0.500000
vt 0.037109 0.500000
vt 0.037109 0.500000
vt 0.037109 0.500000
vt 0.037109 0.500000
vt 0.037109 0.500000
vt 0.037109 0.500000
vt 0.037109 0.500000
vt 0.037109 0.500000
vt 0.037109 0.500000
vt 0.037109 0.500000
vt 0.033203 0.500000
vt 0.033203 0.500000
vt 0.033203 0.500000
vt 0.033203 0.500000
vt 0.033203 0.500000
vt 0.033203 0.500000
vt 0.033203 0.500000
vt 0.033203 0.500000
vt 0.033203 0.500000
vt 0.033203 0.500000
vt 0.033203 0.500000
vt 0.037109 0.500000
vt 0.037109 0.500000
vt 0.037109 0.500000
vt 0.037109 0.500000
vt 0.037109 0.500000
vt 0.037109 0.500000
vt 0.037109 0.500000
vt 0.033203 0.500000
vt 0.033203 0.500000
vt 0.033203 0.500000
vt 0.033203 0.500000
vt 0.033203 0.500000
vt 0.033203 0.500000
vt 0.033203 0.500000
vt 0.037109 0.500000
vt 0.037109 0.500000
vt 0.037109 0.500000
vt 0.037109 0.500000
vt 0.037109 0.500000
vt 0.037109 0.500000
vt 0.037109 0.500000
vt 0.037109 0.500000
vt 0.037109 0.500000
vt 0.037109 0.500000
vt 0.037109 0.500000
vt 0.037109 0.500000
vt 0.037109 0.500000
vt 0.037109 0.500000
vt 0.037109 0.500000
vt 0.033203 0.500000
vt 0.033203 0.500000
vt 0.033203 0.500000
vt 0.033203 0.500000
vt 0.037109 0.500000
vt 0.037109 0.500000
vt 0.037109 0.500000
vt 0.037109 0.500000
vt 0.033203 0.500000
vt 0.033203 0.500000
vt 0.033203 0.500000
vt 0.033203 0.500000
vt 0.033203 0.500000
vt 0.033203 0.500000
vt 0.033203 0.500000
vt 0.037109 0.500000
vt 0.037109 0.500000
vt 0.037109 0.500000
vt 0.037109 0.500000
vt 0.033203 0.500000
vt 0.033203 0.500000
vt 0.033203 0.500000
vt 0.033203 0.500000
vt 0.033203 0.500000
vt 0.033203 0.500000
vt 0.033203 0.500000
vt 0.033203 0.500000
vt 0.033203 0.500000
vt 0.033203 0.500000
vt 0.033203 0.500000
vt 0.033203 0.500000
vt 0.033203 0.500000
vt 0.033203 0.500000
vt 0.033203 0.500000
vt 0.033203 0.500000
vt 0.033203 0.500000
vt 0.033203 0.500000
vt 0.037109 0.500000
vt 0.037109 0.500000
vt 0.037109 0.500000
vt 0.037109 0.500000
vt 0.033203 0.500000
vt 0.037109 0.500000
vt 0.037109 0.500000
vt 0.037109 0.500000
vt 0.037109 0.500000
vt 0.037109 0.500000
vt 0.033203 0.500000
vt 0.033203 0.500000
vt 0.037109 0.500000
vt 0.033203 0.500000
vt 0.037109 0.500000
vt 0.033203 0.500000
vt 0.033203 0.500000
vt 0.033203 0.500000
vt 0.033203 0.500000
vt 0.033203 0.500000
vt 0.033203 0.500000
vt 0.033203 0.500000
vt 0.033203 0.500000
vt 0.033203 0.500000
vt 0.033203 0.500000
vt 0.033203 0.500000
vt 0.033203 0.500000
vt 0.033203 0.500000
vt 0.033203 0.500000
vt 0.037109 0.500000
vt 0.037109 0.500000
vt 0.037109 0.500000
vt 0.037109 0.500000
vt 0.033203 0.500000
vt 0.033203 0.500000
vt 0.033203 0.500000
vt 0.033203 0.500000
vt 0.037109 0.500000
vt 0.037109 0.500000
vt 0.037109 0.500000
vt 0.033203 0.500000
vt 0.037109 0.500000
vt 0.037109 0.500000
vt 0.037109 0.500000
vt 0.037109 0.500000
vt 0.033203 0.500000
vt 0.033203 0.500000
vt 0.033203 0.500000
vt 0.033203 0.500000
vt 0.033203 0.500000
vt 0.033203 0.500000
vt 0.033203 0.500000
vt 0.033203 0.500000
vt 0.033203 0.500000
vt 0.033203 0.500000
vt 0.033203 0.500000
vt 0.033203 0.500000
vt 0.033203 0.500000
vt 0.037109 0.500000
vt 0.037109 0.500000
vt 0.037109 0.500000
vt 0.033203 0.500000
vt 0.037109 0.500000
vt 0.033203 0.500000
vt 0.033203 0.500000
vt 0.033203 0.500000
vt 0.033203 0.500000
vt 0.033203 0.500000
vt 0.033203 0.500000
vt 0.041016 0.500000
vt 0.041016 0.500000
vt 0.041016 0.500000
vt 0.033203 0.500000
vt 0.033203 0.500000
vt 0.033203 0.500000
vt 0.037109 0.500000
vt 0.037109 0.500000
vt 0.037109 0.500000
vt 0.033203 0.500000
vt 0.037109 0.500000
vt 0.037109 0.500000
vt 0.037109 0.500000
vt 0.037109 0.500000
vt 0.033203 0.500000
vt 0.041016 0.500000
vt 0.037109 0.500000
vt 0.037109 0.500000
vt 0.037109 0.500000
vt 0.037109 0.500000
vt 0.041016 0.500000
vt 0.041016 0.500000
vt 0.041016 0.500000
vt 0.041016 0.500000
vt 0.037109 0.500000
vt 0.041016 0.500000
vt 0.037109 0.500000
vt 0.041016 0.500000
vt 0.033203 0.500000
vt 0.033203 0.500000
vt 0.033203 0.500000
vt 0.041016 0.500000
vt 0.033203 0.500000
vt 0.041016 0.500000
vt 0.037109 0.500000
vt 0.037109 0.500000
vt 0.037109 0.500000
vt 0.041016 0.500000
vt 0.037109 0.500000
vt 0.037109 0.500000
vt 0.033203 0.500000
vt 0.037109 0.500000
vt 0.037109 0.500000
vt 0.037109 0.500000
vt 0.037109 0.500000
vt 0.037109 0.500000
vt 0.033203 0.500000
vt 0.037109 0.500000
vt 0.037109 0.500000
vt 0.037109 0.500000
vt 0.037109 0.500000
vt 0.033203 0.500000
vt 0.033203 0.500000
vt 0.037109 0.500000
vt 0.041016 0.500000
vt 0.041016 0.500000
vt 0.041016 0.500000
vt 0.037109 0.500000
vt 0.037109 0.500000
vt 0.041016 0.500000
vt 0.033203 0.500000
vt 0.037109 0.500000
vt 0.033203 0.500000
vt 0.033203 0.500000
vt 0.033203 0.500000
vt 0.033203 0.500000
vt 0.033203 0.500000
vt 0.037109 0.500000
vt 0.033203 0.500000
vt 0.033203 0.500000
vt 0.033203 0.500000
vt 0.037109 0.500000
vt 0.033203 0.500000
vt 0.033203 0.500000
vn -1.0000 0.0000 0.0000
vn 1.0000 0.0000 0.0000
vn 0.0000 0.0000 1.0000
vn 0.0000 0.0000 -1.0000
vn 0.0000 -1.0000 -0.0000
vn 0.0000 1.0000 0.0000
usemtl palette.005
s 1
f 1/1/1 2/2/1 3/3/1
f 4/4/1 2/2/1 1/1/1
f 5/5/1 6/6/1 7/7/1
f 8/8/1 6/6/1 5/5/1
f 9/9/1 10/10/1 11/11/1
f 12/12/1 10/10/1 9/9/1
f 13/13/1 14/14/1 8/8/1
f 15/15/1 16/16/1 14/17/1
f 15/18/1 14/14/1 13/13/1
f 17/19/1 18/20/1 16/21/1
f 17/22/1 16/16/1 15/15/1
f 19/23/1 20/24/1 18/25/1
f 19/26/1 18/20/1 17/19/1
f 21/27/1 9/9/1 20/28/1
f 21/29/1 20/24/1 19/23/1
f 22/30/1 9/9/1 21/27/1
f 23/31/1 24/32/1 25/33/1
f 26/34/1 24/32/1 23/31/1
f 27/35/1 28/36/1 26/34/1
f 29/37/1 28/36/1 27/35/1
f 30/38/2 31/39/2 32/40/2
f 32/40/2 31/39/2 33/41/2
f 34/42/2 32/40/2 35/43/2
f 35/43/2 32/40/2 36/44/2
f 37/45/2 38/46/2 39/47/2
f 39/47/2 38/46/2 40/48/2
f 41/49/2 42/50/2 43/51/2
f 43/51/2 42/50/2 44/52/2
f 40/53/2 45/54/2 46/55/2
f 46/55/2 45/54/2 47/56/2
f 48/57/2 43/51/2 49/58/2
f 49/58/2 43/51/2 50/59/2
f 51/60/2 52/61/2 53/62/2
f 53/62/2 52/61/2 54/63/2
f 55/64/2 56/65/2 57/66/2
f 57/66/2 56/65/2 58/67/2
f 58/67/2 56/65/2 59/68/2
f 54/63/2 57/66/2 60/69/2
f 57/66/2 58/67/2 60/69/2
f 60/69/2 58/67/2 61/70/2
f 62/71/2 63/72/2 64/73/2
f 64/73/2 63/72/2 65/74/2
f 66/75/3 67/76/3 68/77/3
f 69/78/3 67/76/3 66/75/3
f 70/79/3 71/80/3 72/81/3
f 73/82/3 71/80/3 70/79/3
f 74/83/3 75/84/3 73/82/3
f 76/85/3 75/84/3 74/83/3
f 77/86/3 76/87/3 74/88/3
f 78/89/3 76/87/3 77/86/3
f 79/90/3 77/86/3 80/91/3
f 81/92/3 77/86/3 79/90/3
f 82/93/3 83/94/3 84/95/3
f 85/96/3 83/94/3 82/93/3
f 86/97/3 87/98/3 85/96/3
f 88/99/3 87/98/3 86/97/3
f 89/100/3 90/101/3 91/102/3
f 92/103/3 90/101/3 89/100/3
f 93/104/3 89/100/3 94/105/3
f 95/106/3 89/100/3 93/104/3
f 96/107/4 97/108/4 98/109/4
f 98/109/4 97/108/4 99/110/4
f 100/111/4 101/112/4 102/113/4
f 102/113/4 101/112/4 103/114/4
f 104/115/4 105/116/4 106/117/4
f 106/117/4 105/116/4 107/118/4
f 108/119/4 106/120/4 109/121/4
f 109/121/4 106/120/4 110/122/4
f 111/123/4 112/124/4 113/125/4
f 113/125/4 112/124/4 114/126/4
f 114/126/4 115/127/4 116/128/4
f 116/128/4 115/127/4 117/129/4
f 116/130/4 117/131/4 118/132/4
f 118/132/4 117/131/4 119/133/4
f 118/134/4 119/135/4 120/136/4
f 120/136/4 119/135/4 121/137/4
f 122/138/4 120/136/4 123/139/4
f 123/139/4 120/136/4 124/140/4
f 125/141/4 126/142/4 127/143/4
f 127/143/4 126/142/4 128/144/4
f 129/145/5 130/146/5 131/147/5
f 132/148/5 130/146/5 129/145/5
f 133/149/5 130/146/5 132/148/5
f 134/150/5 129/145/5 135/151/5
f 134/150/5 132/148/5 129/145/5
f 136/152/5 137/153/5 133/154/5
f 136/152/5 133/154/5 132/155/5
f 136/156/5 132/148/5 134/150/5
f 138/157/5 137/153/5 136/152/5
f 139/158/5 137/153/5 138/157/5
f 140/159/5 139/158/5 138/157/5
f 140/159/5 141/160/5 139/158/5
f 142/161/5 141/160/5 140/159/5
f 143/162/5 134/150/5 144/163/5
f 143/162/5 136/156/5 134/150/5
f 143/164/5 140/159/5 138/157/5
f 143/162/5 138/165/5 136/156/5
f 145/166/5 140/159/5 143/164/5
f 146/167/5 143/162/5 144/163/5
f 147/168/5 143/162/5 146/167/5
f 148/169/5 143/162/5 147/168/5
f 149/170/5 143/162/5 148/169/5
f 150/171/5 148/169/5 147/168/5
f 151/172/5 148/169/5 150/171/5
f 152/173/6 153/174/6 154/175/6
f 154/175/6 153/174/6 155/176/6
f 155/176/6 153/174/6 156/177/6
f 157/178/6 154/175/6 158/179/6
f 158/179/6 154/175/6 159/180/6
f 156/181/6 160/182/6 161/183/6
f 161/183/6 160/182/6 162/184/6
f 163/185/6 158/179/6 164/186/6
f 163/185/6 164/186/6 165/187/6
f 163/185/6 165/187/6 166/188/6
f 162/184/6 167/189/6 168/190/6
f 168/190/6 167/189/6 169/191/6
f 163/185/6 166/188/6 170/192/6
f 171/193/6 172/194/6 173/195/6
f 173/195/6 172/194/6 174/196/6
f 163/185/6 170/192/6 175/197/6
f 175/197/6 170/192/6 176/198/6
f 177/199/6 173/200/6 178/201/6
f 178/201/6 173/200/6 179/202/6
f 180/203/6 181/204/6 182/205/6
f 181/204/6 178/201/6 182/205/6
f 176/198/6 180/203/6 182/205/6
f 182/205/6 178/201/6 183/206/6
f 184/207/6 185/208/6 186/209/6
f 185/210/6 187/211/6 188/212/6
f 186/209/6 185/208/6 188/213/6
f 188/212/6 187/211/6 189/214/6
f 190/215/6 186/209/6 191/216/6
f 186/209/6 188/213/6 191/216/6
f 188/213/6 189/217/6 191/216/6
f 191/216/6 189/217/6 192/218/6
f 192/218/6 189/217/6 193/219/6
f 190/215/6 191/216/6 194/220/6
f 191/221/6 192/222/6 195/223/6
f 194/220/6 191/216/6 195/224/6
f 190/215/6 194/220/6 196/225/6
f 196/225/6 194/220/6 197/226/6
f 196/227/6 197/228/6 198/229/6
f 197/226/6 194/220/6 199/230/6
f 198/229/6 197/228/6 199/231/6
f 194/232/6 195/233/6 200/234/6
f 199/230/6 194/220/6 200/235/6
f 195/223/6 192/222/6 201/236/6
f 200/234/6 195/233/6 201/237/6
f 192/238/6 193/239/6 202/240/6
f 201/236/6 192/222/6 202/241/6
f 199/242/6 200/243/6 203/244/6
f 200/234/6 201/237/6 203/245/6
f 201/237/6 202/240/6 203/245/6
f 198/246/6 199/242/6 203/244/6
f 203/245/6 202/240/6 204/247/6
f 198/246/6 203/244/6 205/248/6
f 203/249/6 204/250/6 206/251/6
f 205/248/6 203/244/6 206/252/6
f 206/251/6 204/250/6 207/253/6
f 198/246/6 205/248/6 208/254/6
f 205/255/6 206/256/6 209/257/6
f 208/254/6 205/248/6 209/258/6
f 206/256/6 207/259/6 209/257/6
f 204/247/6 202/240/6 210/260/6
f 207/253/6 204/250/6 210/261/6
f 202/240/6 193/239/6 211/262/6
f 210/260/6 202/240/6 211/262/6
f 211/262/6 193/239/6 212/263/6
f 212/263/6 193/239/6 213/264/6
f 189/214/6 214/265/6 215/266/6
f 193/219/6 189/217/6 215/267/6
f 215/266/6 214/265/6 216/268/6
f 208/269/6 209/257/6 217/270/6
f 209/257/6 207/259/6 218/271/6
f 217/270/6 209/257/6 218/271/6
f 210/261/6 211/272/6 219/273/6
f 211/262/6 212/263/6 219/274/6
f 212/275/6 213/276/6 220/277/6
f 219/274/6 212/263/6 220/278/6
f 213/264/6 193/239/6 221/279/6
f 220/277/6 213/276/6 221/280/6
f 193/219/6 215/267/6 222/281/6
f 221/279/6 193/239/6 222/282/6
f 222/281/6 215/267/6 223/283/6
f 223/283/6 215/267/6 224/284/6
f 217/285/6 218/286/6 225/287/6
f 218/271/6 207/259/6 226/288/6
f 225/287/6 218/286/6 226/289/6
f 219/273/6 220/290/6 227/291/6
f 226/288/6 207/259/6 227/292/6
f 210/261/6 219/273/6 227/291/6
f 222/281/6 223/283/6 227/291/6
f 221/293/6 222/281/6 227/291/6
f 220/290/6 221/293/6 227/291/6
f 207/253/6 210/261/6 227/291/6
f 227/291/6 223/283/6 228/294/6
