# MagicaVoxel @ Ephtracy

# group
o 

# material
mtllib Tree Road Long vary 1.mtl
usemtl palette

# normals
vn -1 0 0
vn 1 0 0
vn 0 0 1
vn 0 0 -1
vn 0 -1 0
vn 0 1 0

# texcoords
vt 0.537109 0.5
vt 0.763672 0.5
vt 0.896484 0.5
vt 0.900391 0.5
vt 0.904297 0.5
vt 0.962891 0.5
vt 0.974609 0.5
vt 0.986328 0.5

# verts
v -2 0 4
v -2 0 -4
v -2 0.4 4
v -2 0.4 -4
v -2 1.1 4
v -2 1.1 -4
v -1.6 0.6 3.6
v -1.6 0.6 -3.6
v -1.6 0.7 3.6
v -1.6 0.7 -3.6
v -1.6 0.8 3.6
v -1.6 0.8 -3.6
v -1.6 0.9 3.6
v -1.6 0.9 -3.6
v -1.6 1 3.6
v -1.6 1 -3.6
v 1.8 0.6 3.8
v 1.8 0.6 -3.8
v 1.8 1.1 3.8
v 1.8 1.1 -3.8
v -1.8 0.6 3.8
v -1.8 0.6 -3.8
v -1.8 1.1 3.8
v -1.8 1.1 -3.8
v 1.6 0.6 3.6
v 1.6 0.6 -3.6
v 1.6 0.7 3.6
v 1.6 0.7 -3.6
v 1.6 0.8 3.6
v 1.6 0.8 -3.6
v 1.6 0.9 3.6
v 1.6 0.9 -3.6
v 1.6 1 3.6
v 1.6 1 -3.6
v 2 0 4
v 2 0 -4
v 2 0.4 4
v 2 0.4 -4
v 2 1.1 4
v 2 1.1 -4
v -2 0 4
v -2 0.4 4
v -2 1.1 4
v 2 0 4
v 2 0.4 4
v 2 1.1 4
v -1.6 0.6 3.6
v -1.6 0.7 3.6
v -1.6 0.8 3.6
v -1.6 0.9 3.6
v -1.6 1 3.6
v 1.6 0.6 3.6
v 1.6 0.7 3.6
v 1.6 0.8 3.6
v 1.6 0.9 3.6
v 1.6 1 3.6
v -1.8 0.6 -3.8
v -1.8 1.1 -3.8
v 1.8 0.6 -3.8
v 1.8 1.1 -3.8
v -1.8 0.6 3.8
v -1.8 1.1 3.8
v 1.8 0.6 3.8
v 1.8 1.1 3.8
v -1.6 0.6 -3.6
v -1.6 0.7 -3.6
v -1.6 0.8 -3.6
v -1.6 0.9 -3.6
v -1.6 1 -3.6
v 1.6 0.6 -3.6
v 1.6 0.7 -3.6
v 1.6 0.8 -3.6
v 1.6 0.9 -3.6
v 1.6 1 -3.6
v -2 0 -4
v -2 0.4 -4
v -2 1.1 -4
v 2 0 -4
v 2 0.4 -4
v 2 1.1 -4
v -2 0 4
v 2 0 4
v -2 0 -4
v 2 0 -4
v -1.8 0.6 3.8
v 1.8 0.6 3.8
v -1.6 0.6 3.6
v 1.6 0.6 3.6
v -1.6 0.6 -3.6
v 1.6 0.6 -3.6
v -1.8 0.6 -3.8
v 1.8 0.6 -3.8
v -1.6 1 3.6
v 1.6 1 3.6
v -1.6 1 -3.6
v 1.6 1 -3.6
v -2 1.1 4
v 2 1.1 4
v -1.8 1.1 3.8
v 1.8 1.1 3.8
v -1.8 1.1 -3.8
v 1.8 1.1 -3.8
v -2 1.1 -4
v 2 1.1 -4

# faces
f 3/7/1 2/7/1 1/7/1
f 4/7/1 2/7/1 3/7/1
f 5/8/1 4/8/1 3/8/1
f 6/8/1 4/8/1 5/8/1
f 9/5/1 8/5/1 7/5/1
f 10/5/1 8/5/1 9/5/1
f 11/3/1 10/3/1 9/3/1
f 12/3/1 10/3/1 11/3/1
f 13/4/1 12/4/1 11/4/1
f 14/4/1 12/4/1 13/4/1
f 15/2/1 14/2/1 13/2/1
f 16/2/1 14/2/1 15/2/1
f 19/8/1 18/8/1 17/8/1
f 20/8/1 18/8/1 19/8/1
f 21/8/2 22/8/2 23/8/2
f 23/8/2 22/8/2 24/8/2
f 25/5/2 26/5/2 27/5/2
f 27/5/2 26/5/2 28/5/2
f 27/3/2 28/3/2 29/3/2
f 29/3/2 28/3/2 30/3/2
f 29/4/2 30/4/2 31/4/2
f 31/4/2 30/4/2 32/4/2
f 31/2/2 32/2/2 33/2/2
f 33/2/2 32/2/2 34/2/2
f 35/7/2 36/7/2 37/7/2
f 37/7/2 36/7/2 38/7/2
f 37/8/2 38/8/2 39/8/2
f 39/8/2 38/8/2 40/8/2
f 44/7/3 42/7/3 41/7/3
f 45/8/3 43/8/3 42/8/3
f 45/7/3 42/7/3 44/7/3
f 46/8/3 43/8/3 45/8/3
f 52/5/3 48/5/3 47/5/3
f 53/3/3 49/3/3 48/3/3
f 53/5/3 48/5/3 52/5/3
f 54/4/3 50/4/3 49/4/3
f 54/3/3 49/3/3 53/3/3
f 55/2/3 51/2/3 50/2/3
f 55/4/3 50/4/3 54/4/3
f 56/2/3 51/2/3 55/2/3
f 59/8/3 58/8/3 57/8/3
f 60/8/3 58/8/3 59/8/3
f 61/8/4 62/8/4 63/8/4
f 63/8/4 62/8/4 64/8/4
f 65/5/4 66/5/4 70/5/4
f 66/3/4 67/3/4 71/3/4
f 70/5/4 66/5/4 71/5/4
f 67/4/4 68/4/4 72/4/4
f 71/3/4 67/3/4 72/3/4
f 68/2/4 69/2/4 73/2/4
f 72/4/4 68/4/4 73/4/4
f 73/2/4 69/2/4 74/2/4
f 75/7/4 76/7/4 78/7/4
f 76/8/4 77/8/4 79/8/4
f 78/7/4 76/7/4 79/7/4
f 79/8/4 77/8/4 80/8/4
f 83/7/5 82/7/5 81/7/5
f 84/7/5 82/7/5 83/7/5
f 85/2/6 86/2/6 87/2/6
f 87/2/6 86/2/6 88/2/6
f 85/2/6 87/2/6 89/2/6
f 88/2/6 86/2/6 90/2/6
f 85/2/6 89/2/6 91/2/6
f 89/2/6 90/2/6 91/2/6
f 90/2/6 86/2/6 92/2/6
f 91/2/6 90/2/6 92/2/6
f 93/2/6 94/2/6 95/2/6
f 95/2/6 94/2/6 96/2/6
f 97/8/6 98/8/6 99/8/6
f 99/8/6 98/8/6 100/8/6
f 97/8/6 99/8/6 101/8/6
f 100/8/6 98/8/6 102/8/6
f 97/8/6 101/8/6 103/8/6
f 101/8/6 102/8/6 103/8/6
f 102/8/6 98/8/6 104/8/6
f 103/8/6 102/8/6 104/8/6
