# Blender v2.80 (sub 75) OBJ File: ''
# www.blender.org
mtllib Tree Road Long.mtl
o Tree_Road_Long
v -2.000000 -0.150001 4.000000
v -2.000000 -0.549999 -4.000000
v -2.000000 -0.550001 4.000000
v -2.000000 -0.149999 -4.000000
v -2.000000 0.549999 4.000000
v -2.000000 0.550001 -4.000000
v -1.600000 0.150000 3.600000
v -1.600000 0.050001 -3.600000
v -1.600000 0.049999 3.600000
v -1.600000 0.150001 -3.600000
v -1.600000 0.249999 3.600000
v -1.600000 0.250001 -3.600000
v -1.600000 0.449999 3.600000
v -1.600000 0.450001 -3.600000
v 1.800000 0.549999 3.800000
v 1.800000 0.050001 -3.800000
v 1.800000 0.049999 3.800000
v 1.800000 0.550001 -3.800000
v -1.800000 0.049999 3.800000
v -1.800000 0.050001 -3.800000
v -1.800000 0.549999 3.800000
v -1.800000 0.550001 -3.800000
v 1.600000 0.049999 3.600000
v 1.600000 0.050001 -3.600000
v 1.600000 0.150000 3.600000
v 1.600000 0.150001 -3.600000
v 1.600000 0.249999 3.600000
v 1.600000 0.250001 -3.600000
v 1.600000 0.449999 3.600000
v 1.600000 0.450001 -3.600000
v 2.000000 -0.550001 4.000000
v 2.000000 -0.549999 -4.000000
v 2.000000 -0.150001 4.000000
v 2.000000 -0.149999 -4.000000
v 2.000000 0.549999 4.000000
v 2.000000 0.550001 -4.000000
v 2.000000 -0.550001 4.000000
v -2.000000 -0.150001 4.000000
v -2.000000 -0.550001 4.000000
v 2.000000 -0.150001 4.000000
v -2.000000 0.549999 4.000000
v 2.000000 0.549999 4.000000
v 1.600000 0.049999 3.600000
v -1.600000 0.150000 3.600000
v -1.600000 0.049999 3.600000
v 1.600000 0.150000 3.600000
v -1.600000 0.249999 3.600000
v 1.600000 0.249999 3.600000
v -1.600000 0.449999 3.600000
v 1.600000 0.449999 3.600000
v 1.800000 0.050001 -3.800000
v -1.800000 0.550001 -3.800000
v -1.800000 0.050001 -3.800000
v 1.800000 0.550001 -3.800000
v -1.800000 0.049999 3.800000
v -1.800000 0.549999 3.800000
v 1.800000 0.049999 3.800000
v 1.800000 0.549999 3.800000
v -1.600000 0.050001 -3.600000
v -1.600000 0.150001 -3.600000
v 1.600000 0.050001 -3.600000
v -1.600000 0.250001 -3.600000
v 1.600000 0.150001 -3.600000
v -1.600000 0.450001 -3.600000
v 1.600000 0.250001 -3.600000
v 1.600000 0.450001 -3.600000
v -2.000000 -0.549999 -4.000000
v -2.000000 -0.149999 -4.000000
v 2.000000 -0.549999 -4.000000
v -2.000000 0.550001 -4.000000
v 2.000000 -0.149999 -4.000000
v 2.000000 0.550001 -4.000000
v -2.000000 -0.549999 -4.000000
v 2.000000 -0.550001 4.000000
v -2.000000 -0.550001 4.000000
v 2.000000 -0.549999 -4.000000
v -1.800000 0.049999 3.800000
v 1.800000 0.049999 3.800000
v -1.600000 0.049999 3.600000
v 1.600000 0.049999 3.600000
v -1.600000 0.050001 -3.600000
v 1.600000 0.050001 -3.600000
v -1.800000 0.050001 -3.800000
v 1.800000 0.050001 -3.800000
v -1.600000 0.449999 3.600000
v 1.600000 0.449999 3.600000
v -1.600000 0.450001 -3.600000
v 1.600000 0.450001 -3.600000
v -2.000000 0.549999 4.000000
v 2.000000 0.549999 4.000000
v -1.800000 0.549999 3.800000
v 1.800000 0.549999 3.800000
v -1.800000 0.550001 -3.800000
v 1.800000 0.550001 -3.800000
v -2.000000 0.550001 -4.000000
v 2.000000 0.550001 -4.000000
vt 0.974609 0.500000
vt 0.974609 0.500000
vt 0.974609 0.500000
vt 0.974609 0.500000
vt 0.986328 0.500000
vt 0.986328 0.500000
vt 0.986328 0.500000
vt 0.986328 0.500000
vt 0.904297 0.500000
vt 0.904297 0.500000
vt 0.904297 0.500000
vt 0.904297 0.500000
vt 0.896484 0.500000
vt 0.896484 0.500000
vt 0.896484 0.500000
vt 0.896484 0.500000
vt 0.900391 0.500000
vt 0.900391 0.500000
vt 0.900391 0.500000
vt 0.900391 0.500000
vt 0.986328 0.500000
vt 0.986328 0.500000
vt 0.986328 0.500000
vt 0.986328 0.500000
vt 0.986328 0.500000
vt 0.986328 0.500000
vt 0.986328 0.500000
vt 0.986328 0.500000
vt 0.904297 0.500000
vt 0.904297 0.500000
vt 0.904297 0.500000
vt 0.904297 0.500000
vt 0.896484 0.500000
vt 0.896484 0.500000
vt 0.896484 0.500000
vt 0.896484 0.500000
vt 0.900391 0.500000
vt 0.900391 0.500000
vt 0.900391 0.500000
vt 0.900391 0.500000
vt 0.974609 0.500000
vt 0.974609 0.500000
vt 0.974609 0.500000
vt 0.974609 0.500000
vt 0.986328 0.500000
vt 0.986328 0.500000
vt 0.986328 0.500000
vt 0.986328 0.500000
vt 0.974609 0.500000
vt 0.974609 0.500000
vt 0.974609 0.500000
vt 0.986328 0.500000
vt 0.986328 0.500000
vt 0.986328 0.500000
vt 0.974609 0.500000
vt 0.986328 0.500000
vt 0.904297 0.500000
vt 0.904297 0.500000
vt 0.904297 0.500000
vt 0.896484 0.500000
vt 0.896484 0.500000
vt 0.896484 0.500000
vt 0.904297 0.500000
vt 0.900391 0.500000
vt 0.900391 0.500000
vt 0.900391 0.500000
vt 0.896484 0.500000
vt 0.900391 0.500000
vt 0.986328 0.500000
vt 0.986328 0.500000
vt 0.986328 0.500000
vt 0.986328 0.500000
vt 0.986328 0.500000
vt 0.986328 0.500000
vt 0.986328 0.500000
vt 0.986328 0.500000
vt 0.904297 0.500000
vt 0.904297 0.500000
vt 0.904297 0.500000
vt 0.896484 0.500000
vt 0.896484 0.500000
vt 0.896484 0.500000
vt 0.904297 0.500000
vt 0.900391 0.500000
vt 0.900391 0.500000
vt 0.900391 0.500000
vt 0.896484 0.500000
vt 0.900391 0.500000
vt 0.974609 0.500000
vt 0.974609 0.500000
vt 0.974609 0.500000
vt 0.986328 0.500000
vt 0.986328 0.500000
vt 0.986328 0.500000
vt 0.974609 0.500000
vt 0.986328 0.500000
vt 0.974609 0.500000
vt 0.974609 0.500000
vt 0.974609 0.500000
vt 0.974609 0.500000
vt 0.900391 0.500000
vt 0.900391 0.500000
vt 0.900391 0.500000
vt 0.900391 0.500000
vt 0.900391 0.500000
vt 0.900391 0.500000
vt 0.900391 0.500000
vt 0.900391 0.500000
vt 0.900391 0.500000
vt 0.900391 0.500000
vt 0.900391 0.500000
vt 0.900391 0.500000
vt 0.986328 0.500000
vt 0.986328 0.500000
vt 0.986328 0.500000
vt 0.986328 0.500000
vt 0.986328 0.500000
vt 0.986328 0.500000
vt 0.986328 0.500000
vt 0.986328 0.500000
vn -1.0000 0.0000 0.0000
vn 1.0000 0.0000 0.0000
vn 0.0000 0.0000 1.0000
vn 0.0000 0.0000 -1.0000
vn 0.0000 -1.0000 -0.0000
vn -0.0000 1.0000 0.0000
usemtl palette.002
s 1
f 1/1/1 2/2/1 3/3/1
f 4/4/1 2/2/1 1/1/1
f 5/5/1 4/6/1 1/7/1
f 6/8/1 4/6/1 5/5/1
f 7/9/1 8/10/1 9/11/1
f 10/12/1 8/10/1 7/9/1
f 11/13/1 10/14/1 7/15/1
f 12/16/1 10/14/1 11/13/1
f 13/17/1 12/18/1 11/19/1
f 14/20/1 12/18/1 13/17/1
f 15/21/1 16/22/1 17/23/1
f 18/24/1 16/22/1 15/21/1
f 19/25/2 20/26/2 21/27/2
f 21/27/2 20/26/2 22/28/2
f 23/29/2 24/30/2 25/31/2
f 25/31/2 24/30/2 26/32/2
f 25/33/2 26/34/2 27/35/2
f 27/35/2 26/34/2 28/36/2
f 27/37/2 28/38/2 29/39/2
f 29/39/2 28/38/2 30/40/2
f 31/41/2 32/42/2 33/43/2
f 33/43/2 32/42/2 34/44/2
f 33/45/2 34/46/2 35/47/2
f 35/47/2 34/46/2 36/48/2
f 37/49/3 38/50/3 39/51/3
f 40/52/3 41/53/3 38/54/3
f 40/55/3 38/50/3 37/49/3
f 42/56/3 41/53/3 40/52/3
f 43/57/3 44/58/3 45/59/3
f 46/60/3 47/61/3 44/62/3
f 46/63/3 44/58/3 43/57/3
f 48/64/3 49/65/3 47/66/3
f 48/67/3 47/61/3 46/60/3
f 50/68/3 49/65/3 48/64/3
f 51/69/3 52/70/3 53/71/3
f 54/72/3 52/70/3 51/69/3
f 55/73/4 56/74/4 57/75/4
f 57/75/4 56/74/4 58/76/4
f 59/77/4 60/78/4 61/79/4
f 60/80/4 62/81/4 63/82/4
f 61/79/4 60/78/4 63/83/4
f 62/84/4 64/85/4 65/86/4
f 63/82/4 62/81/4 65/87/4
f 65/86/4 64/85/4 66/88/4
f 67/89/4 68/90/4 69/91/4
f 68/92/4 70/93/4 71/94/4
f 69/91/4 68/90/4 71/95/4
f 71/94/4 70/93/4 72/96/4
f 73/97/5 74/98/5 75/99/5
f 76/100/5 74/98/5 73/97/5
f 77/101/6 78/102/6 79/103/6
f 79/103/6 78/102/6 80/104/6
f 77/101/6 79/103/6 81/105/6
f 80/104/6 78/102/6 82/106/6
f 77/101/6 81/105/6 83/107/6
f 81/105/6 82/106/6 83/107/6
f 82/106/6 78/102/6 84/108/6
f 83/107/6 82/106/6 84/108/6
f 85/109/6 86/110/6 87/111/6
f 87/111/6 86/110/6 88/112/6
f 89/113/6 90/114/6 91/115/6
f 91/115/6 90/114/6 92/116/6
f 89/113/6 91/115/6 93/117/6
f 92/116/6 90/114/6 94/118/6
f 89/113/6 93/117/6 95/119/6
f 93/117/6 94/118/6 95/119/6
f 94/118/6 90/114/6 96/120/6
f 95/119/6 94/118/6 96/120/6
